{"glyphs":{"0":{"ha":833,"x_min":117,"x_max":717,"o":"m 417 -17 q 194 106 272 -17 q 117 447 117 228 q 194 788 117 669 q 417 906 272 906 q 639 788 561 906 q 717 447 717 669 q 639 106 717 228 q 417 -17 561 -17 m 417 867 q 231 760 301 867 q 161 447 161 654 q 231 131 161 240 q 417 22 301 22 q 602 131 532 22 q 672 447 672 240 q 602 760 672 654 q 417 867 532 867 m 417 381 q 367 401 389 381 q 344 461 344 421 q 367 522 344 501 q 417 542 389 542 q 467 522 444 542 q 489 461 489 501 q 467 401 489 421 q 417 381 444 381 z "},"1":{"ha":833,"x_min":156,"x_max":722,"o":"m 722 39 l 722 0 l 156 0 l 156 39 l 425 39 l 425 806 l 231 806 l 231 836 q 348 858 297 844 q 435 889 399 872 l 467 889 l 467 39 l 722 39 z "},"2":{"ha":833,"x_min":115,"x_max":710,"o":"m 118 28 q 339 233 244 143 q 494 399 433 324 q 586 537 556 474 q 617 661 617 600 q 603 742 617 704 q 563 807 590 779 q 491 851 535 835 q 388 867 447 867 q 255 833 317 867 q 146 747 193 800 l 115 775 q 235 867 168 829 q 389 906 301 906 q 590 839 519 906 q 660 661 660 772 q 627 526 660 593 q 533 383 594 458 q 383 223 471 308 q 183 33 294 138 q 267 38 226 36 q 351 39 308 39 l 710 39 l 710 0 l 118 0 l 118 28 z "},"3":{"ha":833,"x_min":97,"x_max":706,"o":"m 125 139 q 174 96 147 117 q 237 58 201 75 q 315 32 272 42 q 411 22 358 22 q 510 38 464 22 q 589 80 556 53 q 642 145 622 107 q 661 231 661 183 q 573 387 661 326 q 294 447 485 447 l 294 489 q 448 505 385 489 q 551 549 511 521 q 610 613 592 576 q 628 692 628 650 q 611 763 628 731 q 565 819 594 796 q 495 854 536 842 q 406 867 454 867 q 270 838 335 867 q 164 767 206 808 l 136 797 q 252 874 185 842 q 406 906 319 906 q 510 891 461 906 q 594 849 558 876 q 651 783 631 822 q 672 694 672 744 q 656 614 672 650 q 613 551 640 578 q 547 504 585 524 q 467 472 510 485 l 467 467 q 557 439 514 458 q 633 390 600 419 q 686 320 667 360 q 706 233 706 281 q 683 130 706 176 q 619 51 660 83 q 525 1 579 18 q 408 -17 471 -17 q 303 -6 350 -17 q 217 24 256 6 q 149 64 179 42 q 97 108 119 86 l 125 139 z "},"4":{"ha":833,"x_min":60,"x_max":743,"o":"m 542 313 l 542 689 q 545 752 544 721 q 549 815 546 783 l 540 815 q 498 759 519 788 q 456 703 476 731 l 128 313 l 542 313 m 743 272 l 583 272 l 583 0 l 542 0 l 542 272 l 60 272 l 60 296 l 563 890 l 583 890 l 583 313 l 743 313 l 743 272 z "},"5":{"ha":833,"x_min":89,"x_max":714,"o":"m 117 133 q 166 92 139 113 q 227 57 193 72 q 304 32 261 42 q 403 22 347 22 q 505 40 457 22 q 590 92 553 58 q 648 172 626 125 q 669 275 669 218 q 599 452 669 388 q 406 517 529 517 q 347 513 374 517 q 295 500 319 508 q 248 481 271 492 q 200 456 225 469 l 164 478 l 197 889 l 667 889 l 667 850 l 236 850 l 206 508 q 297 544 250 531 q 408 558 343 558 q 530 542 474 558 q 627 491 586 525 q 691 403 668 457 q 714 278 714 350 q 688 152 714 207 q 617 60 661 97 q 517 3 574 22 q 400 -17 460 -17 q 292 -6 339 -17 q 208 22 244 6 q 142 60 171 39 q 89 103 113 82 l 117 133 z "},"6":{"ha":833,"x_min":125,"x_max":728,"o":"m 453 22 q 545 41 503 22 q 618 92 588 60 q 666 167 649 124 q 683 258 683 210 q 625 432 683 369 q 447 494 567 494 q 313 462 385 494 q 171 353 242 429 q 194 219 175 281 q 248 115 214 158 q 333 47 282 71 q 453 22 383 22 m 681 792 q 486 867 601 867 q 367 843 424 867 q 266 765 310 819 q 196 623 222 711 q 169 406 169 535 q 299 499 229 464 q 450 533 368 533 q 654 463 581 533 q 728 258 728 393 q 706 149 728 199 q 645 62 683 99 q 556 4 607 25 q 450 -17 506 -17 q 211 92 297 -17 q 125 400 125 201 q 155 638 125 542 q 235 794 185 735 q 352 880 286 854 q 489 906 418 906 q 613 883 560 906 q 708 822 665 860 l 681 792 z "},"7":{"ha":833,"x_min":106,"x_max":731,"o":"m 350 0 q 376 252 356 139 q 435 465 396 365 q 532 658 474 565 q 672 850 590 751 l 106 850 l 106 889 l 731 889 l 731 864 q 577 658 639 757 q 478 456 515 558 q 422 242 440 354 q 400 0 404 131 l 350 0 l 350 0 z "},"8":{"ha":833,"x_min":103,"x_max":728,"o":"m 147 228 q 166 147 147 185 q 220 82 185 110 q 307 38 256 54 q 424 22 358 22 q 536 38 488 22 q 617 78 585 53 q 667 139 650 104 q 683 214 683 174 q 657 312 683 274 q 585 377 631 350 q 479 424 539 404 q 353 464 419 443 q 271 420 308 443 q 206 369 233 397 q 163 306 179 340 q 147 228 147 271 m 499 458 q 644 675 644 556 q 631 749 644 714 q 588 810 617 783 q 519 851 560 836 q 424 867 478 867 q 338 853 376 867 q 273 817 300 840 q 231 761 246 793 q 217 692 217 729 q 239 606 217 642 q 300 542 261 569 q 390 496 339 515 q 499 458 440 476 m 103 228 q 122 317 103 278 q 171 388 140 357 q 238 441 201 418 q 313 481 275 464 l 313 486 q 215 569 257 517 q 172 692 172 621 q 192 778 172 739 q 244 845 211 817 q 324 890 278 874 q 424 906 369 906 q 538 888 488 906 q 621 840 588 871 q 672 766 654 808 q 689 675 689 724 q 647 551 689 610 q 546 447 606 492 l 546 442 q 617 403 583 422 q 675 358 650 383 q 714 297 700 332 q 728 214 728 263 q 708 124 728 165 q 649 51 688 82 q 553 1 610 19 q 424 -17 496 -17 q 290 2 350 -17 q 189 53 231 21 q 125 131 147 86 q 103 228 103 175 z "},"9":{"ha":833,"x_min":108,"x_max":711,"o":"m 389 394 q 523 427 451 394 q 665 536 594 460 q 642 669 661 608 q 588 774 622 731 q 503 842 554 818 q 383 867 451 867 q 291 848 333 867 q 218 797 249 829 q 170 722 188 765 q 153 631 153 679 q 211 457 153 519 q 389 394 269 394 m 156 97 q 350 22 235 22 q 469 46 413 22 q 570 124 526 69 q 640 266 614 178 q 667 483 667 354 q 538 390 607 425 q 386 356 468 356 q 182 426 256 356 q 108 631 108 496 q 131 740 108 690 q 191 827 153 790 q 280 885 229 864 q 386 906 331 906 q 625 797 539 906 q 711 489 711 688 q 681 251 711 347 q 601 94 651 154 q 484 9 550 35 q 347 -17 418 -17 q 224 6 276 -17 q 128 67 171 29 l 156 97 z "},"\u0000":{"ha":0,"x_min":0,"x_max":0,"o":""},"\r":{"ha":833,"x_min":0,"x_max":0,"o":""}," ":{"ha":833,"x_min":0,"x_max":0,"o":""},"A":{"ha":833,"x_min":69,"x_max":764,"o":"m 589 367 l 525 550 q 470 708 496 633 q 419 869 444 783 l 414 869 q 363 708 389 783 q 308 550 338 633 l 243 367 l 589 367 m 603 328 l 229 328 l 114 0 l 69 0 l 397 917 l 436 917 l 764 0 l 717 0 l 603 328 z "},"B":{"ha":833,"x_min":165,"x_max":743,"o":"m 165 917 l 388 917 q 606 862 526 917 q 685 694 685 807 q 644 568 685 621 q 521 494 603 515 l 521 489 q 683 418 624 474 q 743 267 743 363 q 652 67 743 135 q 404 0 561 0 l 165 0 l 165 917 m 360 508 q 575 556 510 508 q 640 700 640 604 q 572 836 640 794 q 368 878 503 878 l 210 878 l 210 508 l 360 508 m 388 39 q 517 52 460 39 q 615 93 575 65 q 677 163 656 121 q 699 264 699 206 q 617 419 699 368 q 388 469 536 469 l 210 469 l 210 39 l 388 39 z "},"C":{"ha":833,"x_min":103,"x_max":751,"o":"m 103 461 q 131 657 103 569 q 209 806 158 744 q 331 900 260 867 q 490 933 403 933 q 628 900 569 933 q 724 825 688 867 l 696 794 q 607 865 658 839 q 490 892 556 892 q 348 862 411 892 q 241 776 285 832 q 174 640 197 719 q 150 461 150 560 q 174 282 150 363 q 240 144 197 201 q 345 56 283 88 q 485 25 407 25 q 615 54 558 25 q 724 142 671 83 l 751 114 q 635 18 699 53 q 482 -17 572 -17 q 328 17 397 -17 q 208 114 258 51 q 131 265 158 176 q 103 461 103 353 z "},"D":{"ha":833,"x_min":139,"x_max":756,"o":"m 139 917 l 344 917 q 528 884 450 917 q 656 791 606 851 q 731 647 707 731 q 756 461 756 563 q 731 274 756 358 q 656 128 707 189 q 528 34 606 68 q 344 0 450 0 l 139 0 l 139 917 m 339 39 q 506 71 436 39 q 622 159 576 103 q 688 293 667 215 q 708 461 708 371 q 688 628 708 551 q 622 760 667 704 q 506 847 576 815 q 339 878 436 878 l 183 878 l 183 39 l 339 39 z "},"E":{"ha":833,"x_min":183,"x_max":731,"o":"m 183 917 l 717 917 l 717 878 l 228 878 l 228 508 l 639 508 l 639 469 l 228 469 l 228 39 l 731 39 l 731 0 l 183 0 l 183 917 z "},"F":{"ha":833,"x_min":217,"x_max":742,"o":"m 217 917 l 742 917 l 742 878 l 260 878 l 260 492 l 665 492 l 665 453 l 260 453 l 260 0 l 217 0 l 217 917 z "},"G":{"ha":833,"x_min":85,"x_max":725,"o":"m 85 461 q 113 657 85 569 q 192 806 140 744 q 315 900 243 867 q 476 933 388 933 q 558 924 521 933 q 624 898 594 914 q 676 863 653 882 q 717 825 699 843 l 689 794 q 602 863 653 835 q 476 892 551 892 q 332 862 396 892 q 224 776 268 832 q 156 640 179 719 q 132 461 132 560 q 155 282 132 363 q 221 144 178 201 q 326 56 264 88 q 465 25 388 25 q 588 44 532 25 q 679 100 644 64 l 679 403 l 457 403 l 457 442 l 725 442 l 725 86 q 617 12 683 40 q 463 -17 551 -17 q 307 17 376 -17 q 188 114 238 51 q 112 265 139 176 q 85 461 85 353 z "},"H":{"ha":833,"x_min":128,"x_max":706,"o":"m 128 917 l 172 917 l 172 508 l 661 508 l 661 917 l 706 917 l 706 0 l 661 0 l 661 469 l 172 469 l 172 0 l 128 0 l 128 917 z "},"I":{"ha":833,"x_min":156,"x_max":678,"o":"m 156 39 l 394 39 l 394 878 l 156 878 l 156 917 l 678 917 l 678 878 l 439 878 l 439 39 l 678 39 l 678 0 l 156 0 l 156 39 z "},"J":{"ha":833,"x_min":136,"x_max":660,"o":"m 178 160 q 273 56 218 89 q 388 24 328 24 q 562 88 508 24 q 615 283 615 153 l 615 881 l 211 881 l 211 918 l 660 918 l 660 279 q 646 164 660 218 q 600 69 632 110 q 516 6 568 29 q 386 -17 464 -17 q 240 22 307 -17 q 136 136 174 60 l 178 160 z "},"K":{"ha":833,"x_min":169,"x_max":789,"o":"m 169 917 l 214 917 l 214 389 l 217 389 l 694 917 l 749 917 l 449 581 l 789 0 l 736 0 l 415 547 l 214 325 l 214 0 l 169 0 l 169 917 z "},"L":{"ha":833,"x_min":217,"x_max":747,"o":"m 217 917 l 258 917 l 258 39 l 747 39 l 747 0 l 217 0 l 217 917 z "},"M":{"ha":833,"x_min":132,"x_max":701,"o":"m 132 917 l 196 917 l 357 475 l 415 308 l 421 308 l 476 475 l 638 917 l 701 917 l 701 0 l 657 0 l 657 688 q 658 776 657 731 q 661 865 660 822 l 657 865 l 607 713 l 436 251 l 399 251 l 226 713 l 172 865 l 169 865 q 173 776 171 822 q 175 688 175 731 l 175 0 l 132 0 l 132 917 z "},"N":{"ha":833,"x_min":133,"x_max":700,"o":"m 133 917 l 179 917 l 560 242 l 661 64 l 664 64 q 660 193 663 131 q 658 321 658 256 l 658 917 l 700 917 l 700 0 l 654 0 l 274 675 l 172 853 l 169 853 q 173 726 171 786 q 175 601 175 667 l 175 0 l 133 0 l 133 917 z "},"O":{"ha":833,"x_min":78,"x_max":756,"o":"m 417 -17 q 281 17 343 -17 q 173 114 218 51 q 103 265 128 176 q 78 461 78 353 q 103 657 78 569 q 173 806 128 744 q 281 900 218 867 q 417 933 343 933 q 553 900 490 933 q 660 806 615 867 q 731 657 706 744 q 756 461 756 569 q 731 265 756 353 q 660 114 706 176 q 553 17 615 51 q 417 -17 490 -17 m 417 25 q 535 56 482 25 q 628 144 589 88 q 688 282 667 201 q 708 461 708 363 q 688 640 708 560 q 628 776 667 719 q 535 862 589 832 q 417 892 482 892 q 298 862 351 892 q 206 776 244 832 q 146 640 167 719 q 125 461 125 560 q 146 282 125 363 q 206 144 167 201 q 298 56 244 88 q 417 25 351 25 z "},"P":{"ha":833,"x_min":172,"x_max":733,"o":"m 172 917 l 411 917 q 649 860 565 917 q 733 667 733 804 q 650 470 733 535 q 411 406 567 406 l 217 406 l 217 0 l 172 0 l 172 917 m 394 444 q 615 496 543 444 q 686 667 686 547 q 614 833 686 788 q 394 878 542 878 l 217 878 l 217 444 l 394 444 z "},"Q":{"ha":833,"x_min":83,"x_max":750,"o":"m 128 461 q 148 282 128 363 q 206 144 168 201 q 297 54 243 86 q 417 22 350 22 q 537 54 483 22 q 628 144 590 86 q 685 282 665 201 q 706 461 706 363 q 685 640 706 560 q 628 778 665 721 q 537 865 590 835 q 417 896 483 896 q 297 865 350 896 q 206 778 243 835 q 148 640 168 721 q 128 461 128 560 m 739 -197 q 698 -206 717 -203 q 660 -208 679 -208 q 560 -194 604 -208 q 483 -153 517 -179 q 427 -91 450 -126 q 390 -15 404 -56 q 265 27 321 -10 q 168 126 208 64 q 106 273 128 188 q 83 461 83 358 q 108 657 83 569 q 176 806 132 744 q 281 901 219 868 q 417 935 342 935 q 553 901 492 935 q 658 806 614 868 q 726 657 701 744 q 750 461 750 569 q 728 272 750 357 q 665 124 706 186 q 567 26 624 63 q 440 -15 510 -10 q 519 -124 464 -85 q 665 -162 574 -162 q 702 -160 686 -162 q 729 -153 718 -157 l 739 -197 z "},"R":{"ha":833,"x_min":172,"x_max":733,"o":"m 408 472 q 604 523 536 472 q 672 681 672 574 q 604 833 672 789 q 408 878 536 878 l 217 878 l 217 472 l 408 472 m 681 0 l 422 433 l 217 433 l 217 0 l 172 0 l 172 917 l 425 917 q 547 903 493 917 q 640 862 601 890 q 699 789 678 833 q 719 681 719 744 q 653 509 719 571 q 472 436 588 447 l 733 0 l 681 0 z "},"S":{"ha":833,"x_min":111,"x_max":731,"o":"m 142 153 q 269 60 194 94 q 431 25 343 25 q 536 40 489 25 q 617 80 583 54 q 668 142 650 106 q 686 222 686 178 q 672 299 686 268 q 632 353 657 331 q 574 393 607 376 q 503 425 540 410 l 361 489 q 294 519 329 501 q 230 563 260 538 q 181 626 200 589 q 161 714 161 663 q 182 803 161 763 q 239 872 203 843 q 325 917 275 901 q 433 933 375 933 q 588 901 521 933 q 697 825 656 868 l 669 794 q 568 865 628 839 q 433 892 508 892 q 268 844 331 892 q 206 717 206 796 q 223 644 206 674 q 267 592 240 614 q 324 556 293 571 q 381 531 354 542 l 522 467 q 600 430 563 450 q 667 382 638 410 q 713 316 696 354 q 731 225 731 278 q 709 128 731 172 q 648 52 688 85 q 553 1 608 19 q 431 -17 499 -17 q 244 22 324 -17 q 111 122 165 61 l 142 153 z "},"T":{"ha":833,"x_min":69,"x_max":764,"o":"m 394 878 l 69 878 l 69 917 l 764 917 l 764 878 l 439 878 l 439 0 l 394 0 l 394 878 z "},"U":{"ha":833,"x_min":128,"x_max":706,"o":"m 128 917 l 172 917 l 172 353 q 192 195 172 258 q 247 94 213 132 q 324 41 281 57 q 417 25 368 25 q 510 41 465 25 q 590 94 556 57 q 644 195 624 132 q 664 353 664 258 l 664 917 l 706 917 l 706 342 q 681 166 706 235 q 615 56 656 97 q 523 -1 575 15 q 417 -17 471 -17 q 310 -1 363 -17 q 218 56 258 15 q 153 166 178 97 q 128 342 128 235 l 128 917 z "},"V":{"ha":833,"x_min":90,"x_max":743,"o":"m 90 917 l 138 917 l 315 367 q 341 286 329 324 q 365 212 353 249 q 388 137 376 175 q 415 57 400 99 l 421 57 q 447 137 435 99 q 472 212 460 175 q 495 286 483 249 q 521 367 507 324 l 699 917 l 743 917 l 440 0 l 396 0 l 90 917 z "},"W":{"ha":833,"x_min":21,"x_max":811,"o":"m 21 918 l 61 918 l 169 272 q 185 163 176 217 q 201 53 194 108 l 204 53 q 239 163 222 108 q 271 272 256 217 l 393 678 l 442 678 l 567 272 q 598 162 582 217 q 631 53 614 107 l 636 53 q 652 162 643 107 q 668 272 661 217 l 772 918 l 811 918 l 660 0 l 601 0 l 461 460 q 440 539 450 500 q 419 618 431 578 l 415 618 q 394 539 404 578 q 371 460 383 500 l 235 0 l 176 0 l 21 918 z "},"X":{"ha":833,"x_min":115,"x_max":718,"o":"m 393 475 l 135 917 l 182 917 l 343 633 q 378 575 363 601 q 418 511 394 549 l 424 511 q 459 575 444 549 q 493 633 474 601 l 654 917 l 699 917 l 440 472 l 718 0 l 671 0 l 501 294 q 461 363 482 328 q 415 439 440 397 l 410 439 q 367 363 386 397 q 329 294 349 328 l 160 0 l 115 0 l 393 475 z "},"Y":{"ha":833,"x_min":78,"x_max":756,"o":"m 394 340 l 78 917 l 122 917 l 294 603 q 356 496 326 550 q 417 386 385 442 l 422 386 q 486 496 456 442 q 547 604 517 550 l 714 917 l 756 917 l 439 340 l 439 0 l 394 0 l 394 340 z "},"Z":{"ha":833,"x_min":100,"x_max":740,"o":"m 100 26 l 678 881 l 149 881 l 149 918 l 731 918 l 731 892 l 151 39 l 740 39 l 740 0 l 100 0 l 100 26 z "},"a":{"ha":833,"x_min":133,"x_max":694,"o":"m 133 163 q 163 260 133 218 q 256 331 193 301 q 417 381 318 361 q 653 414 515 401 q 643 499 653 457 q 610 572 633 540 q 547 622 588 603 q 447 642 507 642 q 369 633 407 642 q 298 609 332 624 q 236 578 264 594 q 189 547 208 561 l 167 581 q 214 612 185 594 q 281 644 243 629 q 362 670 318 660 q 450 681 406 681 q 563 660 517 681 q 639 606 610 640 q 681 526 668 571 q 694 431 694 481 l 694 0 l 658 0 l 653 103 l 650 103 q 587 58 621 79 q 517 19 553 36 q 442 -7 481 3 q 367 -17 404 -17 q 281 -6 322 -17 q 206 26 239 4 q 153 81 174 47 q 133 163 133 115 m 178 164 q 194 98 178 125 q 238 54 211 71 q 299 30 265 38 q 369 22 333 22 q 653 150 501 22 l 653 378 q 427 347 518 365 q 281 301 336 328 q 201 241 225 275 q 178 164 178 207 z "},"b":{"ha":833,"x_min":153,"x_max":736,"o":"m 153 1003 l 194 1003 l 194 706 l 192 558 q 317 647 247 613 q 453 681 386 681 q 666 588 596 681 q 736 342 736 496 q 710 190 736 257 q 642 78 685 124 q 544 8 600 32 q 425 -17 488 -17 q 311 8 374 -17 q 197 75 249 33 l 194 75 l 189 0 l 153 0 l 153 1003 m 194 128 q 321 47 257 71 q 428 22 385 22 q 533 46 485 22 q 617 112 582 69 q 672 213 653 154 q 692 342 692 272 q 678 460 692 406 q 636 556 665 515 q 561 619 607 596 q 450 642 515 642 q 328 610 394 642 q 194 511 261 578 l 194 128 z "},"c":{"ha":833,"x_min":125,"x_max":739,"o":"m 125 331 q 153 479 125 414 q 231 589 182 544 q 344 657 279 633 q 483 681 410 681 q 560 672 525 681 q 624 649 594 664 q 676 616 653 635 q 721 578 700 597 l 693 547 q 599 615 650 589 q 483 642 549 642 q 356 619 414 642 q 257 555 299 596 q 192 456 215 514 q 169 331 169 399 q 192 205 169 261 q 256 108 214 149 q 355 44 297 67 q 483 22 413 22 q 611 50 554 22 q 714 122 668 78 l 739 92 q 626 13 689 43 q 483 -17 563 -17 q 340 7 406 -17 q 227 75 275 31 q 152 184 179 119 q 125 331 125 249 z "},"d":{"ha":833,"x_min":97,"x_max":681,"o":"m 97 331 q 123 476 97 411 q 192 586 149 540 q 294 656 236 632 q 414 681 351 681 q 533 655 479 681 q 642 583 586 629 l 639 722 l 639 1003 l 681 1003 l 681 0 l 644 0 l 639 103 l 636 103 q 528 19 592 56 q 392 -17 465 -17 q 272 6 326 -17 q 179 73 218 29 q 119 181 140 117 q 97 331 97 246 m 142 331 q 159 205 142 261 q 209 108 176 149 q 288 44 242 67 q 394 22 335 22 q 518 56 457 22 q 639 153 579 90 l 639 536 q 522 618 578 594 q 411 642 467 642 q 306 617 354 642 q 220 551 257 593 q 163 451 183 508 q 142 331 142 394 z "},"e":{"ha":833,"x_min":111,"x_max":736,"o":"m 111 331 q 139 476 111 411 q 213 587 167 542 q 319 656 260 632 q 442 681 379 681 q 563 660 508 681 q 656 599 617 639 q 715 503 694 560 q 736 375 736 447 q 736 353 736 364 q 733 331 736 343 l 156 331 q 178 208 156 264 q 240 110 200 151 q 335 45 279 68 q 461 22 392 22 q 586 43 531 22 q 689 97 642 64 l 708 61 q 662 33 686 47 q 607 8 638 19 q 540 -10 576 -3 q 458 -17 504 -17 q 324 7 388 -17 q 214 76 261 31 q 139 185 167 121 q 111 331 111 249 m 694 369 q 624 574 694 506 q 442 642 554 642 q 340 622 389 642 q 253 567 292 603 q 189 482 215 532 q 156 369 163 432 l 694 369 z "},"f":{"ha":833,"x_min":167,"x_max":794,"o":"m 778 944 q 734 963 754 956 q 694 974 714 969 q 655 979 675 978 q 611 981 635 981 q 517 964 556 981 q 455 918 479 947 q 419 848 431 889 q 408 758 408 807 l 408 664 l 728 664 l 728 625 l 408 625 l 408 0 l 369 0 l 369 625 l 167 625 l 167 658 l 369 664 l 369 753 q 429 950 369 881 q 611 1019 489 1019 q 698 1011 654 1019 q 794 978 742 1003 l 778 944 z "},"g":{"ha":833,"x_min":122,"x_max":778,"o":"m 167 -135 q 230 -242 167 -199 q 425 -286 293 -286 q 555 -270 497 -286 q 652 -228 613 -254 q 713 -169 692 -201 q 733 -103 733 -136 q 688 -20 733 -43 q 551 3 643 3 l 383 3 q 333 6 360 3 q 282 15 306 8 q 192 -58 217 -19 q 167 -135 167 -96 m 122 -129 q 152 -47 122 -90 q 236 31 182 -4 l 236 36 q 189 74 211 47 q 167 142 167 100 q 187 206 167 174 q 247 267 207 239 l 247 272 q 192 342 215 300 q 169 444 169 383 q 188 538 169 494 q 240 613 207 581 q 317 663 274 644 q 411 681 361 681 q 500 664 463 681 l 778 664 l 778 625 l 567 625 q 626 548 600 593 q 653 444 653 503 q 634 351 653 394 q 582 277 615 308 q 505 228 549 246 q 411 211 461 211 q 346 219 379 211 q 281 244 313 228 q 230 199 249 225 q 211 146 211 174 q 255 71 211 94 q 369 47 299 47 l 540 47 q 722 13 667 47 q 778 -100 778 -21 q 753 -182 778 -142 q 685 -254 729 -222 q 576 -306 640 -286 q 433 -325 513 -325 q 199 -270 275 -325 q 122 -129 122 -215 m 411 250 q 488 265 451 250 q 551 305 524 279 q 593 366 578 331 q 608 444 608 401 q 593 524 608 488 q 551 586 578 560 q 488 627 524 613 q 411 642 451 642 q 335 627 371 642 q 272 586 299 613 q 229 524 244 560 q 214 444 214 488 q 229 366 214 401 q 272 305 244 331 q 335 265 299 279 q 411 250 371 250 z "},"h":{"ha":833,"x_min":153,"x_max":708,"o":"m 153 1003 l 194 1003 l 194 706 l 192 525 q 322 638 258 594 q 467 681 385 681 q 649 616 589 681 q 708 414 708 551 l 708 0 l 667 0 l 667 408 q 619 584 667 526 q 467 642 572 642 q 397 632 429 642 q 332 602 364 622 q 267 551 300 582 q 194 481 233 521 l 194 0 l 153 0 l 153 1003 z "},"i":{"ha":833,"x_min":139,"x_max":542,"o":"m 139 664 l 522 664 l 522 0 l 481 0 l 481 625 l 139 625 l 139 664 m 486 833 q 447 849 463 833 q 431 892 431 864 q 447 935 431 919 q 486 950 463 950 q 526 935 510 950 q 542 892 542 919 q 526 849 542 864 q 486 833 510 833 z "},"j":{"ha":833,"x_min":92,"x_max":542,"o":"m 139 664 l 522 664 l 522 -64 q 510 -174 522 -125 q 468 -256 497 -222 q 390 -307 439 -289 q 269 -325 342 -325 q 176 -312 225 -325 q 92 -281 128 -300 l 111 -244 q 188 -274 143 -261 q 276 -286 232 -286 q 377 -270 338 -286 q 440 -226 417 -254 q 472 -159 463 -199 q 481 -72 481 -119 l 481 625 l 139 625 l 139 664 m 486 833 q 447 849 463 833 q 431 892 431 864 q 447 935 431 919 q 486 950 463 950 q 526 935 510 950 q 542 892 542 919 q 526 849 542 864 q 486 833 510 833 z "},"k":{"ha":833,"x_min":181,"x_max":783,"o":"m 181 1003 l 222 1003 l 222 244 l 228 244 l 681 664 l 736 664 l 461 408 l 783 0 l 733 0 l 428 383 l 222 192 l 222 0 l 181 0 l 181 1003 z "},"l":{"ha":833,"x_min":135,"x_max":739,"o":"m 135 1003 l 431 1003 l 431 183 q 579 22 431 22 q 647 31 613 22 q 722 60 681 40 l 739 25 q 662 -3 699 10 q 576 -17 625 -17 q 438 31 486 -17 q 389 192 389 79 l 389 964 l 135 964 l 135 1003 z "},"m":{"ha":833,"x_min":111,"x_max":753,"o":"m 111 664 l 147 664 l 153 572 l 156 572 q 220 651 186 622 q 310 681 254 681 q 399 651 367 681 q 444 561 431 622 q 519 650 483 619 q 610 681 554 681 q 716 632 679 681 q 753 483 753 583 l 753 0 l 711 0 l 711 478 q 607 642 711 642 q 524 608 558 642 q 453 508 489 575 l 453 0 l 411 0 l 411 478 q 307 642 411 642 q 224 608 258 642 q 153 508 189 575 l 153 0 l 111 0 l 111 664 z "},"n":{"ha":833,"x_min":153,"x_max":708,"o":"m 153 664 l 189 664 l 194 531 l 200 531 q 260 590 229 563 q 322 638 290 618 q 390 669 354 658 q 467 681 426 681 q 649 616 589 681 q 708 414 708 551 l 708 0 l 667 0 l 667 408 q 619 584 667 526 q 467 642 572 642 q 397 632 429 642 q 332 602 364 622 q 267 551 300 582 q 194 481 233 521 l 194 0 l 153 0 l 153 664 z "},"o":{"ha":833,"x_min":97,"x_max":736,"o":"m 97 331 q 123 479 97 414 q 192 589 149 544 q 294 657 236 633 q 417 681 351 681 q 540 657 482 681 q 641 589 597 633 q 710 479 685 544 q 736 331 736 414 q 710 184 736 249 q 641 75 685 119 q 540 7 597 31 q 417 -17 482 -17 q 294 7 351 -17 q 192 75 236 31 q 123 184 149 119 q 97 331 97 249 m 142 331 q 163 205 142 261 q 220 108 183 149 q 307 44 257 67 q 417 22 357 22 q 526 44 476 22 q 613 108 576 67 q 671 205 650 149 q 692 331 692 261 q 671 456 692 399 q 613 555 650 514 q 526 619 576 596 q 417 642 476 642 q 307 619 357 642 q 220 555 257 596 q 163 456 183 514 q 142 331 142 399 z "},"p":{"ha":833,"x_min":153,"x_max":736,"o":"m 194 -58 l 194 -308 l 153 -308 l 153 664 l 189 664 l 194 564 l 197 564 q 317 647 249 614 q 453 681 386 681 q 666 588 596 681 q 736 342 736 496 q 710 190 736 257 q 642 78 685 124 q 542 8 599 32 q 422 -17 485 -17 q 310 9 374 -17 q 194 81 247 35 l 194 -58 m 194 128 q 321 47 257 71 q 425 22 385 22 q 532 46 483 22 q 616 112 581 69 q 672 213 651 154 q 692 342 692 272 q 678 460 692 406 q 636 556 665 515 q 561 619 607 596 q 450 642 515 642 q 328 610 394 642 q 194 511 261 578 l 194 128 z "},"q":{"ha":833,"x_min":97,"x_max":681,"o":"m 97 331 q 123 476 97 411 q 192 586 149 540 q 294 656 236 632 q 414 681 351 681 q 532 656 479 681 q 636 586 585 631 l 639 586 l 644 664 l 681 664 l 681 -308 l 639 -308 l 639 -31 l 642 106 q 528 19 592 56 q 392 -17 465 -17 q 272 6 326 -17 q 179 73 218 29 q 119 181 140 117 q 97 331 97 246 m 142 331 q 159 205 142 261 q 209 108 176 149 q 288 44 242 67 q 394 22 335 22 q 518 56 457 22 q 639 153 579 90 l 639 536 q 522 618 578 594 q 411 642 467 642 q 306 617 354 642 q 220 551 257 593 q 163 451 183 508 q 142 331 142 394 z "},"r":{"ha":833,"x_min":236,"x_max":733,"o":"m 236 664 l 272 664 l 278 497 l 281 497 q 415 628 335 576 q 599 681 496 681 q 666 675 631 681 q 733 653 701 669 l 719 614 q 657 633 682 628 q 593 639 632 639 q 428 590 507 639 q 278 425 350 542 l 278 0 l 236 0 l 236 664 z "},"s":{"ha":833,"x_min":121,"x_max":714,"o":"m 147 122 q 272 49 201 76 q 450 22 342 22 q 545 34 504 22 q 614 65 586 46 q 656 110 642 85 q 669 164 669 136 q 660 209 669 188 q 624 250 651 231 q 549 288 597 269 q 422 325 500 307 q 316 357 364 339 q 233 398 268 375 q 178 449 197 421 q 158 508 158 476 q 173 574 158 543 q 219 629 188 606 q 297 667 250 653 q 411 681 344 681 q 544 658 475 681 q 661 600 614 636 l 636 567 q 535 621 592 600 q 408 642 479 642 q 310 631 350 642 q 247 601 271 619 q 213 560 222 583 q 203 511 203 536 q 265 426 203 461 q 433 365 326 392 q 569 324 515 344 q 656 281 624 304 q 701 229 688 257 q 714 167 714 201 q 696 97 714 131 q 644 39 678 64 q 560 -1 610 14 q 447 -17 511 -17 q 261 15 343 -17 q 121 89 179 46 l 147 122 z "},"t":{"ha":833,"x_min":117,"x_max":753,"o":"m 322 625 l 117 625 l 117 658 l 322 664 l 328 858 l 364 858 l 364 664 l 728 664 l 728 625 l 364 625 l 364 239 q 372 149 364 189 q 401 81 381 108 q 459 38 422 53 q 554 22 496 22 q 654 32 610 22 q 739 58 699 42 l 753 25 q 653 -6 708 6 q 551 -17 597 -17 q 441 2 485 -17 q 371 56 397 21 q 333 138 344 90 q 322 244 322 186 l 322 625 z "},"u":{"ha":833,"x_min":125,"x_max":681,"o":"m 681 0 l 644 0 l 639 133 l 633 133 q 513 26 578 68 q 367 -17 449 -17 q 185 48 244 -17 q 125 250 125 113 l 125 664 l 167 664 l 167 256 q 214 80 167 138 q 367 22 261 22 q 438 32 404 22 q 503 62 471 42 q 569 112 536 82 q 639 183 603 142 l 639 664 l 681 664 l 681 0 z "},"v":{"ha":833,"x_min":92,"x_max":742,"o":"m 92 664 l 136 664 l 331 233 q 376 136 354 183 q 417 44 397 89 l 422 44 q 462 136 442 89 q 506 233 482 183 l 700 664 l 742 664 l 439 0 l 397 0 l 92 664 z "},"w":{"ha":833,"x_min":17,"x_max":817,"o":"m 17 664 l 64 664 l 179 217 q 201 128 190 171 q 222 42 213 86 l 228 42 q 251 128 239 86 q 274 217 263 171 l 389 664 l 447 664 l 563 217 q 585 128 574 171 q 608 42 597 86 l 614 42 q 636 128 625 86 q 658 217 647 171 l 772 664 l 817 664 l 639 0 l 581 0 l 467 433 q 444 528 454 482 q 419 622 433 574 l 414 622 q 392 526 403 574 q 367 431 382 479 l 256 0 l 197 0 l 17 664 z "},"x":{"ha":833,"x_min":119,"x_max":714,"o":"m 390 344 l 142 664 l 192 664 l 328 486 q 369 431 349 458 q 414 375 390 403 l 419 375 q 467 432 443 403 q 511 489 490 461 l 644 664 l 692 664 l 440 344 l 714 0 l 664 0 l 514 190 q 466 251 490 218 q 417 314 442 285 l 411 314 q 363 252 386 282 q 314 189 339 222 l 167 0 l 119 0 l 390 344 z "},"y":{"ha":833,"x_min":89,"x_max":744,"o":"m 107 -256 q 137 -263 119 -260 q 174 -267 154 -267 q 247 -252 214 -267 q 306 -212 279 -237 q 354 -153 333 -187 q 392 -78 375 -118 l 417 -17 l 89 664 l 133 664 l 339 228 q 383 136 358 186 q 433 42 408 86 l 439 42 q 481 136 460 86 q 519 228 501 186 l 703 664 l 744 664 l 425 -94 q 389 -172 411 -133 q 335 -240 367 -210 q 262 -290 303 -271 q 169 -308 221 -308 q 128 -305 150 -308 q 93 -294 107 -301 l 107 -256 l 107 -256 z "},"z":{"ha":833,"x_min":100,"x_max":728,"o":"m 100 22 l 644 625 l 158 625 l 158 664 l 711 664 l 711 642 l 167 39 l 728 39 l 728 0 l 100 0 l 100 22 z "},"À":{"ha":833,"x_min":69,"x_max":764,"o":"m 589 367 l 525 550 q 470 708 496 633 q 419 869 444 783 l 414 869 q 363 708 389 783 q 308 550 338 633 l 243 367 l 589 367 m 603 328 l 229 328 l 114 0 l 69 0 l 397 917 l 436 917 l 764 0 l 717 0 l 603 328 m 269 1131 l 331 1131 l 461 986 l 419 986 l 269 1131 z "},"Á":{"ha":833,"x_min":69,"x_max":764,"o":"m 589 367 l 525 550 q 470 708 496 633 q 419 869 444 783 l 414 869 q 363 708 389 783 q 308 550 338 633 l 243 367 l 589 367 m 603 328 l 229 328 l 114 0 l 69 0 l 397 917 l 436 917 l 764 0 l 717 0 l 603 328 m 414 986 l 372 986 l 503 1131 l 564 1131 l 414 986 z "},"Â":{"ha":833,"x_min":69,"x_max":764,"o":"m 589 367 l 525 550 q 470 708 496 633 q 419 869 444 783 l 414 869 q 363 708 389 783 q 308 550 338 633 l 243 367 l 589 367 m 603 328 l 229 328 l 114 0 l 69 0 l 397 917 l 436 917 l 764 0 l 717 0 l 603 328 m 264 986 l 397 1131 l 436 1131 l 569 986 l 528 986 l 419 1089 l 414 1089 l 306 986 l 264 986 z "},"Ã":{"ha":833,"x_min":69,"x_max":764,"o":"m 589 367 l 525 550 q 470 708 496 633 q 419 869 444 783 l 414 869 q 363 708 389 783 q 308 550 338 633 l 243 367 l 589 367 m 603 328 l 229 328 l 114 0 l 69 0 l 397 917 l 436 917 l 764 0 l 717 0 l 603 328 m 497 997 q 449 1010 469 997 q 410 1038 429 1022 q 374 1065 392 1053 q 333 1078 356 1078 q 294 1056 310 1078 q 275 997 279 1033 l 244 997 q 251 1038 246 1017 q 268 1077 257 1060 q 296 1106 279 1094 q 336 1117 313 1117 q 383 1104 363 1117 q 423 1076 404 1092 q 460 1049 442 1061 q 500 1036 478 1036 q 539 1058 524 1036 q 558 1117 554 1081 l 589 1117 q 582 1076 588 1097 q 565 1037 576 1054 q 537 1008 554 1019 q 497 997 519 997 z "},"Ä":{"ha":833,"x_min":69,"x_max":764,"o":"m 589 367 l 525 550 q 470 708 496 633 q 419 869 444 783 l 414 869 q 363 708 389 783 q 308 550 338 633 l 243 367 l 589 367 m 603 328 l 229 328 l 114 0 l 69 0 l 397 917 l 436 917 l 764 0 l 717 0 l 603 328 m 311 1011 q 279 1023 292 1011 q 267 1056 267 1035 q 279 1088 267 1076 q 311 1100 292 1100 q 343 1088 331 1100 q 356 1056 356 1076 q 343 1023 356 1035 q 311 1011 331 1011 m 522 1011 q 490 1023 503 1011 q 478 1056 478 1035 q 490 1088 478 1076 q 522 1100 503 1100 q 554 1088 542 1100 q 567 1056 567 1076 q 554 1023 567 1035 q 522 1011 542 1011 z "},"Ā":{"ha":833,"x_min":69,"x_max":764,"o":"m 589 367 l 525 550 q 470 708 496 633 q 419 869 444 783 l 414 869 q 363 708 389 783 q 308 550 338 633 l 243 367 l 589 367 m 603 328 l 229 328 l 114 0 l 69 0 l 397 917 l 436 917 l 764 0 l 717 0 l 603 328 m 264 1061 l 569 1061 l 569 1022 l 264 1022 l 264 1061 z "},"Ă":{"ha":833,"x_min":69,"x_max":764,"o":"m 589 367 l 525 550 q 470 708 496 633 q 419 869 444 783 l 414 869 q 363 708 389 783 q 308 550 338 633 l 243 367 l 589 367 m 603 328 l 229 328 l 114 0 l 69 0 l 397 917 l 436 917 l 764 0 l 717 0 l 603 328 m 417 989 q 350 1003 378 989 q 303 1038 322 1017 q 274 1083 285 1058 q 261 1131 264 1108 l 297 1131 q 308 1092 300 1111 q 331 1059 317 1074 q 367 1035 346 1044 q 417 1025 389 1025 q 465 1035 444 1025 q 501 1059 486 1044 q 524 1092 515 1074 q 536 1131 533 1111 l 572 1131 q 559 1083 569 1108 q 530 1038 549 1058 q 483 1003 511 1017 q 417 989 456 989 z "},"Å":{"ha":833,"x_min":69,"x_max":764,"o":"m 589 367 l 525 550 q 470 708 496 633 q 419 869 444 783 l 414 869 q 363 708 389 783 q 308 550 338 633 l 243 367 l 589 367 m 603 328 l 229 328 l 114 0 l 69 0 l 397 917 l 436 917 l 764 0 l 717 0 l 603 328 m 417 972 q 340 1003 371 972 q 308 1083 308 1033 q 340 1164 308 1133 q 417 1194 371 1194 q 493 1164 461 1194 q 525 1083 525 1133 q 493 1003 525 1033 q 417 972 461 972 m 417 1003 q 467 1023 446 1003 q 489 1083 489 1043 q 467 1142 489 1121 q 417 1164 446 1164 q 363 1142 385 1164 q 342 1083 342 1121 q 363 1023 342 1043 q 417 1003 385 1003 z "},"Ǎ":{"ha":833,"x_min":69,"x_max":764,"o":"m 589 367 l 525 550 q 470 708 496 633 q 419 869 444 783 l 414 869 q 363 708 389 783 q 308 550 338 633 l 243 367 l 589 367 m 603 328 l 229 328 l 114 0 l 69 0 l 397 917 l 436 917 l 764 0 l 717 0 l 603 328 m 569 1131 l 436 986 l 397 986 l 264 1131 l 306 1131 l 414 1028 l 419 1028 l 528 1131 l 569 1131 z "},"Ạ":{"ha":833,"x_min":69,"x_max":764,"o":"m 589 367 l 525 550 q 470 708 496 633 q 419 869 444 783 l 414 869 q 363 708 389 783 q 308 550 338 633 l 243 367 l 589 367 m 603 328 l 229 328 l 114 0 l 69 0 l 397 917 l 436 917 l 764 0 l 717 0 l 603 328 m 417 -283 q 377 -268 393 -283 q 361 -225 361 -253 q 377 -182 361 -197 q 417 -167 393 -167 q 456 -182 440 -167 q 472 -225 472 -197 q 456 -268 472 -253 q 417 -283 440 -283 z "},"Ả":{"ha":833,"x_min":69,"x_max":764,"o":"m 589 367 l 525 550 q 470 708 496 633 q 419 869 444 783 l 414 869 q 363 708 389 783 q 308 550 338 633 l 243 367 l 589 367 m 603 328 l 229 328 l 114 0 l 69 0 l 397 917 l 436 917 l 764 0 l 717 0 l 603 328 m 375 1008 q 441 1039 415 1021 q 467 1089 467 1057 q 435 1139 467 1122 q 347 1158 404 1156 l 350 1194 q 409 1188 381 1193 q 460 1169 438 1182 q 495 1139 482 1157 q 508 1094 508 1121 q 498 1049 508 1068 q 470 1017 488 1031 q 431 994 453 1004 q 386 978 408 985 l 375 1008 z "},"Ấ":{"ha":833,"x_min":69,"x_max":764,"o":"m 589 367 l 525 550 q 470 708 496 633 q 419 869 444 783 l 414 869 q 363 708 389 783 q 308 550 338 633 l 243 367 l 589 367 m 603 328 l 229 328 l 114 0 l 69 0 l 397 917 l 436 917 l 764 0 l 717 0 l 603 328 m 619 1214 l 672 1214 l 556 1069 l 519 1069 l 619 1214 m 397 1122 l 436 1122 l 561 986 l 519 986 l 419 1081 l 414 1081 l 314 986 l 272 986 l 397 1122 z "},"Ầ":{"ha":833,"x_min":69,"x_max":764,"o":"m 589 367 l 525 550 q 470 708 496 633 q 419 869 444 783 l 414 869 q 363 708 389 783 q 308 550 338 633 l 243 367 l 589 367 m 603 328 l 229 328 l 114 0 l 69 0 l 397 917 l 436 917 l 764 0 l 717 0 l 603 328 m 611 1069 l 575 1069 l 458 1214 l 511 1214 l 611 1069 m 397 1122 l 436 1122 l 561 986 l 519 986 l 419 1081 l 414 1081 l 314 986 l 272 986 l 397 1122 z "},"Ẩ":{"ha":833,"x_min":69,"x_max":764,"o":"m 589 367 l 525 550 q 470 708 496 633 q 419 869 444 783 l 414 869 q 363 708 389 783 q 308 550 338 633 l 243 367 l 589 367 m 603 328 l 229 328 l 114 0 l 69 0 l 397 917 l 436 917 l 764 0 l 717 0 l 603 328 m 538 1086 q 591 1108 569 1094 q 613 1147 613 1122 q 586 1193 613 1181 q 510 1208 560 1206 l 515 1244 q 567 1238 542 1243 q 612 1223 593 1233 q 642 1195 631 1213 q 654 1153 654 1178 q 644 1113 654 1129 q 620 1085 635 1097 q 588 1066 606 1074 q 551 1053 569 1058 l 538 1086 m 397 1122 l 436 1122 l 561 986 l 519 986 l 419 1081 l 414 1081 l 314 986 l 272 986 l 397 1122 z "},"Ẫ":{"ha":833,"x_min":69,"x_max":764,"o":"m 589 367 l 525 550 q 470 708 496 633 q 419 869 444 783 l 414 869 q 363 708 389 783 q 308 550 338 633 l 243 367 l 589 367 m 603 328 l 229 328 l 114 0 l 69 0 l 397 917 l 436 917 l 764 0 l 717 0 l 603 328 m 397 1122 l 436 1122 l 561 986 l 519 986 l 419 1081 l 414 1081 l 314 986 l 272 986 l 397 1122 m 253 1172 q 260 1206 254 1189 q 276 1238 265 1224 q 305 1263 288 1253 q 347 1272 322 1272 q 390 1263 372 1272 q 424 1240 408 1253 q 455 1218 440 1228 q 489 1208 469 1208 q 528 1224 513 1208 q 547 1272 543 1240 l 581 1272 q 574 1238 579 1256 q 557 1205 568 1219 q 528 1181 546 1190 q 486 1172 511 1172 q 443 1182 461 1172 q 409 1204 425 1192 q 378 1226 393 1217 q 344 1236 363 1236 q 306 1220 321 1236 q 286 1172 290 1204 l 253 1172 z "},"Ậ":{"ha":833,"x_min":69,"x_max":764,"o":"m 589 367 l 525 550 q 470 708 496 633 q 419 869 444 783 l 414 869 q 363 708 389 783 q 308 550 338 633 l 243 367 l 589 367 m 603 328 l 229 328 l 114 0 l 69 0 l 397 917 l 436 917 l 764 0 l 717 0 l 603 328 m 264 986 l 397 1131 l 436 1131 l 569 986 l 528 986 l 419 1089 l 414 1089 l 306 986 l 264 986 m 417 -283 q 377 -268 393 -283 q 361 -225 361 -253 q 377 -182 361 -197 q 417 -167 393 -167 q 456 -182 440 -167 q 472 -225 472 -197 q 456 -268 472 -253 q 417 -283 440 -283 z "},"Ắ":{"ha":833,"x_min":69,"x_max":764,"o":"m 589 367 l 525 550 q 470 708 496 633 q 419 869 444 783 l 414 869 q 363 708 389 783 q 308 550 338 633 l 243 367 l 589 367 m 603 328 l 229 328 l 114 0 l 69 0 l 397 917 l 436 917 l 764 0 l 717 0 l 603 328 m 483 1239 l 539 1239 l 408 1108 l 369 1108 l 483 1239 m 417 989 q 353 1002 381 989 q 306 1035 325 1015 q 277 1079 288 1056 q 264 1125 267 1103 l 300 1125 q 335 1056 308 1088 q 417 1025 363 1025 q 498 1056 471 1025 q 533 1125 525 1088 l 569 1125 q 556 1079 567 1103 q 526 1035 544 1056 q 480 1002 507 1015 q 417 989 453 989 z "},"Ằ":{"ha":833,"x_min":69,"x_max":764,"o":"m 589 367 l 525 550 q 470 708 496 633 q 419 869 444 783 l 414 869 q 363 708 389 783 q 308 550 338 633 l 243 367 l 589 367 m 603 328 l 229 328 l 114 0 l 69 0 l 397 917 l 436 917 l 764 0 l 717 0 l 603 328 m 464 1108 l 425 1108 l 294 1239 l 350 1239 l 464 1108 m 417 989 q 353 1002 381 989 q 306 1035 325 1015 q 277 1079 288 1056 q 264 1125 267 1103 l 300 1125 q 335 1056 308 1088 q 417 1025 363 1025 q 498 1056 471 1025 q 533 1125 525 1088 l 569 1125 q 556 1079 567 1103 q 526 1035 544 1056 q 480 1002 507 1015 q 417 989 453 989 z "},"Ẳ":{"ha":833,"x_min":69,"x_max":764,"o":"m 589 367 l 525 550 q 470 708 496 633 q 419 869 444 783 l 414 869 q 363 708 389 783 q 308 550 338 633 l 243 367 l 589 367 m 603 328 l 229 328 l 114 0 l 69 0 l 397 917 l 436 917 l 764 0 l 717 0 l 603 328 m 382 1139 q 435 1161 414 1147 q 457 1200 457 1175 q 431 1246 457 1233 q 354 1261 404 1258 l 360 1297 q 412 1291 386 1296 q 456 1276 438 1286 q 487 1248 475 1265 q 499 1206 499 1231 q 489 1166 499 1182 q 465 1138 479 1150 q 432 1119 450 1126 q 396 1106 414 1111 l 382 1139 m 417 989 q 353 1002 381 989 q 306 1035 325 1015 q 277 1079 288 1056 q 264 1125 267 1103 l 300 1125 q 335 1056 308 1088 q 417 1025 363 1025 q 498 1056 471 1025 q 533 1125 525 1088 l 569 1125 q 556 1079 567 1103 q 526 1035 544 1056 q 480 1002 507 1015 q 417 989 453 989 z "},"Ẵ":{"ha":833,"x_min":69,"x_max":764,"o":"m 589 367 l 525 550 q 470 708 496 633 q 419 869 444 783 l 414 869 q 363 708 389 783 q 308 550 338 633 l 243 367 l 589 367 m 603 328 l 229 328 l 114 0 l 69 0 l 397 917 l 436 917 l 764 0 l 717 0 l 603 328 m 417 989 q 353 1002 381 989 q 306 1035 325 1015 q 277 1079 288 1056 q 264 1125 267 1103 l 300 1125 q 335 1056 308 1088 q 417 1025 363 1025 q 498 1056 471 1025 q 533 1125 525 1088 l 569 1125 q 556 1079 567 1103 q 526 1035 544 1056 q 480 1002 507 1015 q 417 989 453 989 m 253 1169 q 260 1205 254 1186 q 276 1239 265 1224 q 305 1265 288 1254 q 347 1275 322 1275 q 390 1264 372 1275 q 424 1240 408 1253 q 455 1217 440 1228 q 489 1206 469 1206 q 528 1224 513 1206 q 547 1275 543 1243 l 581 1275 q 574 1240 579 1258 q 557 1206 568 1221 q 528 1180 546 1190 q 486 1169 511 1169 q 443 1181 461 1169 q 409 1204 425 1192 q 378 1228 393 1217 q 344 1239 363 1239 q 306 1220 321 1239 q 286 1169 290 1201 l 253 1169 z "},"Ặ":{"ha":833,"x_min":69,"x_max":764,"o":"m 589 367 l 525 550 q 470 708 496 633 q 419 869 444 783 l 414 869 q 363 708 389 783 q 308 550 338 633 l 243 367 l 589 367 m 603 328 l 229 328 l 114 0 l 69 0 l 397 917 l 436 917 l 764 0 l 717 0 l 603 328 m 417 989 q 350 1003 378 989 q 303 1038 322 1017 q 274 1083 285 1058 q 261 1131 264 1108 l 297 1131 q 308 1092 300 1111 q 331 1059 317 1074 q 367 1035 346 1044 q 417 1025 389 1025 q 465 1035 444 1025 q 501 1059 486 1044 q 524 1092 515 1074 q 536 1131 533 1111 l 572 1131 q 559 1083 569 1108 q 530 1038 549 1058 q 483 1003 511 1017 q 417 989 456 989 m 417 -283 q 377 -268 393 -283 q 361 -225 361 -253 q 377 -182 361 -197 q 417 -167 393 -167 q 456 -182 440 -167 q 472 -225 472 -197 q 456 -268 472 -253 q 417 -283 440 -283 z "},"Ą":{"ha":833,"x_min":69,"x_max":817,"o":"m 589 367 l 525 550 q 470 708 496 633 q 419 869 444 783 l 414 869 q 363 708 389 783 q 308 550 338 633 l 243 367 l 589 367 m 817 -250 q 778 -272 801 -262 q 733 -281 754 -281 q 655 -253 688 -281 q 622 -169 622 -226 q 652 -74 622 -119 q 719 0 682 -28 l 717 0 l 603 328 l 229 328 l 114 0 l 69 0 l 397 917 l 436 917 l 764 0 q 693 -77 722 -32 q 664 -167 664 -122 q 686 -223 664 -204 q 736 -242 708 -242 q 769 -237 756 -242 q 797 -222 782 -233 l 817 -250 z "},"Æ":{"ha":833,"x_min":0,"x_max":817,"o":"m 447 353 l 447 875 l 442 875 q 369 713 406 793 q 294 547 332 633 l 207 353 l 447 353 m 817 39 l 817 0 l 447 0 l 447 314 l 190 314 l 50 0 l 0 0 l 419 917 l 803 917 l 803 878 l 492 878 l 492 508 l 728 508 l 728 469 l 492 469 l 492 39 l 817 39 z "},"Ƀ":{"ha":833,"x_min":58,"x_max":761,"o":"m 406 39 q 535 52 478 39 q 633 93 593 65 q 695 163 674 121 q 717 264 717 206 q 635 419 717 368 q 406 469 554 469 l 211 469 l 211 286 l 450 286 l 450 247 l 211 247 l 211 39 l 406 39 m 211 508 l 378 508 q 593 556 528 508 q 658 700 658 604 q 590 836 658 794 q 386 878 521 878 l 211 878 l 211 508 m 539 489 q 701 418 642 474 q 761 267 761 363 q 670 67 761 135 q 422 0 579 0 l 167 0 l 167 247 l 58 247 l 58 281 l 167 286 l 167 917 l 406 917 q 624 862 544 917 q 703 694 703 807 q 662 568 703 621 q 539 494 621 515 l 539 489 z "},"Ç":{"ha":833,"x_min":103,"x_max":751,"o":"m 103 461 q 131 657 103 569 q 209 806 158 744 q 331 900 260 867 q 490 933 403 933 q 628 900 569 933 q 724 825 688 867 l 696 794 q 607 865 658 839 q 490 892 556 892 q 348 862 411 892 q 241 776 285 832 q 174 640 197 719 q 150 461 150 560 q 174 282 150 363 q 240 144 197 201 q 345 56 283 88 q 485 25 407 25 q 615 54 558 25 q 724 142 671 83 l 751 114 q 635 18 699 53 q 482 -17 572 -17 q 328 17 397 -17 q 208 114 258 51 q 131 265 158 176 q 103 461 103 353 m 464 3 l 503 3 l 461 -78 q 519 -110 494 -89 q 544 -172 544 -131 q 531 -218 544 -199 q 494 -251 517 -237 q 441 -274 471 -265 q 381 -286 411 -282 l 372 -250 q 467 -224 431 -242 q 503 -178 503 -207 q 476 -129 503 -144 q 408 -103 449 -114 l 464 3 z "},"Ć":{"ha":833,"x_min":103,"x_max":751,"o":"m 103 461 q 131 657 103 569 q 209 806 158 744 q 331 900 260 867 q 490 933 403 933 q 628 900 569 933 q 724 825 688 867 l 696 794 q 607 865 658 839 q 490 892 556 892 q 348 862 411 892 q 241 776 285 832 q 174 640 197 719 q 150 461 150 560 q 174 282 150 363 q 240 144 197 201 q 345 56 283 88 q 485 25 407 25 q 615 54 558 25 q 724 142 671 83 l 751 114 q 635 18 699 53 q 482 -17 572 -17 q 328 17 397 -17 q 208 114 258 51 q 131 265 158 176 q 103 461 103 353 m 472 986 l 431 986 l 561 1131 l 622 1131 l 472 986 z "},"Ĉ":{"ha":833,"x_min":103,"x_max":751,"o":"m 103 461 q 131 657 103 569 q 209 806 158 744 q 331 900 260 867 q 490 933 403 933 q 628 900 569 933 q 724 825 688 867 l 696 794 q 607 865 658 839 q 490 892 556 892 q 348 862 411 892 q 241 776 285 832 q 174 640 197 719 q 150 461 150 560 q 174 282 150 363 q 240 144 197 201 q 345 56 283 88 q 485 25 407 25 q 615 54 558 25 q 724 142 671 83 l 751 114 q 635 18 699 53 q 482 -17 572 -17 q 328 17 397 -17 q 208 114 258 51 q 131 265 158 176 q 103 461 103 353 m 322 986 l 456 1131 l 494 1131 l 628 986 l 586 986 l 478 1089 l 472 1089 l 364 986 l 322 986 z "},"Č":{"ha":833,"x_min":103,"x_max":751,"o":"m 103 461 q 131 657 103 569 q 209 806 158 744 q 331 900 260 867 q 490 933 403 933 q 628 900 569 933 q 724 825 688 867 l 696 794 q 607 865 658 839 q 490 892 556 892 q 348 862 411 892 q 241 776 285 832 q 174 640 197 719 q 150 461 150 560 q 174 282 150 363 q 240 144 197 201 q 345 56 283 88 q 485 25 407 25 q 615 54 558 25 q 724 142 671 83 l 751 114 q 635 18 699 53 q 482 -17 572 -17 q 328 17 397 -17 q 208 114 258 51 q 131 265 158 176 q 103 461 103 353 m 628 1131 l 494 986 l 456 986 l 322 1131 l 364 1131 l 472 1028 l 478 1028 l 586 1131 l 628 1131 z "},"Ċ":{"ha":833,"x_min":103,"x_max":751,"o":"m 103 461 q 131 657 103 569 q 209 806 158 744 q 331 900 260 867 q 490 933 403 933 q 628 900 569 933 q 724 825 688 867 l 696 794 q 607 865 658 839 q 490 892 556 892 q 348 862 411 892 q 241 776 285 832 q 174 640 197 719 q 150 461 150 560 q 174 282 150 363 q 240 144 197 201 q 345 56 283 88 q 485 25 407 25 q 615 54 558 25 q 724 142 671 83 l 751 114 q 635 18 699 53 q 482 -17 572 -17 q 328 17 397 -17 q 208 114 258 51 q 131 265 158 176 q 103 461 103 353 m 475 1006 q 442 1019 456 1006 q 428 1056 428 1032 q 442 1090 428 1076 q 475 1103 456 1103 q 508 1090 494 1103 q 522 1056 522 1076 q 508 1019 522 1032 q 475 1006 494 1006 z "},"Ď":{"ha":833,"x_min":139,"x_max":756,"o":"m 139 917 l 344 917 q 528 884 450 917 q 656 791 606 851 q 731 647 707 731 q 756 461 756 563 q 731 274 756 358 q 656 128 707 189 q 528 34 606 68 q 344 0 450 0 l 139 0 l 139 917 m 339 39 q 506 71 436 39 q 622 159 576 103 q 688 293 667 215 q 708 461 708 371 q 688 628 708 551 q 622 760 667 704 q 506 847 576 815 q 339 878 436 878 l 183 878 l 183 39 l 339 39 m 569 1131 l 436 986 l 397 986 l 264 1131 l 306 1131 l 414 1028 l 419 1028 l 528 1131 l 569 1131 z "},"Ḍ":{"ha":833,"x_min":139,"x_max":756,"o":"m 139 917 l 344 917 q 528 884 450 917 q 656 791 606 851 q 731 647 707 731 q 756 461 756 563 q 731 274 756 358 q 656 128 707 189 q 528 34 606 68 q 344 0 450 0 l 139 0 l 139 917 m 339 39 q 506 71 436 39 q 622 159 576 103 q 688 293 667 215 q 708 461 708 371 q 688 628 708 551 q 622 760 667 704 q 506 847 576 815 q 339 878 436 878 l 183 878 l 183 39 l 339 39 m 404 -283 q 365 -268 381 -283 q 349 -225 349 -253 q 365 -182 349 -197 q 404 -167 381 -167 q 444 -182 428 -167 q 460 -225 460 -197 q 444 -268 460 -253 q 404 -283 428 -283 z "},"Ḏ":{"ha":833,"x_min":139,"x_max":756,"o":"m 139 917 l 344 917 q 528 884 450 917 q 656 791 606 851 q 731 647 707 731 q 756 461 756 563 q 731 274 756 358 q 656 128 707 189 q 528 34 606 68 q 344 0 450 0 l 139 0 l 139 917 m 339 39 q 506 71 436 39 q 622 159 576 103 q 688 293 667 215 q 708 461 708 371 q 688 628 708 551 q 622 760 667 704 q 506 847 576 815 q 339 878 436 878 l 183 878 l 183 39 l 339 39 m 557 -217 l 249 -217 l 249 -178 l 557 -178 l 557 -217 z "},"Đ":{"ha":833,"x_min":39,"x_max":764,"o":"m 147 467 l 39 467 l 39 500 l 147 506 l 147 917 l 353 917 q 536 884 458 917 q 665 791 614 851 q 740 647 715 731 q 764 461 764 563 q 740 274 764 358 q 665 128 715 189 q 536 34 614 68 q 353 0 458 0 l 147 0 l 147 467 m 347 39 q 515 71 444 39 q 630 159 585 103 q 696 293 675 215 q 717 461 717 371 q 696 628 717 551 q 630 760 675 704 q 515 847 585 815 q 347 878 444 878 l 192 878 l 192 506 l 431 506 l 431 467 l 192 467 l 192 39 l 347 39 z "},"È":{"ha":833,"x_min":183,"x_max":731,"o":"m 183 917 l 717 917 l 717 878 l 228 878 l 228 508 l 639 508 l 639 469 l 228 469 l 228 39 l 731 39 l 731 0 l 183 0 l 183 917 m 322 1131 l 383 1131 l 514 986 l 472 986 l 322 1131 z "},"É":{"ha":833,"x_min":183,"x_max":731,"o":"m 183 917 l 717 917 l 717 878 l 228 878 l 228 508 l 639 508 l 639 469 l 228 469 l 228 39 l 731 39 l 731 0 l 183 0 l 183 917 m 467 986 l 425 986 l 556 1131 l 617 1131 l 467 986 z "},"Ê":{"ha":833,"x_min":183,"x_max":731,"o":"m 183 917 l 717 917 l 717 878 l 228 878 l 228 508 l 639 508 l 639 469 l 228 469 l 228 39 l 731 39 l 731 0 l 183 0 l 183 917 m 317 986 l 450 1131 l 489 1131 l 622 986 l 581 986 l 472 1089 l 467 1089 l 358 986 l 317 986 z "},"Ě":{"ha":833,"x_min":183,"x_max":731,"o":"m 183 917 l 717 917 l 717 878 l 228 878 l 228 508 l 639 508 l 639 469 l 228 469 l 228 39 l 731 39 l 731 0 l 183 0 l 183 917 m 622 1131 l 489 986 l 450 986 l 317 1131 l 358 1131 l 467 1028 l 472 1028 l 581 1131 l 622 1131 z "},"Ë":{"ha":833,"x_min":183,"x_max":731,"o":"m 183 917 l 717 917 l 717 878 l 228 878 l 228 508 l 639 508 l 639 469 l 228 469 l 228 39 l 731 39 l 731 0 l 183 0 l 183 917 m 364 1011 q 332 1023 344 1011 q 319 1056 319 1035 q 332 1088 319 1076 q 364 1100 344 1100 q 396 1088 383 1100 q 408 1056 408 1076 q 396 1023 408 1035 q 364 1011 383 1011 m 575 1011 q 543 1023 556 1011 q 531 1056 531 1035 q 543 1088 531 1076 q 575 1100 556 1100 q 607 1088 594 1100 q 619 1056 619 1076 q 607 1023 619 1035 q 575 1011 594 1011 z "},"Ē":{"ha":833,"x_min":183,"x_max":731,"o":"m 183 917 l 717 917 l 717 878 l 228 878 l 228 508 l 639 508 l 639 469 l 228 469 l 228 39 l 731 39 l 731 0 l 183 0 l 183 917 m 317 1061 l 622 1061 l 622 1022 l 317 1022 l 317 1061 z "},"Ĕ":{"ha":833,"x_min":183,"x_max":731,"o":"m 183 917 l 717 917 l 717 878 l 228 878 l 228 508 l 639 508 l 639 469 l 228 469 l 228 39 l 731 39 l 731 0 l 183 0 l 183 917 m 469 989 q 403 1003 431 989 q 356 1038 375 1017 q 327 1083 338 1058 q 314 1131 317 1108 l 350 1131 q 361 1092 353 1111 q 384 1059 369 1074 q 420 1035 399 1044 q 469 1025 442 1025 q 518 1035 497 1025 q 553 1059 539 1044 q 577 1092 568 1074 q 589 1131 586 1111 l 625 1131 q 612 1083 622 1108 q 583 1038 601 1058 q 536 1003 564 1017 q 469 989 508 989 z "},"Ė":{"ha":833,"x_min":183,"x_max":731,"o":"m 183 917 l 717 917 l 717 878 l 228 878 l 228 508 l 639 508 l 639 469 l 228 469 l 228 39 l 731 39 l 731 0 l 183 0 l 183 917 m 469 1006 q 436 1019 450 1006 q 422 1056 422 1032 q 436 1090 422 1076 q 469 1103 450 1103 q 503 1090 489 1103 q 517 1056 517 1076 q 503 1019 517 1032 q 469 1006 489 1006 z "},"Ẹ":{"ha":833,"x_min":183,"x_max":731,"o":"m 183 917 l 717 917 l 717 878 l 228 878 l 228 508 l 639 508 l 639 469 l 228 469 l 228 39 l 731 39 l 731 0 l 183 0 l 183 917 m 475 -283 q 435 -268 451 -283 q 419 -225 419 -253 q 435 -182 419 -197 q 475 -167 451 -167 q 515 -182 499 -167 q 531 -225 531 -197 q 515 -268 531 -253 q 475 -283 499 -283 z "},"Ẻ":{"ha":833,"x_min":183,"x_max":731,"o":"m 183 917 l 717 917 l 717 878 l 228 878 l 228 508 l 639 508 l 639 469 l 228 469 l 228 39 l 731 39 l 731 0 l 183 0 l 183 917 m 428 1008 q 494 1039 468 1021 q 519 1089 519 1057 q 488 1139 519 1122 q 400 1158 457 1156 l 403 1194 q 462 1188 433 1193 q 513 1169 490 1182 q 548 1139 535 1157 q 561 1094 561 1121 q 551 1049 561 1068 q 523 1017 540 1031 q 483 994 506 1004 q 439 978 461 985 l 428 1008 z "},"Ẽ":{"ha":833,"x_min":183,"x_max":731,"o":"m 183 917 l 717 917 l 717 878 l 228 878 l 228 508 l 639 508 l 639 469 l 228 469 l 228 39 l 731 39 l 731 0 l 183 0 l 183 917 m 550 997 q 502 1010 522 997 q 463 1038 482 1022 q 426 1065 444 1053 q 386 1078 408 1078 q 347 1056 363 1078 q 328 997 332 1033 l 297 997 q 304 1038 299 1017 q 321 1077 310 1060 q 349 1106 332 1094 q 389 1117 365 1117 q 436 1104 415 1117 q 476 1076 457 1092 q 513 1049 494 1061 q 553 1036 531 1036 q 592 1058 576 1036 q 611 1117 607 1081 l 642 1117 q 635 1076 640 1097 q 618 1037 629 1054 q 590 1008 607 1019 q 550 997 572 997 z "},"Ế":{"ha":833,"x_min":183,"x_max":731,"o":"m 183 917 l 717 917 l 717 878 l 228 878 l 228 508 l 639 508 l 639 469 l 228 469 l 228 39 l 731 39 l 731 0 l 183 0 l 183 917 m 672 1214 l 725 1214 l 608 1069 l 572 1069 l 672 1214 m 450 1122 l 489 1122 l 614 986 l 572 986 l 472 1081 l 467 1081 l 367 986 l 325 986 l 450 1122 z "},"Ề":{"ha":833,"x_min":183,"x_max":731,"o":"m 183 917 l 717 917 l 717 878 l 228 878 l 228 508 l 639 508 l 639 469 l 228 469 l 228 39 l 731 39 l 731 0 l 183 0 l 183 917 m 664 1069 l 628 1069 l 511 1214 l 564 1214 l 664 1069 m 450 1122 l 489 1122 l 614 986 l 572 986 l 472 1081 l 467 1081 l 367 986 l 325 986 l 450 1122 z "},"Ể":{"ha":833,"x_min":183,"x_max":731,"o":"m 183 917 l 717 917 l 717 878 l 228 878 l 228 508 l 639 508 l 639 469 l 228 469 l 228 39 l 731 39 l 731 0 l 183 0 l 183 917 m 590 1086 q 644 1108 622 1094 q 665 1147 665 1122 q 639 1193 665 1181 q 563 1208 613 1206 l 568 1244 q 620 1238 594 1243 q 665 1223 646 1233 q 695 1195 683 1213 q 707 1153 707 1178 q 697 1113 707 1129 q 673 1085 688 1097 q 640 1066 658 1074 q 604 1053 622 1058 l 590 1086 m 450 1122 l 489 1122 l 614 986 l 572 986 l 472 1081 l 467 1081 l 367 986 l 325 986 l 450 1122 z "},"Ễ":{"ha":833,"x_min":183,"x_max":731,"o":"m 183 917 l 717 917 l 717 878 l 228 878 l 228 508 l 639 508 l 639 469 l 228 469 l 228 39 l 731 39 l 731 0 l 183 0 l 183 917 m 450 1122 l 489 1122 l 614 986 l 572 986 l 472 1081 l 467 1081 l 367 986 l 325 986 l 450 1122 m 306 1172 q 313 1206 307 1189 q 329 1238 318 1224 q 358 1263 340 1253 q 400 1272 375 1272 q 443 1263 425 1272 q 477 1240 461 1253 q 508 1218 493 1228 q 542 1208 522 1208 q 581 1224 565 1208 q 600 1272 596 1240 l 633 1272 q 626 1238 632 1256 q 610 1205 621 1219 q 581 1181 599 1190 q 539 1172 564 1172 q 496 1182 514 1172 q 462 1204 478 1192 q 431 1226 446 1217 q 397 1236 415 1236 q 358 1220 374 1236 q 339 1172 343 1204 l 306 1172 z "},"Ệ":{"ha":833,"x_min":183,"x_max":731,"o":"m 183 917 l 717 917 l 717 878 l 228 878 l 228 508 l 639 508 l 639 469 l 228 469 l 228 39 l 731 39 l 731 0 l 183 0 l 183 917 m 317 986 l 450 1131 l 489 1131 l 622 986 l 581 986 l 472 1089 l 467 1089 l 358 986 l 317 986 m 475 -283 q 435 -268 451 -283 q 419 -225 419 -253 q 435 -182 419 -197 q 475 -167 451 -167 q 515 -182 499 -167 q 531 -225 531 -197 q 515 -268 531 -253 q 475 -283 499 -283 z "},"Ę":{"ha":833,"x_min":183,"x_max":747,"o":"m 183 917 l 717 917 l 717 878 l 228 878 l 228 508 l 639 508 l 639 469 l 228 469 l 228 39 l 731 39 l 731 0 l 728 0 q 681 -20 704 -6 q 638 -57 657 -35 q 606 -108 618 -79 q 594 -167 594 -136 q 617 -223 594 -204 q 667 -242 639 -242 q 699 -237 686 -242 q 728 -222 713 -233 l 747 -250 q 708 -272 732 -262 q 664 -281 685 -281 q 585 -253 618 -281 q 553 -169 553 -226 q 582 -72 553 -117 q 653 0 611 -28 l 183 0 l 183 917 z "},"Ĝ":{"ha":833,"x_min":85,"x_max":725,"o":"m 85 461 q 113 657 85 569 q 192 806 140 744 q 315 900 243 867 q 476 933 388 933 q 558 924 521 933 q 624 898 594 914 q 676 863 653 882 q 717 825 699 843 l 689 794 q 602 863 653 835 q 476 892 551 892 q 332 862 396 892 q 224 776 268 832 q 156 640 179 719 q 132 461 132 560 q 155 282 132 363 q 221 144 178 201 q 326 56 264 88 q 465 25 388 25 q 588 44 532 25 q 679 100 644 64 l 679 403 l 457 403 l 457 442 l 725 442 l 725 86 q 617 12 683 40 q 463 -17 551 -17 q 307 17 376 -17 q 188 114 238 51 q 112 265 139 176 q 85 461 85 353 m 308 986 l 442 1131 l 481 1131 l 614 986 l 572 986 l 464 1089 l 458 1089 l 350 986 l 308 986 z "},"Ğ":{"ha":833,"x_min":85,"x_max":725,"o":"m 85 461 q 113 657 85 569 q 192 806 140 744 q 315 900 243 867 q 476 933 388 933 q 558 924 521 933 q 624 898 594 914 q 676 863 653 882 q 717 825 699 843 l 689 794 q 602 863 653 835 q 476 892 551 892 q 332 862 396 892 q 224 776 268 832 q 156 640 179 719 q 132 461 132 560 q 155 282 132 363 q 221 144 178 201 q 326 56 264 88 q 465 25 388 25 q 588 44 532 25 q 679 100 644 64 l 679 403 l 457 403 l 457 442 l 725 442 l 725 86 q 617 12 683 40 q 463 -17 551 -17 q 307 17 376 -17 q 188 114 238 51 q 112 265 139 176 q 85 461 85 353 m 461 989 q 394 1003 422 989 q 348 1038 367 1017 q 319 1083 329 1058 q 306 1131 308 1108 l 342 1131 q 353 1092 344 1111 q 376 1059 361 1074 q 412 1035 390 1044 q 461 1025 433 1025 q 510 1035 489 1025 q 545 1059 531 1044 q 569 1092 560 1074 q 581 1131 578 1111 l 617 1131 q 603 1083 614 1108 q 574 1038 593 1058 q 528 1003 556 1017 q 461 989 500 989 z "},"Ġ":{"ha":833,"x_min":85,"x_max":725,"o":"m 85 461 q 113 657 85 569 q 192 806 140 744 q 315 900 243 867 q 476 933 388 933 q 558 924 521 933 q 624 898 594 914 q 676 863 653 882 q 717 825 699 843 l 689 794 q 602 863 653 835 q 476 892 551 892 q 332 862 396 892 q 224 776 268 832 q 156 640 179 719 q 132 461 132 560 q 155 282 132 363 q 221 144 178 201 q 326 56 264 88 q 465 25 388 25 q 588 44 532 25 q 679 100 644 64 l 679 403 l 457 403 l 457 442 l 725 442 l 725 86 q 617 12 683 40 q 463 -17 551 -17 q 307 17 376 -17 q 188 114 238 51 q 112 265 139 176 q 85 461 85 353 m 461 1006 q 428 1019 442 1006 q 414 1056 414 1032 q 428 1090 414 1076 q 461 1103 442 1103 q 494 1090 481 1103 q 508 1056 508 1076 q 494 1019 508 1032 q 461 1006 481 1006 z "},"Ģ":{"ha":833,"x_min":85,"x_max":725,"o":"m 85 461 q 113 657 85 569 q 192 806 140 744 q 315 900 243 867 q 476 933 388 933 q 558 924 521 933 q 624 898 594 914 q 676 863 653 882 q 717 825 699 843 l 689 794 q 602 863 653 835 q 476 892 551 892 q 332 862 396 892 q 224 776 268 832 q 156 640 179 719 q 132 461 132 560 q 155 282 132 363 q 221 144 178 201 q 326 56 264 88 q 465 25 388 25 q 588 44 532 25 q 679 100 644 64 l 679 403 l 457 403 l 457 442 l 725 442 l 725 86 q 617 12 683 40 q 463 -17 551 -17 q 307 17 376 -17 q 188 114 238 51 q 112 265 139 176 q 85 461 85 353 m 433 -72 q 514 -108 486 -85 q 542 -172 542 -131 q 528 -218 542 -199 q 491 -251 514 -237 q 438 -274 468 -265 q 378 -286 408 -282 l 369 -250 q 464 -224 428 -242 q 500 -178 500 -207 q 474 -130 500 -144 q 419 -108 449 -115 l 433 -72 l 433 -72 z "},"Ǧ":{"ha":833,"x_min":85,"x_max":725,"o":"m 85 461 q 113 657 85 569 q 192 806 140 744 q 315 900 243 867 q 476 933 388 933 q 558 924 521 933 q 624 898 594 914 q 676 863 653 882 q 717 825 699 843 l 689 794 q 602 863 653 835 q 476 892 551 892 q 332 862 396 892 q 224 776 268 832 q 156 640 179 719 q 132 461 132 560 q 155 282 132 363 q 221 144 178 201 q 326 56 264 88 q 465 25 388 25 q 588 44 532 25 q 679 100 644 64 l 679 403 l 457 403 l 457 442 l 725 442 l 725 86 q 617 12 683 40 q 463 -17 551 -17 q 307 17 376 -17 q 188 114 238 51 q 112 265 139 176 q 85 461 85 353 m 614 1131 l 481 986 l 442 986 l 308 1131 l 350 1131 l 458 1028 l 464 1028 l 572 1131 l 614 1131 z "},"Ḡ":{"ha":833,"x_min":85,"x_max":725,"o":"m 85 461 q 113 657 85 569 q 192 806 140 744 q 315 900 243 867 q 476 933 388 933 q 558 924 521 933 q 624 898 594 914 q 676 863 653 882 q 717 825 699 843 l 689 794 q 602 863 653 835 q 476 892 551 892 q 332 862 396 892 q 224 776 268 832 q 156 640 179 719 q 132 461 132 560 q 155 282 132 363 q 221 144 178 201 q 326 56 264 88 q 465 25 388 25 q 588 44 532 25 q 679 100 644 64 l 679 403 l 457 403 l 457 442 l 725 442 l 725 86 q 617 12 683 40 q 463 -17 551 -17 q 307 17 376 -17 q 188 114 238 51 q 112 265 139 176 q 85 461 85 353 m 308 1061 l 614 1061 l 614 1022 l 308 1022 l 308 1061 z "},"Ĥ":{"ha":833,"x_min":128,"x_max":706,"o":"m 128 917 l 172 917 l 172 508 l 661 508 l 661 917 l 706 917 l 706 0 l 661 0 l 661 469 l 172 469 l 172 0 l 128 0 l 128 917 m 264 986 l 397 1131 l 436 1131 l 569 986 l 528 986 l 419 1089 l 414 1089 l 306 986 l 264 986 z "},"Ḥ":{"ha":833,"x_min":128,"x_max":706,"o":"m 128 917 l 172 917 l 172 508 l 661 508 l 661 917 l 706 917 l 706 0 l 661 0 l 661 469 l 172 469 l 172 0 l 128 0 l 128 917 m 417 -283 q 377 -268 393 -283 q 361 -225 361 -253 q 377 -182 361 -197 q 417 -167 393 -167 q 456 -182 440 -167 q 472 -225 472 -197 q 456 -268 472 -253 q 417 -283 440 -283 z "},"Ḫ":{"ha":833,"x_min":128,"x_max":706,"o":"m 128 917 l 172 917 l 172 508 l 661 508 l 661 917 l 706 917 l 706 0 l 661 0 l 661 469 l 172 469 l 172 0 l 128 0 l 128 917 m 417 -281 q 346 -265 375 -281 q 298 -225 317 -249 q 269 -173 279 -201 q 256 -119 258 -144 l 292 -119 q 303 -165 294 -143 q 328 -205 313 -187 q 365 -233 343 -222 q 417 -244 388 -244 q 468 -233 446 -244 q 506 -205 490 -222 q 530 -165 521 -187 q 542 -119 539 -143 l 578 -119 q 565 -173 575 -144 q 535 -225 554 -201 q 488 -265 517 -249 q 417 -281 458 -281 z "},"Ħ":{"ha":833,"x_min":22,"x_max":811,"o":"m 661 689 l 172 689 l 172 508 l 661 508 l 661 689 m 811 689 l 706 689 l 706 0 l 661 0 l 661 469 l 172 469 l 172 0 l 128 0 l 128 689 l 22 689 l 22 722 l 128 728 l 128 917 l 172 917 l 172 728 l 661 728 l 661 917 l 706 917 l 706 728 l 811 728 l 811 689 z "},"Ì":{"ha":833,"x_min":156,"x_max":678,"o":"m 156 39 l 394 39 l 394 878 l 156 878 l 156 917 l 678 917 l 678 878 l 439 878 l 439 39 l 678 39 l 678 0 l 156 0 l 156 39 m 269 1131 l 331 1131 l 461 986 l 419 986 l 269 1131 z "},"Í":{"ha":833,"x_min":156,"x_max":678,"o":"m 156 39 l 394 39 l 394 878 l 156 878 l 156 917 l 678 917 l 678 878 l 439 878 l 439 39 l 678 39 l 678 0 l 156 0 l 156 39 m 414 986 l 372 986 l 503 1131 l 564 1131 l 414 986 z "},"Î":{"ha":833,"x_min":156,"x_max":678,"o":"m 156 39 l 394 39 l 394 878 l 156 878 l 156 917 l 678 917 l 678 878 l 439 878 l 439 39 l 678 39 l 678 0 l 156 0 l 156 39 m 264 986 l 397 1131 l 436 1131 l 569 986 l 528 986 l 419 1089 l 414 1089 l 306 986 l 264 986 z "},"Ĩ":{"ha":833,"x_min":156,"x_max":678,"o":"m 156 39 l 394 39 l 394 878 l 156 878 l 156 917 l 678 917 l 678 878 l 439 878 l 439 39 l 678 39 l 678 0 l 156 0 l 156 39 m 497 997 q 449 1010 469 997 q 410 1038 429 1022 q 374 1065 392 1053 q 333 1078 356 1078 q 294 1056 310 1078 q 275 997 279 1033 l 244 997 q 251 1038 246 1017 q 268 1077 257 1060 q 296 1106 279 1094 q 336 1117 313 1117 q 383 1104 363 1117 q 423 1076 404 1092 q 460 1049 442 1061 q 500 1036 478 1036 q 539 1058 524 1036 q 558 1117 554 1081 l 589 1117 q 582 1076 588 1097 q 565 1037 576 1054 q 537 1008 554 1019 q 497 997 519 997 z "},"Ï":{"ha":833,"x_min":156,"x_max":678,"o":"m 156 39 l 394 39 l 394 878 l 156 878 l 156 917 l 678 917 l 678 878 l 439 878 l 439 39 l 678 39 l 678 0 l 156 0 l 156 39 m 311 1011 q 279 1023 292 1011 q 267 1056 267 1035 q 279 1088 267 1076 q 311 1100 292 1100 q 343 1088 331 1100 q 356 1056 356 1076 q 343 1023 356 1035 q 311 1011 331 1011 m 522 1011 q 490 1023 503 1011 q 478 1056 478 1035 q 490 1088 478 1076 q 522 1100 503 1100 q 554 1088 542 1100 q 567 1056 567 1076 q 554 1023 567 1035 q 522 1011 542 1011 z "},"Ī":{"ha":833,"x_min":156,"x_max":678,"o":"m 156 39 l 394 39 l 394 878 l 156 878 l 156 917 l 678 917 l 678 878 l 439 878 l 439 39 l 678 39 l 678 0 l 156 0 l 156 39 m 264 1061 l 569 1061 l 569 1022 l 264 1022 l 264 1061 z "},"Ĭ":{"ha":833,"x_min":156,"x_max":678,"o":"m 156 39 l 394 39 l 394 878 l 156 878 l 156 917 l 678 917 l 678 878 l 439 878 l 439 39 l 678 39 l 678 0 l 156 0 l 156 39 m 417 989 q 350 1003 378 989 q 303 1038 322 1017 q 274 1083 285 1058 q 261 1131 264 1108 l 297 1131 q 308 1092 300 1111 q 331 1059 317 1074 q 367 1035 346 1044 q 417 1025 389 1025 q 465 1035 444 1025 q 501 1059 486 1044 q 524 1092 515 1074 q 536 1131 533 1111 l 572 1131 q 559 1083 569 1108 q 530 1038 549 1058 q 483 1003 511 1017 q 417 989 456 989 z "},"İ":{"ha":833,"x_min":156,"x_max":678,"o":"m 156 39 l 394 39 l 394 878 l 156 878 l 156 917 l 678 917 l 678 878 l 439 878 l 439 39 l 678 39 l 678 0 l 156 0 l 156 39 m 417 1006 q 383 1019 397 1006 q 369 1056 369 1032 q 383 1090 369 1076 q 417 1103 397 1103 q 450 1090 436 1103 q 464 1056 464 1076 q 450 1019 464 1032 q 417 1006 436 1006 z "},"Ǐ":{"ha":833,"x_min":156,"x_max":678,"o":"m 156 39 l 394 39 l 394 878 l 156 878 l 156 917 l 678 917 l 678 878 l 439 878 l 439 39 l 678 39 l 678 0 l 156 0 l 156 39 m 569 1131 l 436 986 l 397 986 l 264 1131 l 306 1131 l 414 1028 l 419 1028 l 528 1131 l 569 1131 z "},"Ỉ":{"ha":833,"x_min":156,"x_max":678,"o":"m 156 39 l 394 39 l 394 878 l 156 878 l 156 917 l 678 917 l 678 878 l 439 878 l 439 39 l 678 39 l 678 0 l 156 0 l 156 39 m 375 1008 q 441 1039 415 1021 q 467 1089 467 1057 q 435 1139 467 1122 q 347 1158 404 1156 l 350 1194 q 409 1188 381 1193 q 460 1169 438 1182 q 495 1139 482 1157 q 508 1094 508 1121 q 498 1049 508 1068 q 470 1017 488 1031 q 431 994 453 1004 q 386 978 408 985 l 375 1008 z "},"Ị":{"ha":833,"x_min":156,"x_max":678,"o":"m 156 39 l 394 39 l 394 878 l 156 878 l 156 917 l 678 917 l 678 878 l 439 878 l 439 39 l 678 39 l 678 0 l 156 0 l 156 39 m 418 -283 q 378 -268 394 -283 q 363 -225 363 -253 q 378 -182 363 -197 q 418 -167 394 -167 q 458 -182 442 -167 q 474 -225 474 -197 q 458 -268 474 -253 q 418 -283 442 -283 z "},"Į":{"ha":833,"x_min":156,"x_max":678,"o":"m 156 39 l 394 39 l 394 878 l 156 878 l 156 917 l 678 917 l 678 878 l 439 878 l 439 39 l 678 39 l 678 0 l 439 0 q 382 -80 406 -42 q 358 -167 358 -118 q 381 -223 358 -204 q 431 -242 403 -242 q 463 -237 450 -242 q 492 -222 476 -233 l 511 -250 q 472 -272 496 -262 q 428 -281 449 -281 q 349 -253 382 -281 q 317 -169 317 -226 q 340 -76 317 -115 q 400 0 364 -37 l 156 0 l 156 39 z "},"Ĵ":{"ha":833,"x_min":136,"x_max":660,"o":"m 178 160 q 273 56 218 89 q 388 24 328 24 q 562 88 508 24 q 615 283 615 153 l 615 881 l 211 881 l 211 918 l 660 918 l 660 279 q 646 164 660 218 q 600 69 632 110 q 516 6 568 29 q 386 -17 464 -17 q 240 22 307 -17 q 136 136 174 60 l 178 160 m 292 986 l 425 1131 l 464 1131 l 597 986 l 556 986 l 447 1089 l 442 1089 l 333 986 l 292 986 z "},"Ķ":{"ha":833,"x_min":169,"x_max":789,"o":"m 169 917 l 214 917 l 214 389 l 217 389 l 694 917 l 749 917 l 449 581 l 789 0 l 736 0 l 415 547 l 214 325 l 214 0 l 169 0 l 169 917 m 451 -72 q 532 -108 504 -85 q 560 -172 560 -131 q 546 -218 560 -199 q 509 -251 532 -237 q 456 -274 486 -265 q 396 -286 426 -282 l 388 -250 q 482 -224 446 -242 q 518 -178 518 -207 q 492 -130 518 -144 q 438 -108 467 -115 l 451 -72 l 451 -72 z "},"Ĺ":{"ha":833,"x_min":215,"x_max":747,"o":"m 217 917 l 258 917 l 258 39 l 747 39 l 747 0 l 217 0 l 217 917 m 257 986 l 215 986 l 346 1131 l 407 1131 l 257 986 z "},"Ľ":{"ha":833,"x_min":217,"x_max":747,"o":"m 217 917 l 258 917 l 258 39 l 747 39 l 747 0 l 217 0 l 217 917 m 544 721 l 542 1004 l 583 1004 l 583 938 l 575 721 l 544 721 z "},"Ļ":{"ha":833,"x_min":217,"x_max":747,"o":"m 217 917 l 258 917 l 258 39 l 747 39 l 747 0 l 217 0 l 217 917 m 464 -72 q 544 -108 517 -85 q 572 -172 572 -131 q 558 -218 572 -199 q 522 -251 544 -237 q 469 -274 499 -265 q 408 -286 439 -282 l 400 -250 q 494 -224 458 -242 q 531 -178 531 -207 q 505 -130 531 -144 q 450 -108 479 -115 l 464 -72 l 464 -72 z "},"Ŀ":{"ha":833,"x_min":217,"x_max":747,"o":"m 217 917 l 258 917 l 258 39 l 747 39 l 747 0 l 217 0 l 217 917 m 572 418 q 533 433 549 418 q 517 476 517 449 q 533 519 517 504 q 572 535 549 535 q 612 519 596 535 q 628 476 628 504 q 612 433 628 449 q 572 418 596 418 z "},"Ḷ":{"ha":833,"x_min":217,"x_max":747,"o":"m 217 917 l 258 917 l 258 39 l 747 39 l 747 0 l 217 0 l 217 917 m 497 -283 q 458 -268 474 -283 q 442 -225 442 -253 q 458 -182 442 -197 q 497 -167 474 -167 q 537 -182 521 -167 q 553 -225 553 -197 q 537 -268 553 -253 q 497 -283 521 -283 z "},"Ḹ":{"ha":833,"x_min":107,"x_max":747,"o":"m 217 917 l 258 917 l 258 39 l 747 39 l 747 0 l 217 0 l 217 917 m 107 1061 l 413 1061 l 413 1022 l 107 1022 l 107 1061 m 497 -283 q 458 -268 474 -283 q 442 -225 442 -253 q 458 -182 442 -197 q 497 -167 474 -167 q 537 -182 521 -167 q 553 -225 553 -197 q 537 -268 553 -253 q 497 -283 521 -283 z "},"Ḻ":{"ha":833,"x_min":217,"x_max":747,"o":"m 217 917 l 258 917 l 258 39 l 747 39 l 747 0 l 217 0 l 217 917 m 650 -217 l 342 -217 l 342 -178 l 650 -178 l 650 -217 z "},"Ł":{"ha":833,"x_min":96,"x_max":747,"o":"m 747 39 l 747 0 l 217 0 l 217 349 l 96 286 l 96 328 l 217 390 l 217 917 l 258 917 l 258 410 l 593 583 l 593 542 l 258 368 l 258 39 l 747 39 z "},"Ṃ":{"ha":833,"x_min":132,"x_max":701,"o":"m 132 917 l 196 917 l 357 475 l 415 308 l 421 308 l 476 475 l 638 917 l 701 917 l 701 0 l 657 0 l 657 688 q 658 776 657 731 q 661 865 660 822 l 657 865 l 607 713 l 436 251 l 399 251 l 226 713 l 172 865 l 169 865 q 173 776 171 822 q 175 688 175 731 l 175 0 l 132 0 l 132 917 m 417 -283 q 377 -268 393 -283 q 361 -225 361 -253 q 377 -182 361 -197 q 417 -167 393 -167 q 456 -182 440 -167 q 472 -225 472 -197 q 456 -268 472 -253 q 417 -283 440 -283 z "},"Ń":{"ha":833,"x_min":133,"x_max":700,"o":"m 133 917 l 179 917 l 560 242 l 661 64 l 664 64 q 660 193 663 131 q 658 321 658 256 l 658 917 l 700 917 l 700 0 l 654 0 l 274 675 l 172 853 l 169 853 q 173 726 171 786 q 175 601 175 667 l 175 0 l 133 0 l 133 917 m 422 986 l 381 986 l 511 1131 l 572 1131 l 422 986 z "},"Ň":{"ha":833,"x_min":133,"x_max":700,"o":"m 133 917 l 179 917 l 560 242 l 661 64 l 664 64 q 660 193 663 131 q 658 321 658 256 l 658 917 l 700 917 l 700 0 l 654 0 l 274 675 l 172 853 l 169 853 q 173 726 171 786 q 175 601 175 667 l 175 0 l 133 0 l 133 917 m 578 1131 l 444 986 l 406 986 l 272 1131 l 314 1131 l 422 1028 l 428 1028 l 536 1131 l 578 1131 z "},"Ñ":{"ha":833,"x_min":133,"x_max":700,"o":"m 133 917 l 179 917 l 560 242 l 661 64 l 664 64 q 660 193 663 131 q 658 321 658 256 l 658 917 l 700 917 l 700 0 l 654 0 l 274 675 l 172 853 l 169 853 q 173 726 171 786 q 175 601 175 667 l 175 0 l 133 0 l 133 917 m 506 997 q 458 1010 478 997 q 419 1038 438 1022 q 382 1065 400 1053 q 342 1078 364 1078 q 303 1056 318 1078 q 283 997 288 1033 l 253 997 q 260 1038 254 1017 q 276 1077 265 1060 q 304 1106 288 1094 q 344 1117 321 1117 q 392 1104 371 1117 q 431 1076 413 1092 q 468 1049 450 1061 q 508 1036 486 1036 q 547 1058 532 1036 q 567 1117 563 1081 l 597 1117 q 590 1076 596 1097 q 574 1037 585 1054 q 545 1008 563 1019 q 506 997 528 997 z "},"Ņ":{"ha":833,"x_min":133,"x_max":700,"o":"m 133 917 l 179 917 l 560 242 l 661 64 l 664 64 q 660 193 663 131 q 658 321 658 256 l 658 917 l 700 917 l 700 0 l 654 0 l 274 675 l 172 853 l 169 853 q 173 726 171 786 q 175 601 175 667 l 175 0 l 133 0 l 133 917 m 383 -72 q 464 -108 436 -85 q 492 -172 492 -131 q 478 -218 492 -199 q 441 -251 464 -237 q 388 -274 418 -265 q 328 -286 358 -282 l 319 -250 q 414 -224 378 -242 q 450 -178 450 -207 q 424 -130 450 -144 q 369 -108 399 -115 l 383 -72 l 383 -72 z "},"Ṅ":{"ha":833,"x_min":133,"x_max":700,"o":"m 133 917 l 179 917 l 560 242 l 661 64 l 664 64 q 660 193 663 131 q 658 321 658 256 l 658 917 l 700 917 l 700 0 l 654 0 l 274 675 l 172 853 l 169 853 q 173 726 171 786 q 175 601 175 667 l 175 0 l 133 0 l 133 917 m 425 1006 q 392 1019 406 1006 q 378 1056 378 1032 q 392 1090 378 1076 q 425 1103 406 1103 q 458 1090 444 1103 q 472 1056 472 1076 q 458 1019 472 1032 q 425 1006 444 1006 z "},"Ṇ":{"ha":833,"x_min":133,"x_max":700,"o":"m 133 917 l 179 917 l 560 242 l 661 64 l 664 64 q 660 193 663 131 q 658 321 658 256 l 658 917 l 700 917 l 700 0 l 654 0 l 274 675 l 172 853 l 169 853 q 173 726 171 786 q 175 601 175 667 l 175 0 l 133 0 l 133 917 m 417 -283 q 377 -268 393 -283 q 361 -225 361 -253 q 377 -182 361 -197 q 417 -167 393 -167 q 456 -182 440 -167 q 472 -225 472 -197 q 456 -268 472 -253 q 417 -283 440 -283 z "},"Ṉ":{"ha":833,"x_min":133,"x_max":700,"o":"m 133 917 l 179 917 l 560 242 l 661 64 l 664 64 q 660 193 663 131 q 658 321 658 256 l 658 917 l 700 917 l 700 0 l 654 0 l 274 675 l 172 853 l 169 853 q 173 726 171 786 q 175 601 175 667 l 175 0 l 133 0 l 133 917 m 569 -217 l 261 -217 l 261 -178 l 569 -178 l 569 -217 z "},"Ò":{"ha":833,"x_min":78,"x_max":756,"o":"m 417 -17 q 281 17 343 -17 q 173 114 218 51 q 103 265 128 176 q 78 461 78 353 q 103 657 78 569 q 173 806 128 744 q 281 900 218 867 q 417 933 343 933 q 553 900 490 933 q 660 806 615 867 q 731 657 706 744 q 756 461 756 569 q 731 265 756 353 q 660 114 706 176 q 553 17 615 51 q 417 -17 490 -17 m 417 25 q 535 56 482 25 q 628 144 589 88 q 688 282 667 201 q 708 461 708 363 q 688 640 708 560 q 628 776 667 719 q 535 862 589 832 q 417 892 482 892 q 298 862 351 892 q 206 776 244 832 q 146 640 167 719 q 125 461 125 560 q 146 282 125 363 q 206 144 167 201 q 298 56 244 88 q 417 25 351 25 m 269 1131 l 331 1131 l 461 986 l 419 986 l 269 1131 z "},"Ó":{"ha":833,"x_min":78,"x_max":756,"o":"m 417 -17 q 281 17 343 -17 q 173 114 218 51 q 103 265 128 176 q 78 461 78 353 q 103 657 78 569 q 173 806 128 744 q 281 900 218 867 q 417 933 343 933 q 553 900 490 933 q 660 806 615 867 q 731 657 706 744 q 756 461 756 569 q 731 265 756 353 q 660 114 706 176 q 553 17 615 51 q 417 -17 490 -17 m 417 25 q 535 56 482 25 q 628 144 589 88 q 688 282 667 201 q 708 461 708 363 q 688 640 708 560 q 628 776 667 719 q 535 862 589 832 q 417 892 482 892 q 298 862 351 892 q 206 776 244 832 q 146 640 167 719 q 125 461 125 560 q 146 282 125 363 q 206 144 167 201 q 298 56 244 88 q 417 25 351 25 m 414 986 l 372 986 l 503 1131 l 564 1131 l 414 986 z "},"Ô":{"ha":833,"x_min":78,"x_max":756,"o":"m 417 -17 q 281 17 343 -17 q 173 114 218 51 q 103 265 128 176 q 78 461 78 353 q 103 657 78 569 q 173 806 128 744 q 281 900 218 867 q 417 933 343 933 q 553 900 490 933 q 660 806 615 867 q 731 657 706 744 q 756 461 756 569 q 731 265 756 353 q 660 114 706 176 q 553 17 615 51 q 417 -17 490 -17 m 417 25 q 535 56 482 25 q 628 144 589 88 q 688 282 667 201 q 708 461 708 363 q 688 640 708 560 q 628 776 667 719 q 535 862 589 832 q 417 892 482 892 q 298 862 351 892 q 206 776 244 832 q 146 640 167 719 q 125 461 125 560 q 146 282 125 363 q 206 144 167 201 q 298 56 244 88 q 417 25 351 25 m 264 986 l 397 1131 l 436 1131 l 569 986 l 528 986 l 419 1089 l 414 1089 l 306 986 l 264 986 z "},"Õ":{"ha":833,"x_min":78,"x_max":756,"o":"m 417 -17 q 281 17 343 -17 q 173 114 218 51 q 103 265 128 176 q 78 461 78 353 q 103 657 78 569 q 173 806 128 744 q 281 900 218 867 q 417 933 343 933 q 553 900 490 933 q 660 806 615 867 q 731 657 706 744 q 756 461 756 569 q 731 265 756 353 q 660 114 706 176 q 553 17 615 51 q 417 -17 490 -17 m 417 25 q 535 56 482 25 q 628 144 589 88 q 688 282 667 201 q 708 461 708 363 q 688 640 708 560 q 628 776 667 719 q 535 862 589 832 q 417 892 482 892 q 298 862 351 892 q 206 776 244 832 q 146 640 167 719 q 125 461 125 560 q 146 282 125 363 q 206 144 167 201 q 298 56 244 88 q 417 25 351 25 m 497 997 q 449 1010 469 997 q 410 1038 429 1022 q 374 1065 392 1053 q 333 1078 356 1078 q 294 1056 310 1078 q 275 997 279 1033 l 244 997 q 251 1038 246 1017 q 268 1077 257 1060 q 296 1106 279 1094 q 336 1117 313 1117 q 383 1104 363 1117 q 423 1076 404 1092 q 460 1049 442 1061 q 500 1036 478 1036 q 539 1058 524 1036 q 558 1117 554 1081 l 589 1117 q 582 1076 588 1097 q 565 1037 576 1054 q 537 1008 554 1019 q 497 997 519 997 z "},"Ö":{"ha":833,"x_min":78,"x_max":756,"o":"m 417 -17 q 281 17 343 -17 q 173 114 218 51 q 103 265 128 176 q 78 461 78 353 q 103 657 78 569 q 173 806 128 744 q 281 900 218 867 q 417 933 343 933 q 553 900 490 933 q 660 806 615 867 q 731 657 706 744 q 756 461 756 569 q 731 265 756 353 q 660 114 706 176 q 553 17 615 51 q 417 -17 490 -17 m 417 25 q 535 56 482 25 q 628 144 589 88 q 688 282 667 201 q 708 461 708 363 q 688 640 708 560 q 628 776 667 719 q 535 862 589 832 q 417 892 482 892 q 298 862 351 892 q 206 776 244 832 q 146 640 167 719 q 125 461 125 560 q 146 282 125 363 q 206 144 167 201 q 298 56 244 88 q 417 25 351 25 m 311 1011 q 279 1023 292 1011 q 267 1056 267 1035 q 279 1088 267 1076 q 311 1100 292 1100 q 343 1088 331 1100 q 356 1056 356 1076 q 343 1023 356 1035 q 311 1011 331 1011 m 522 1011 q 490 1023 503 1011 q 478 1056 478 1035 q 490 1088 478 1076 q 522 1100 503 1100 q 554 1088 542 1100 q 567 1056 567 1076 q 554 1023 567 1035 q 522 1011 542 1011 z "},"Ō":{"ha":833,"x_min":78,"x_max":756,"o":"m 417 -17 q 281 17 343 -17 q 173 114 218 51 q 103 265 128 176 q 78 461 78 353 q 103 657 78 569 q 173 806 128 744 q 281 900 218 867 q 417 933 343 933 q 553 900 490 933 q 660 806 615 867 q 731 657 706 744 q 756 461 756 569 q 731 265 756 353 q 660 114 706 176 q 553 17 615 51 q 417 -17 490 -17 m 417 25 q 535 56 482 25 q 628 144 589 88 q 688 282 667 201 q 708 461 708 363 q 688 640 708 560 q 628 776 667 719 q 535 862 589 832 q 417 892 482 892 q 298 862 351 892 q 206 776 244 832 q 146 640 167 719 q 125 461 125 560 q 146 282 125 363 q 206 144 167 201 q 298 56 244 88 q 417 25 351 25 m 264 1061 l 569 1061 l 569 1022 l 264 1022 l 264 1061 z "},"Ŏ":{"ha":833,"x_min":78,"x_max":756,"o":"m 417 -17 q 281 17 343 -17 q 173 114 218 51 q 103 265 128 176 q 78 461 78 353 q 103 657 78 569 q 173 806 128 744 q 281 900 218 867 q 417 933 343 933 q 553 900 490 933 q 660 806 615 867 q 731 657 706 744 q 756 461 756 569 q 731 265 756 353 q 660 114 706 176 q 553 17 615 51 q 417 -17 490 -17 m 417 25 q 535 56 482 25 q 628 144 589 88 q 688 282 667 201 q 708 461 708 363 q 688 640 708 560 q 628 776 667 719 q 535 862 589 832 q 417 892 482 892 q 298 862 351 892 q 206 776 244 832 q 146 640 167 719 q 125 461 125 560 q 146 282 125 363 q 206 144 167 201 q 298 56 244 88 q 417 25 351 25 m 417 989 q 350 1003 378 989 q 303 1038 322 1017 q 274 1083 285 1058 q 261 1131 264 1108 l 297 1131 q 308 1092 300 1111 q 331 1059 317 1074 q 367 1035 346 1044 q 417 1025 389 1025 q 465 1035 444 1025 q 501 1059 486 1044 q 524 1092 515 1074 q 536 1131 533 1111 l 572 1131 q 559 1083 569 1108 q 530 1038 549 1058 q 483 1003 511 1017 q 417 989 456 989 z "},"Ő":{"ha":833,"x_min":78,"x_max":756,"o":"m 417 -17 q 281 17 343 -17 q 173 114 218 51 q 103 265 128 176 q 78 461 78 353 q 103 657 78 569 q 173 806 128 744 q 281 900 218 867 q 417 933 343 933 q 553 900 490 933 q 660 806 615 867 q 731 657 706 744 q 756 461 756 569 q 731 265 756 353 q 660 114 706 176 q 553 17 615 51 q 417 -17 490 -17 m 417 25 q 535 56 482 25 q 628 144 589 88 q 688 282 667 201 q 708 461 708 363 q 688 640 708 560 q 628 776 667 719 q 535 862 589 832 q 417 892 482 892 q 298 862 351 892 q 206 776 244 832 q 146 640 167 719 q 125 461 125 560 q 146 282 125 363 q 206 144 167 201 q 298 56 244 88 q 417 25 351 25 m 297 986 l 392 1131 l 444 1131 l 336 986 l 297 986 m 586 1131 l 639 1131 l 531 986 l 492 986 l 586 1131 z "},"Ǒ":{"ha":833,"x_min":78,"x_max":756,"o":"m 417 -17 q 281 17 343 -17 q 173 114 218 51 q 103 265 128 176 q 78 461 78 353 q 103 657 78 569 q 173 806 128 744 q 281 900 218 867 q 417 933 343 933 q 553 900 490 933 q 660 806 615 867 q 731 657 706 744 q 756 461 756 569 q 731 265 756 353 q 660 114 706 176 q 553 17 615 51 q 417 -17 490 -17 m 417 25 q 535 56 482 25 q 628 144 589 88 q 688 282 667 201 q 708 461 708 363 q 688 640 708 560 q 628 776 667 719 q 535 862 589 832 q 417 892 482 892 q 298 862 351 892 q 206 776 244 832 q 146 640 167 719 q 125 461 125 560 q 146 282 125 363 q 206 144 167 201 q 298 56 244 88 q 417 25 351 25 m 569 1131 l 436 986 l 397 986 l 264 1131 l 306 1131 l 414 1028 l 419 1028 l 528 1131 l 569 1131 z "},"Ọ":{"ha":833,"x_min":78,"x_max":756,"o":"m 417 -17 q 281 17 343 -17 q 173 114 218 51 q 103 265 128 176 q 78 461 78 353 q 103 657 78 569 q 173 806 128 744 q 281 900 218 867 q 417 933 343 933 q 553 900 490 933 q 660 806 615 867 q 731 657 706 744 q 756 461 756 569 q 731 265 756 353 q 660 114 706 176 q 553 17 615 51 q 417 -17 490 -17 m 417 25 q 535 56 482 25 q 628 144 589 88 q 688 282 667 201 q 708 461 708 363 q 688 640 708 560 q 628 776 667 719 q 535 862 589 832 q 417 892 482 892 q 298 862 351 892 q 206 776 244 832 q 146 640 167 719 q 125 461 125 560 q 146 282 125 363 q 206 144 167 201 q 298 56 244 88 q 417 25 351 25 m 417 -283 q 377 -268 393 -283 q 361 -225 361 -253 q 377 -182 361 -197 q 417 -167 393 -167 q 456 -182 440 -167 q 472 -225 472 -197 q 456 -268 472 -253 q 417 -283 440 -283 z "},"Ỏ":{"ha":833,"x_min":78,"x_max":756,"o":"m 417 -17 q 281 17 343 -17 q 173 114 218 51 q 103 265 128 176 q 78 461 78 353 q 103 657 78 569 q 173 806 128 744 q 281 900 218 867 q 417 933 343 933 q 553 900 490 933 q 660 806 615 867 q 731 657 706 744 q 756 461 756 569 q 731 265 756 353 q 660 114 706 176 q 553 17 615 51 q 417 -17 490 -17 m 417 25 q 535 56 482 25 q 628 144 589 88 q 688 282 667 201 q 708 461 708 363 q 688 640 708 560 q 628 776 667 719 q 535 862 589 832 q 417 892 482 892 q 298 862 351 892 q 206 776 244 832 q 146 640 167 719 q 125 461 125 560 q 146 282 125 363 q 206 144 167 201 q 298 56 244 88 q 417 25 351 25 m 375 1008 q 441 1039 415 1021 q 467 1089 467 1057 q 435 1139 467 1122 q 347 1158 404 1156 l 350 1194 q 409 1188 381 1193 q 460 1169 438 1182 q 495 1139 482 1157 q 508 1094 508 1121 q 498 1049 508 1068 q 470 1017 488 1031 q 431 994 453 1004 q 386 978 408 985 l 375 1008 z "},"Ố":{"ha":833,"x_min":78,"x_max":756,"o":"m 417 -17 q 281 17 343 -17 q 173 114 218 51 q 103 265 128 176 q 78 461 78 353 q 103 657 78 569 q 173 806 128 744 q 281 900 218 867 q 417 933 343 933 q 553 900 490 933 q 660 806 615 867 q 731 657 706 744 q 756 461 756 569 q 731 265 756 353 q 660 114 706 176 q 553 17 615 51 q 417 -17 490 -17 m 417 25 q 535 56 482 25 q 628 144 589 88 q 688 282 667 201 q 708 461 708 363 q 688 640 708 560 q 628 776 667 719 q 535 862 589 832 q 417 892 482 892 q 298 862 351 892 q 206 776 244 832 q 146 640 167 719 q 125 461 125 560 q 146 282 125 363 q 206 144 167 201 q 298 56 244 88 q 417 25 351 25 m 619 1214 l 672 1214 l 556 1069 l 519 1069 l 619 1214 m 397 1122 l 436 1122 l 561 986 l 519 986 l 419 1081 l 414 1081 l 314 986 l 272 986 l 397 1122 z "},"Ồ":{"ha":833,"x_min":78,"x_max":756,"o":"m 417 -17 q 281 17 343 -17 q 173 114 218 51 q 103 265 128 176 q 78 461 78 353 q 103 657 78 569 q 173 806 128 744 q 281 900 218 867 q 417 933 343 933 q 553 900 490 933 q 660 806 615 867 q 731 657 706 744 q 756 461 756 569 q 731 265 756 353 q 660 114 706 176 q 553 17 615 51 q 417 -17 490 -17 m 417 25 q 535 56 482 25 q 628 144 589 88 q 688 282 667 201 q 708 461 708 363 q 688 640 708 560 q 628 776 667 719 q 535 862 589 832 q 417 892 482 892 q 298 862 351 892 q 206 776 244 832 q 146 640 167 719 q 125 461 125 560 q 146 282 125 363 q 206 144 167 201 q 298 56 244 88 q 417 25 351 25 m 611 1069 l 575 1069 l 458 1214 l 511 1214 l 611 1069 m 397 1122 l 436 1122 l 561 986 l 519 986 l 419 1081 l 414 1081 l 314 986 l 272 986 l 397 1122 z "},"Ổ":{"ha":833,"x_min":78,"x_max":756,"o":"m 417 -17 q 281 17 343 -17 q 173 114 218 51 q 103 265 128 176 q 78 461 78 353 q 103 657 78 569 q 173 806 128 744 q 281 900 218 867 q 417 933 343 933 q 553 900 490 933 q 660 806 615 867 q 731 657 706 744 q 756 461 756 569 q 731 265 756 353 q 660 114 706 176 q 553 17 615 51 q 417 -17 490 -17 m 417 25 q 535 56 482 25 q 628 144 589 88 q 688 282 667 201 q 708 461 708 363 q 688 640 708 560 q 628 776 667 719 q 535 862 589 832 q 417 892 482 892 q 298 862 351 892 q 206 776 244 832 q 146 640 167 719 q 125 461 125 560 q 146 282 125 363 q 206 144 167 201 q 298 56 244 88 q 417 25 351 25 m 538 1086 q 591 1108 569 1094 q 613 1147 613 1122 q 586 1193 613 1181 q 510 1208 560 1206 l 515 1244 q 567 1238 542 1243 q 612 1223 593 1233 q 642 1195 631 1213 q 654 1153 654 1178 q 644 1113 654 1129 q 620 1085 635 1097 q 588 1066 606 1074 q 551 1053 569 1058 l 538 1086 m 397 1122 l 436 1122 l 561 986 l 519 986 l 419 1081 l 414 1081 l 314 986 l 272 986 l 397 1122 z "},"Ỗ":{"ha":833,"x_min":78,"x_max":756,"o":"m 417 -17 q 281 17 343 -17 q 173 114 218 51 q 103 265 128 176 q 78 461 78 353 q 103 657 78 569 q 173 806 128 744 q 281 900 218 867 q 417 933 343 933 q 553 900 490 933 q 660 806 615 867 q 731 657 706 744 q 756 461 756 569 q 731 265 756 353 q 660 114 706 176 q 553 17 615 51 q 417 -17 490 -17 m 417 25 q 535 56 482 25 q 628 144 589 88 q 688 282 667 201 q 708 461 708 363 q 688 640 708 560 q 628 776 667 719 q 535 862 589 832 q 417 892 482 892 q 298 862 351 892 q 206 776 244 832 q 146 640 167 719 q 125 461 125 560 q 146 282 125 363 q 206 144 167 201 q 298 56 244 88 q 417 25 351 25 m 397 1122 l 436 1122 l 561 986 l 519 986 l 419 1081 l 414 1081 l 314 986 l 272 986 l 397 1122 m 253 1172 q 260 1206 254 1189 q 276 1238 265 1224 q 305 1263 288 1253 q 347 1272 322 1272 q 390 1263 372 1272 q 424 1240 408 1253 q 455 1218 440 1228 q 489 1208 469 1208 q 528 1224 513 1208 q 547 1272 543 1240 l 581 1272 q 574 1238 579 1256 q 557 1205 568 1219 q 528 1181 546 1190 q 486 1172 511 1172 q 443 1182 461 1172 q 409 1204 425 1192 q 378 1226 393 1217 q 344 1236 363 1236 q 306 1220 321 1236 q 286 1172 290 1204 l 253 1172 z "},"Ộ":{"ha":833,"x_min":78,"x_max":756,"o":"m 417 -17 q 281 17 343 -17 q 173 114 218 51 q 103 265 128 176 q 78 461 78 353 q 103 657 78 569 q 173 806 128 744 q 281 900 218 867 q 417 933 343 933 q 553 900 490 933 q 660 806 615 867 q 731 657 706 744 q 756 461 756 569 q 731 265 756 353 q 660 114 706 176 q 553 17 615 51 q 417 -17 490 -17 m 417 25 q 535 56 482 25 q 628 144 589 88 q 688 282 667 201 q 708 461 708 363 q 688 640 708 560 q 628 776 667 719 q 535 862 589 832 q 417 892 482 892 q 298 862 351 892 q 206 776 244 832 q 146 640 167 719 q 125 461 125 560 q 146 282 125 363 q 206 144 167 201 q 298 56 244 88 q 417 25 351 25 m 264 986 l 397 1131 l 436 1131 l 569 986 l 528 986 l 419 1089 l 414 1089 l 306 986 l 264 986 m 417 -283 q 377 -268 393 -283 q 361 -225 361 -253 q 377 -182 361 -197 q 417 -167 393 -167 q 456 -182 440 -167 q 472 -225 472 -197 q 456 -268 472 -253 q 417 -283 440 -283 z "},"Ø":{"ha":833,"x_min":78,"x_max":756,"o":"m 217 129 q 305 52 254 79 q 417 25 356 25 q 535 56 482 25 q 628 144 589 88 q 688 282 667 201 q 708 461 708 363 q 690 628 708 553 q 638 760 672 704 l 217 129 m 615 793 q 417 892 538 892 q 298 862 351 892 q 206 776 244 832 q 146 640 167 719 q 125 461 125 560 q 143 294 125 369 q 193 164 161 219 l 615 793 m 665 799 q 732 652 708 738 q 756 461 756 567 q 731 265 756 353 q 660 114 706 176 q 553 17 615 51 q 417 -17 490 -17 q 292 11 350 -17 q 190 92 235 39 l 111 -28 l 81 -6 l 167 124 q 101 272 125 186 q 78 461 78 357 q 103 657 78 569 q 173 806 128 744 q 281 900 218 867 q 417 933 343 933 q 640 831 550 933 l 717 944 l 747 922 l 665 799 z "},"Œ":{"ha":833,"x_min":61,"x_max":817,"o":"m 61 461 q 83 648 61 564 q 151 792 106 732 q 263 885 196 853 q 419 918 329 918 l 803 918 l 803 881 l 494 881 l 494 508 l 731 508 l 731 469 l 494 469 l 494 39 l 817 39 l 817 0 l 421 0 q 263 34 331 0 q 151 128 196 68 q 84 274 107 189 q 61 461 61 358 m 107 461 q 125 293 107 371 q 181 159 143 215 q 276 71 218 103 q 414 39 333 39 l 449 39 l 449 879 l 414 879 q 276 848 333 879 q 181 761 218 817 q 125 629 143 706 q 107 461 107 553 z "},"Ơ":{"ha":833,"x_min":78,"x_max":756,"o":"m 417 25 q 535 56 482 25 q 628 144 589 88 q 688 282 667 201 q 708 461 708 363 q 688 640 708 560 q 628 776 667 719 q 535 862 589 832 q 417 892 482 892 q 298 862 351 892 q 206 776 244 832 q 146 640 167 719 q 125 461 125 560 q 146 282 125 363 q 206 144 167 201 q 298 56 244 88 q 417 25 351 25 m 719 1061 q 744 989 744 1024 q 708 904 744 935 q 611 860 672 874 q 717 699 678 800 q 756 461 756 597 q 731 265 756 353 q 660 114 706 176 q 553 17 615 51 q 417 -17 490 -17 q 281 17 343 -17 q 173 114 218 51 q 103 265 128 176 q 78 461 78 353 q 103 657 78 569 q 173 806 128 744 q 281 900 218 867 q 417 933 343 933 q 571 889 503 933 q 672 922 640 899 q 703 986 703 946 q 683 1039 703 1011 l 719 1061 z "},"Ớ":{"ha":833,"x_min":78,"x_max":756,"o":"m 417 25 q 535 56 482 25 q 628 144 589 88 q 688 282 667 201 q 708 461 708 363 q 688 640 708 560 q 628 776 667 719 q 535 862 589 832 q 417 892 482 892 q 298 862 351 892 q 206 776 244 832 q 146 640 167 719 q 125 461 125 560 q 146 282 125 363 q 206 144 167 201 q 298 56 244 88 q 417 25 351 25 m 719 1061 q 744 989 744 1024 q 708 904 744 935 q 611 860 672 874 q 717 699 678 800 q 756 461 756 597 q 731 265 756 353 q 660 114 706 176 q 553 17 615 51 q 417 -17 490 -17 q 281 17 343 -17 q 173 114 218 51 q 103 265 128 176 q 78 461 78 353 q 103 657 78 569 q 173 806 128 744 q 281 900 218 867 q 417 933 343 933 q 571 889 503 933 q 672 922 640 899 q 703 986 703 946 q 683 1039 703 1011 l 719 1061 m 414 986 l 372 986 l 503 1131 l 564 1131 l 414 986 z "},"Ờ":{"ha":833,"x_min":78,"x_max":756,"o":"m 417 25 q 535 56 482 25 q 628 144 589 88 q 688 282 667 201 q 708 461 708 363 q 688 640 708 560 q 628 776 667 719 q 535 862 589 832 q 417 892 482 892 q 298 862 351 892 q 206 776 244 832 q 146 640 167 719 q 125 461 125 560 q 146 282 125 363 q 206 144 167 201 q 298 56 244 88 q 417 25 351 25 m 719 1061 q 744 989 744 1024 q 708 904 744 935 q 611 860 672 874 q 717 699 678 800 q 756 461 756 597 q 731 265 756 353 q 660 114 706 176 q 553 17 615 51 q 417 -17 490 -17 q 281 17 343 -17 q 173 114 218 51 q 103 265 128 176 q 78 461 78 353 q 103 657 78 569 q 173 806 128 744 q 281 900 218 867 q 417 933 343 933 q 571 889 503 933 q 672 922 640 899 q 703 986 703 946 q 683 1039 703 1011 l 719 1061 m 269 1131 l 331 1131 l 461 986 l 419 986 l 269 1131 z "},"Ở":{"ha":833,"x_min":78,"x_max":756,"o":"m 417 25 q 535 56 482 25 q 628 144 589 88 q 688 282 667 201 q 708 461 708 363 q 688 640 708 560 q 628 776 667 719 q 535 862 589 832 q 417 892 482 892 q 298 862 351 892 q 206 776 244 832 q 146 640 167 719 q 125 461 125 560 q 146 282 125 363 q 206 144 167 201 q 298 56 244 88 q 417 25 351 25 m 719 1061 q 744 989 744 1024 q 708 904 744 935 q 611 860 672 874 q 717 699 678 800 q 756 461 756 597 q 731 265 756 353 q 660 114 706 176 q 553 17 615 51 q 417 -17 490 -17 q 281 17 343 -17 q 173 114 218 51 q 103 265 128 176 q 78 461 78 353 q 103 657 78 569 q 173 806 128 744 q 281 900 218 867 q 417 933 343 933 q 571 889 503 933 q 672 922 640 899 q 703 986 703 946 q 683 1039 703 1011 l 719 1061 m 375 1008 q 441 1039 415 1021 q 467 1089 467 1057 q 435 1139 467 1122 q 347 1158 404 1156 l 350 1194 q 409 1188 381 1193 q 460 1169 438 1182 q 495 1139 482 1157 q 508 1094 508 1121 q 498 1049 508 1068 q 470 1017 488 1031 q 431 994 453 1004 q 386 978 408 985 l 375 1008 z "},"Ỡ":{"ha":833,"x_min":78,"x_max":756,"o":"m 417 25 q 535 56 482 25 q 628 144 589 88 q 688 282 667 201 q 708 461 708 363 q 688 640 708 560 q 628 776 667 719 q 535 862 589 832 q 417 892 482 892 q 298 862 351 892 q 206 776 244 832 q 146 640 167 719 q 125 461 125 560 q 146 282 125 363 q 206 144 167 201 q 298 56 244 88 q 417 25 351 25 m 719 1061 q 744 989 744 1024 q 708 904 744 935 q 611 860 672 874 q 717 699 678 800 q 756 461 756 597 q 731 265 756 353 q 660 114 706 176 q 553 17 615 51 q 417 -17 490 -17 q 281 17 343 -17 q 173 114 218 51 q 103 265 128 176 q 78 461 78 353 q 103 657 78 569 q 173 806 128 744 q 281 900 218 867 q 417 933 343 933 q 571 889 503 933 q 672 922 640 899 q 703 986 703 946 q 683 1039 703 1011 l 719 1061 m 497 997 q 449 1010 469 997 q 410 1038 429 1022 q 374 1065 392 1053 q 333 1078 356 1078 q 294 1056 310 1078 q 275 997 279 1033 l 244 997 q 251 1038 246 1017 q 268 1077 257 1060 q 296 1106 279 1094 q 336 1117 313 1117 q 383 1104 363 1117 q 423 1076 404 1092 q 460 1049 442 1061 q 500 1036 478 1036 q 539 1058 524 1036 q 558 1117 554 1081 l 589 1117 q 582 1076 588 1097 q 565 1037 576 1054 q 537 1008 554 1019 q 497 997 519 997 z "},"Ợ":{"ha":833,"x_min":78,"x_max":756,"o":"m 417 25 q 535 56 482 25 q 628 144 589 88 q 688 282 667 201 q 708 461 708 363 q 688 640 708 560 q 628 776 667 719 q 535 862 589 832 q 417 892 482 892 q 298 862 351 892 q 206 776 244 832 q 146 640 167 719 q 125 461 125 560 q 146 282 125 363 q 206 144 167 201 q 298 56 244 88 q 417 25 351 25 m 719 1061 q 744 989 744 1024 q 708 904 744 935 q 611 860 672 874 q 717 699 678 800 q 756 461 756 597 q 731 265 756 353 q 660 114 706 176 q 553 17 615 51 q 417 -17 490 -17 q 281 17 343 -17 q 173 114 218 51 q 103 265 128 176 q 78 461 78 353 q 103 657 78 569 q 173 806 128 744 q 281 900 218 867 q 417 933 343 933 q 571 889 503 933 q 672 922 640 899 q 703 986 703 946 q 683 1039 703 1011 l 719 1061 m 417 -283 q 377 -268 393 -283 q 361 -225 361 -253 q 377 -182 361 -197 q 417 -167 393 -167 q 456 -182 440 -167 q 472 -225 472 -197 q 456 -268 472 -253 q 417 -283 440 -283 z "},"Ǫ":{"ha":833,"x_min":78,"x_max":756,"o":"m 546 -250 q 507 -272 531 -262 q 463 -281 483 -281 q 384 -253 417 -281 q 351 -169 351 -226 q 373 -90 351 -129 q 435 -17 394 -50 q 274 22 342 -19 q 163 130 207 63 q 99 284 119 197 q 78 461 78 371 q 103 657 78 569 q 173 806 128 744 q 281 900 218 867 q 417 933 343 933 q 553 900 490 933 q 660 806 615 867 q 731 657 706 744 q 756 461 756 569 q 690 161 756 276 q 511 -3 624 46 q 423 -76 453 -28 q 393 -167 393 -125 q 415 -223 393 -204 q 465 -242 438 -242 q 498 -237 485 -242 q 526 -222 511 -233 l 546 -250 m 417 25 q 535 56 482 25 q 628 144 589 88 q 688 282 667 201 q 708 461 708 363 q 688 640 708 560 q 628 776 667 719 q 535 862 589 832 q 417 892 482 892 q 298 862 351 892 q 206 776 244 832 q 146 640 167 719 q 125 461 125 560 q 146 282 125 363 q 206 144 167 201 q 298 56 244 88 q 417 25 351 25 z "},"Ŕ":{"ha":833,"x_min":172,"x_max":733,"o":"m 408 472 q 604 523 536 472 q 672 681 672 574 q 604 833 672 789 q 408 878 536 878 l 217 878 l 217 472 l 408 472 m 681 0 l 422 433 l 217 433 l 217 0 l 172 0 l 172 917 l 425 917 q 547 903 493 917 q 640 862 601 890 q 699 789 678 833 q 719 681 719 744 q 653 509 719 571 q 472 436 588 447 l 733 0 l 681 0 m 422 986 l 381 986 l 511 1131 l 572 1131 l 422 986 z "},"Ř":{"ha":833,"x_min":172,"x_max":733,"o":"m 408 472 q 604 523 536 472 q 672 681 672 574 q 604 833 672 789 q 408 878 536 878 l 217 878 l 217 472 l 408 472 m 681 0 l 422 433 l 217 433 l 217 0 l 172 0 l 172 917 l 425 917 q 547 903 493 917 q 640 862 601 890 q 699 789 678 833 q 719 681 719 744 q 653 509 719 571 q 472 436 588 447 l 733 0 l 681 0 m 578 1131 l 444 986 l 406 986 l 272 1131 l 314 1131 l 422 1028 l 428 1028 l 536 1131 l 578 1131 z "},"Ŗ":{"ha":833,"x_min":172,"x_max":733,"o":"m 408 472 q 604 523 536 472 q 672 681 672 574 q 604 833 672 789 q 408 878 536 878 l 217 878 l 217 472 l 408 472 m 681 0 l 422 433 l 217 433 l 217 0 l 172 0 l 172 917 l 425 917 q 547 903 493 917 q 640 862 601 890 q 699 789 678 833 q 719 681 719 744 q 653 509 719 571 q 472 436 588 447 l 733 0 l 681 0 m 411 -72 q 492 -108 464 -85 q 519 -172 519 -131 q 506 -218 519 -199 q 469 -251 492 -237 q 416 -274 446 -265 q 356 -286 386 -282 l 347 -250 q 442 -224 406 -242 q 478 -178 478 -207 q 452 -130 478 -144 q 397 -108 426 -115 l 411 -72 l 411 -72 z "},"Ṛ":{"ha":833,"x_min":172,"x_max":733,"o":"m 408 472 q 604 523 536 472 q 672 681 672 574 q 604 833 672 789 q 408 878 536 878 l 217 878 l 217 472 l 408 472 m 681 0 l 422 433 l 217 433 l 217 0 l 172 0 l 172 917 l 425 917 q 547 903 493 917 q 640 862 601 890 q 699 789 678 833 q 719 681 719 744 q 653 509 719 571 q 472 436 588 447 l 733 0 l 681 0 m 444 -283 q 405 -268 421 -283 q 389 -225 389 -253 q 405 -182 389 -197 q 444 -167 421 -167 q 484 -182 468 -167 q 500 -225 500 -197 q 484 -268 500 -253 q 444 -283 468 -283 z "},"Ṝ":{"ha":833,"x_min":172,"x_max":733,"o":"m 408 472 q 604 523 536 472 q 672 681 672 574 q 604 833 672 789 q 408 878 536 878 l 217 878 l 217 472 l 408 472 m 681 0 l 422 433 l 217 433 l 217 0 l 172 0 l 172 917 l 425 917 q 547 903 493 917 q 640 862 601 890 q 699 789 678 833 q 719 681 719 744 q 653 509 719 571 q 472 436 588 447 l 733 0 l 681 0 m 272 1061 l 578 1061 l 578 1022 l 272 1022 l 272 1061 m 444 -283 q 405 -268 421 -283 q 389 -225 389 -253 q 405 -182 389 -197 q 444 -167 421 -167 q 484 -182 468 -167 q 500 -225 500 -197 q 484 -268 500 -253 q 444 -283 468 -283 z "},"Ṟ":{"ha":833,"x_min":172,"x_max":733,"o":"m 408 472 q 604 523 536 472 q 672 681 672 574 q 604 833 672 789 q 408 878 536 878 l 217 878 l 217 472 l 408 472 m 681 0 l 422 433 l 217 433 l 217 0 l 172 0 l 172 917 l 425 917 q 547 903 493 917 q 640 862 601 890 q 699 789 678 833 q 719 681 719 744 q 653 509 719 571 q 472 436 588 447 l 733 0 l 681 0 m 597 -217 l 289 -217 l 289 -178 l 597 -178 l 597 -217 z "},"Ś":{"ha":833,"x_min":111,"x_max":731,"o":"m 142 153 q 269 60 194 94 q 431 25 343 25 q 536 40 489 25 q 617 80 583 54 q 668 142 650 106 q 686 222 686 178 q 672 299 686 268 q 632 353 657 331 q 574 393 607 376 q 503 425 540 410 l 361 489 q 294 519 329 501 q 230 563 260 538 q 181 626 200 589 q 161 714 161 663 q 182 803 161 763 q 239 872 203 843 q 325 917 275 901 q 433 933 375 933 q 588 901 521 933 q 697 825 656 868 l 669 794 q 568 865 628 839 q 433 892 508 892 q 268 844 331 892 q 206 717 206 796 q 223 644 206 674 q 267 592 240 614 q 324 556 293 571 q 381 531 354 542 l 522 467 q 600 430 563 450 q 667 382 638 410 q 713 316 696 354 q 731 225 731 278 q 709 128 731 172 q 648 52 688 85 q 553 1 608 19 q 431 -17 499 -17 q 244 22 324 -17 q 111 122 165 61 l 142 153 m 433 986 l 392 986 l 522 1131 l 583 1131 l 433 986 z "},"Ŝ":{"ha":833,"x_min":111,"x_max":731,"o":"m 142 153 q 269 60 194 94 q 431 25 343 25 q 536 40 489 25 q 617 80 583 54 q 668 142 650 106 q 686 222 686 178 q 672 299 686 268 q 632 353 657 331 q 574 393 607 376 q 503 425 540 410 l 361 489 q 294 519 329 501 q 230 563 260 538 q 181 626 200 589 q 161 714 161 663 q 182 803 161 763 q 239 872 203 843 q 325 917 275 901 q 433 933 375 933 q 588 901 521 933 q 697 825 656 868 l 669 794 q 568 865 628 839 q 433 892 508 892 q 268 844 331 892 q 206 717 206 796 q 223 644 206 674 q 267 592 240 614 q 324 556 293 571 q 381 531 354 542 l 522 467 q 600 430 563 450 q 667 382 638 410 q 713 316 696 354 q 731 225 731 278 q 709 128 731 172 q 648 52 688 85 q 553 1 608 19 q 431 -17 499 -17 q 244 22 324 -17 q 111 122 165 61 l 142 153 m 283 986 l 417 1131 l 456 1131 l 589 986 l 547 986 l 439 1089 l 433 1089 l 325 986 l 283 986 z "},"Š":{"ha":833,"x_min":111,"x_max":731,"o":"m 142 153 q 269 60 194 94 q 431 25 343 25 q 536 40 489 25 q 617 80 583 54 q 668 142 650 106 q 686 222 686 178 q 672 299 686 268 q 632 353 657 331 q 574 393 607 376 q 503 425 540 410 l 361 489 q 294 519 329 501 q 230 563 260 538 q 181 626 200 589 q 161 714 161 663 q 182 803 161 763 q 239 872 203 843 q 325 917 275 901 q 433 933 375 933 q 588 901 521 933 q 697 825 656 868 l 669 794 q 568 865 628 839 q 433 892 508 892 q 268 844 331 892 q 206 717 206 796 q 223 644 206 674 q 267 592 240 614 q 324 556 293 571 q 381 531 354 542 l 522 467 q 600 430 563 450 q 667 382 638 410 q 713 316 696 354 q 731 225 731 278 q 709 128 731 172 q 648 52 688 85 q 553 1 608 19 q 431 -17 499 -17 q 244 22 324 -17 q 111 122 165 61 l 142 153 m 589 1131 l 456 986 l 417 986 l 283 1131 l 325 1131 l 433 1028 l 439 1028 l 547 1131 l 589 1131 z "},"Ş":{"ha":833,"x_min":111,"x_max":731,"o":"m 142 153 q 269 60 194 94 q 431 25 343 25 q 536 40 489 25 q 617 80 583 54 q 668 142 650 106 q 686 222 686 178 q 672 299 686 268 q 632 353 657 331 q 574 393 607 376 q 503 425 540 410 l 361 489 q 294 519 329 501 q 230 563 260 538 q 181 626 200 589 q 161 714 161 663 q 182 803 161 763 q 239 872 203 843 q 325 917 275 901 q 433 933 375 933 q 588 901 521 933 q 697 825 656 868 l 669 794 q 568 865 628 839 q 433 892 508 892 q 268 844 331 892 q 206 717 206 796 q 223 644 206 674 q 267 592 240 614 q 324 556 293 571 q 381 531 354 542 l 522 467 q 600 430 563 450 q 667 382 638 410 q 713 316 696 354 q 731 225 731 278 q 709 128 731 172 q 648 52 688 85 q 553 1 608 19 q 431 -17 499 -17 q 244 22 324 -17 q 111 122 165 61 l 142 153 m 428 3 l 467 3 l 425 -78 q 483 -110 458 -89 q 508 -172 508 -131 q 494 -218 508 -199 q 458 -251 481 -237 q 405 -274 435 -265 q 344 -286 375 -282 l 336 -250 q 431 -224 394 -242 q 467 -178 467 -207 q 440 -129 467 -144 q 372 -103 413 -114 l 428 3 z "},"Ș":{"ha":833,"x_min":111,"x_max":731,"o":"m 142 153 q 269 60 194 94 q 431 25 343 25 q 536 40 489 25 q 617 80 583 54 q 668 142 650 106 q 686 222 686 178 q 672 299 686 268 q 632 353 657 331 q 574 393 607 376 q 503 425 540 410 l 361 489 q 294 519 329 501 q 230 563 260 538 q 181 626 200 589 q 161 714 161 663 q 182 803 161 763 q 239 872 203 843 q 325 917 275 901 q 433 933 375 933 q 588 901 521 933 q 697 825 656 868 l 669 794 q 568 865 628 839 q 433 892 508 892 q 268 844 331 892 q 206 717 206 796 q 223 644 206 674 q 267 592 240 614 q 324 556 293 571 q 381 531 354 542 l 522 467 q 600 430 563 450 q 667 382 638 410 q 713 316 696 354 q 731 225 731 278 q 709 128 731 172 q 648 52 688 85 q 553 1 608 19 q 431 -17 499 -17 q 244 22 324 -17 q 111 122 165 61 l 142 153 m 397 -72 q 478 -108 450 -85 q 506 -172 506 -131 q 492 -218 506 -199 q 455 -251 478 -237 q 402 -274 432 -265 q 342 -286 372 -282 l 333 -250 q 428 -224 392 -242 q 464 -178 464 -207 q 438 -130 464 -144 q 383 -108 413 -115 l 397 -72 l 397 -72 z "},"Ṡ":{"ha":833,"x_min":111,"x_max":731,"o":"m 142 153 q 269 60 194 94 q 431 25 343 25 q 536 40 489 25 q 617 80 583 54 q 668 142 650 106 q 686 222 686 178 q 672 299 686 268 q 632 353 657 331 q 574 393 607 376 q 503 425 540 410 l 361 489 q 294 519 329 501 q 230 563 260 538 q 181 626 200 589 q 161 714 161 663 q 182 803 161 763 q 239 872 203 843 q 325 917 275 901 q 433 933 375 933 q 588 901 521 933 q 697 825 656 868 l 669 794 q 568 865 628 839 q 433 892 508 892 q 268 844 331 892 q 206 717 206 796 q 223 644 206 674 q 267 592 240 614 q 324 556 293 571 q 381 531 354 542 l 522 467 q 600 430 563 450 q 667 382 638 410 q 713 316 696 354 q 731 225 731 278 q 709 128 731 172 q 648 52 688 85 q 553 1 608 19 q 431 -17 499 -17 q 244 22 324 -17 q 111 122 165 61 l 142 153 m 436 1006 q 403 1019 417 1006 q 389 1056 389 1032 q 403 1090 389 1076 q 436 1103 417 1103 q 469 1090 456 1103 q 483 1056 483 1076 q 469 1019 483 1032 q 436 1006 456 1006 z "},"Ṣ":{"ha":833,"x_min":111,"x_max":731,"o":"m 142 153 q 269 60 194 94 q 431 25 343 25 q 536 40 489 25 q 617 80 583 54 q 668 142 650 106 q 686 222 686 178 q 672 299 686 268 q 632 353 657 331 q 574 393 607 376 q 503 425 540 410 l 361 489 q 294 519 329 501 q 230 563 260 538 q 181 626 200 589 q 161 714 161 663 q 182 803 161 763 q 239 872 203 843 q 325 917 275 901 q 433 933 375 933 q 588 901 521 933 q 697 825 656 868 l 669 794 q 568 865 628 839 q 433 892 508 892 q 268 844 331 892 q 206 717 206 796 q 223 644 206 674 q 267 592 240 614 q 324 556 293 571 q 381 531 354 542 l 522 467 q 600 430 563 450 q 667 382 638 410 q 713 316 696 354 q 731 225 731 278 q 709 128 731 172 q 648 52 688 85 q 553 1 608 19 q 431 -17 499 -17 q 244 22 324 -17 q 111 122 165 61 l 142 153 m 431 -283 q 391 -268 407 -283 q 375 -225 375 -253 q 391 -182 375 -197 q 431 -167 407 -167 q 470 -182 454 -167 q 486 -225 486 -197 q 470 -268 486 -253 q 431 -283 454 -283 z "},"ẞ":{"ha":833,"x_min":125,"x_max":779,"o":"m 125 589 q 145 726 125 663 q 206 835 165 789 q 304 907 246 881 q 440 933 363 933 q 597 883 538 933 q 697 750 657 833 l 483 506 q 625 465 568 492 q 716 403 682 439 q 765 322 750 367 q 779 231 779 278 q 761 133 779 178 q 710 54 743 88 q 634 2 678 21 q 539 -17 590 -17 q 410 12 471 -17 q 306 94 349 40 l 339 128 q 430 50 382 75 q 542 25 478 25 q 682 83 633 25 q 731 228 731 140 q 719 306 731 269 q 674 374 707 343 q 583 430 642 406 q 432 469 525 454 l 429 508 l 642 753 q 565 851 615 811 q 438 892 515 892 q 244 815 317 892 q 171 572 171 739 l 171 0 l 125 0 l 125 589 z "},"Ť":{"ha":833,"x_min":69,"x_max":764,"o":"m 394 878 l 69 878 l 69 917 l 764 917 l 764 878 l 439 878 l 439 0 l 394 0 l 394 878 m 569 1131 l 436 986 l 397 986 l 264 1131 l 306 1131 l 414 1028 l 419 1028 l 528 1131 l 569 1131 z "},"Ţ":{"ha":833,"x_min":69,"x_max":764,"o":"m 394 878 l 69 878 l 69 917 l 764 917 l 764 878 l 439 878 l 439 0 l 394 0 l 394 878 m 400 3 l 439 3 l 397 -78 q 456 -110 431 -89 q 481 -172 481 -131 q 467 -218 481 -199 q 430 -251 453 -237 q 377 -274 407 -265 q 317 -286 347 -282 l 308 -250 q 403 -224 367 -242 q 439 -178 439 -207 q 412 -129 439 -144 q 344 -103 385 -114 l 400 3 z "},"Ț":{"ha":833,"x_min":69,"x_max":764,"o":"m 394 878 l 69 878 l 69 917 l 764 917 l 764 878 l 439 878 l 439 0 l 394 0 l 394 878 m 385 -72 q 465 -108 438 -85 q 493 -172 493 -131 q 479 -218 493 -199 q 442 -251 465 -237 q 390 -274 419 -265 q 329 -286 360 -282 l 321 -250 q 415 -224 379 -242 q 451 -178 451 -207 q 426 -130 451 -144 q 371 -108 400 -115 l 385 -72 l 385 -72 z "},"Ṭ":{"ha":833,"x_min":69,"x_max":764,"o":"m 394 878 l 69 878 l 69 917 l 764 917 l 764 878 l 439 878 l 439 0 l 394 0 l 394 878 m 418 -283 q 378 -268 394 -283 q 363 -225 363 -253 q 378 -182 363 -197 q 418 -167 394 -167 q 458 -182 442 -167 q 474 -225 474 -197 q 458 -268 474 -253 q 418 -283 442 -283 z "},"Ṯ":{"ha":833,"x_min":69,"x_max":764,"o":"m 394 878 l 69 878 l 69 917 l 764 917 l 764 878 l 439 878 l 439 0 l 394 0 l 394 878 m 571 -217 l 263 -217 l 263 -178 l 571 -178 l 571 -217 z "},"Ù":{"ha":833,"x_min":128,"x_max":706,"o":"m 128 917 l 172 917 l 172 353 q 192 195 172 258 q 247 94 213 132 q 324 41 281 57 q 417 25 368 25 q 510 41 465 25 q 590 94 556 57 q 644 195 624 132 q 664 353 664 258 l 664 917 l 706 917 l 706 342 q 681 166 706 235 q 615 56 656 97 q 523 -1 575 15 q 417 -17 471 -17 q 310 -1 363 -17 q 218 56 258 15 q 153 166 178 97 q 128 342 128 235 l 128 917 m 269 1131 l 331 1131 l 461 986 l 419 986 l 269 1131 z "},"Ú":{"ha":833,"x_min":128,"x_max":706,"o":"m 128 917 l 172 917 l 172 353 q 192 195 172 258 q 247 94 213 132 q 324 41 281 57 q 417 25 368 25 q 510 41 465 25 q 590 94 556 57 q 644 195 624 132 q 664 353 664 258 l 664 917 l 706 917 l 706 342 q 681 166 706 235 q 615 56 656 97 q 523 -1 575 15 q 417 -17 471 -17 q 310 -1 363 -17 q 218 56 258 15 q 153 166 178 97 q 128 342 128 235 l 128 917 m 414 986 l 372 986 l 503 1131 l 564 1131 l 414 986 z "},"Û":{"ha":833,"x_min":128,"x_max":706,"o":"m 128 917 l 172 917 l 172 353 q 192 195 172 258 q 247 94 213 132 q 324 41 281 57 q 417 25 368 25 q 510 41 465 25 q 590 94 556 57 q 644 195 624 132 q 664 353 664 258 l 664 917 l 706 917 l 706 342 q 681 166 706 235 q 615 56 656 97 q 523 -1 575 15 q 417 -17 471 -17 q 310 -1 363 -17 q 218 56 258 15 q 153 166 178 97 q 128 342 128 235 l 128 917 m 264 986 l 397 1131 l 436 1131 l 569 986 l 528 986 l 419 1089 l 414 1089 l 306 986 l 264 986 z "},"Ũ":{"ha":833,"x_min":128,"x_max":706,"o":"m 128 917 l 172 917 l 172 353 q 192 195 172 258 q 247 94 213 132 q 324 41 281 57 q 417 25 368 25 q 510 41 465 25 q 590 94 556 57 q 644 195 624 132 q 664 353 664 258 l 664 917 l 706 917 l 706 342 q 681 166 706 235 q 615 56 656 97 q 523 -1 575 15 q 417 -17 471 -17 q 310 -1 363 -17 q 218 56 258 15 q 153 166 178 97 q 128 342 128 235 l 128 917 m 497 997 q 449 1010 469 997 q 410 1038 429 1022 q 374 1065 392 1053 q 333 1078 356 1078 q 294 1056 310 1078 q 275 997 279 1033 l 244 997 q 251 1038 246 1017 q 268 1077 257 1060 q 296 1106 279 1094 q 336 1117 313 1117 q 383 1104 363 1117 q 423 1076 404 1092 q 460 1049 442 1061 q 500 1036 478 1036 q 539 1058 524 1036 q 558 1117 554 1081 l 589 1117 q 582 1076 588 1097 q 565 1037 576 1054 q 537 1008 554 1019 q 497 997 519 997 z "},"Ü":{"ha":833,"x_min":128,"x_max":706,"o":"m 128 917 l 172 917 l 172 353 q 192 195 172 258 q 247 94 213 132 q 324 41 281 57 q 417 25 368 25 q 510 41 465 25 q 590 94 556 57 q 644 195 624 132 q 664 353 664 258 l 664 917 l 706 917 l 706 342 q 681 166 706 235 q 615 56 656 97 q 523 -1 575 15 q 417 -17 471 -17 q 310 -1 363 -17 q 218 56 258 15 q 153 166 178 97 q 128 342 128 235 l 128 917 m 311 1011 q 279 1023 292 1011 q 267 1056 267 1035 q 279 1088 267 1076 q 311 1100 292 1100 q 343 1088 331 1100 q 356 1056 356 1076 q 343 1023 356 1035 q 311 1011 331 1011 m 522 1011 q 490 1023 503 1011 q 478 1056 478 1035 q 490 1088 478 1076 q 522 1100 503 1100 q 554 1088 542 1100 q 567 1056 567 1076 q 554 1023 567 1035 q 522 1011 542 1011 z "},"Ū":{"ha":833,"x_min":128,"x_max":706,"o":"m 128 917 l 172 917 l 172 353 q 192 195 172 258 q 247 94 213 132 q 324 41 281 57 q 417 25 368 25 q 510 41 465 25 q 590 94 556 57 q 644 195 624 132 q 664 353 664 258 l 664 917 l 706 917 l 706 342 q 681 166 706 235 q 615 56 656 97 q 523 -1 575 15 q 417 -17 471 -17 q 310 -1 363 -17 q 218 56 258 15 q 153 166 178 97 q 128 342 128 235 l 128 917 m 264 1061 l 569 1061 l 569 1022 l 264 1022 l 264 1061 z "},"Ŭ":{"ha":833,"x_min":128,"x_max":706,"o":"m 128 917 l 172 917 l 172 353 q 192 195 172 258 q 247 94 213 132 q 324 41 281 57 q 417 25 368 25 q 510 41 465 25 q 590 94 556 57 q 644 195 624 132 q 664 353 664 258 l 664 917 l 706 917 l 706 342 q 681 166 706 235 q 615 56 656 97 q 523 -1 575 15 q 417 -17 471 -17 q 310 -1 363 -17 q 218 56 258 15 q 153 166 178 97 q 128 342 128 235 l 128 917 m 417 989 q 350 1003 378 989 q 303 1038 322 1017 q 274 1083 285 1058 q 261 1131 264 1108 l 297 1131 q 308 1092 300 1111 q 331 1059 317 1074 q 367 1035 346 1044 q 417 1025 389 1025 q 465 1035 444 1025 q 501 1059 486 1044 q 524 1092 515 1074 q 536 1131 533 1111 l 572 1131 q 559 1083 569 1108 q 530 1038 549 1058 q 483 1003 511 1017 q 417 989 456 989 z "},"Ů":{"ha":833,"x_min":128,"x_max":706,"o":"m 128 917 l 172 917 l 172 353 q 192 195 172 258 q 247 94 213 132 q 324 41 281 57 q 417 25 368 25 q 510 41 465 25 q 590 94 556 57 q 644 195 624 132 q 664 353 664 258 l 664 917 l 706 917 l 706 342 q 681 166 706 235 q 615 56 656 97 q 523 -1 575 15 q 417 -17 471 -17 q 310 -1 363 -17 q 218 56 258 15 q 153 166 178 97 q 128 342 128 235 l 128 917 m 417 972 q 340 1003 371 972 q 308 1083 308 1033 q 340 1164 308 1133 q 417 1194 371 1194 q 493 1164 461 1194 q 525 1083 525 1133 q 493 1003 525 1033 q 417 972 461 972 m 417 1003 q 467 1023 446 1003 q 489 1083 489 1043 q 467 1142 489 1121 q 417 1164 446 1164 q 363 1142 385 1164 q 342 1083 342 1121 q 363 1023 342 1043 q 417 1003 385 1003 z "},"Ű":{"ha":833,"x_min":128,"x_max":706,"o":"m 128 917 l 172 917 l 172 353 q 192 195 172 258 q 247 94 213 132 q 324 41 281 57 q 417 25 368 25 q 510 41 465 25 q 590 94 556 57 q 644 195 624 132 q 664 353 664 258 l 664 917 l 706 917 l 706 342 q 681 166 706 235 q 615 56 656 97 q 523 -1 575 15 q 417 -17 471 -17 q 310 -1 363 -17 q 218 56 258 15 q 153 166 178 97 q 128 342 128 235 l 128 917 m 297 986 l 392 1131 l 444 1131 l 336 986 l 297 986 m 586 1131 l 639 1131 l 531 986 l 492 986 l 586 1131 z "},"Ǔ":{"ha":833,"x_min":128,"x_max":706,"o":"m 128 917 l 172 917 l 172 353 q 192 195 172 258 q 247 94 213 132 q 324 41 281 57 q 417 25 368 25 q 510 41 465 25 q 590 94 556 57 q 644 195 624 132 q 664 353 664 258 l 664 917 l 706 917 l 706 342 q 681 166 706 235 q 615 56 656 97 q 523 -1 575 15 q 417 -17 471 -17 q 310 -1 363 -17 q 218 56 258 15 q 153 166 178 97 q 128 342 128 235 l 128 917 m 569 1131 l 436 986 l 397 986 l 264 1131 l 306 1131 l 414 1028 l 419 1028 l 528 1131 l 569 1131 z "},"Ǖ":{"ha":833,"x_min":128,"x_max":706,"o":"m 128 917 l 172 917 l 172 353 q 192 195 172 258 q 247 94 213 132 q 324 41 281 57 q 417 25 368 25 q 510 41 465 25 q 590 94 556 57 q 644 195 624 132 q 664 353 664 258 l 664 917 l 706 917 l 706 342 q 681 166 706 235 q 615 56 656 97 q 523 -1 575 15 q 417 -17 471 -17 q 310 -1 363 -17 q 218 56 258 15 q 153 166 178 97 q 128 342 128 235 l 128 917 m 264 1222 l 569 1222 l 569 1183 l 264 1183 l 264 1222 m 311 1011 q 279 1023 292 1011 q 267 1056 267 1035 q 279 1088 267 1076 q 311 1100 292 1100 q 343 1088 331 1100 q 356 1056 356 1076 q 343 1023 356 1035 q 311 1011 331 1011 m 522 1011 q 490 1023 503 1011 q 478 1056 478 1035 q 490 1088 478 1076 q 522 1100 503 1100 q 554 1088 542 1100 q 567 1056 567 1076 q 554 1023 567 1035 q 522 1011 542 1011 z "},"Ǘ":{"ha":833,"x_min":128,"x_max":706,"o":"m 128 917 l 172 917 l 172 353 q 192 195 172 258 q 247 94 213 132 q 324 41 281 57 q 417 25 368 25 q 510 41 465 25 q 590 94 556 57 q 644 195 624 132 q 664 353 664 258 l 664 917 l 706 917 l 706 342 q 681 166 706 235 q 615 56 656 97 q 523 -1 575 15 q 417 -17 471 -17 q 310 -1 363 -17 q 218 56 258 15 q 153 166 178 97 q 128 342 128 235 l 128 917 m 506 1292 l 561 1292 l 411 1147 l 372 1147 l 506 1292 m 311 1011 q 279 1023 292 1011 q 267 1056 267 1035 q 279 1088 267 1076 q 311 1100 292 1100 q 343 1088 331 1100 q 356 1056 356 1076 q 343 1023 356 1035 q 311 1011 331 1011 m 522 1011 q 490 1023 503 1011 q 478 1056 478 1035 q 490 1088 478 1076 q 522 1100 503 1100 q 554 1088 542 1100 q 567 1056 567 1076 q 554 1023 567 1035 q 522 1011 542 1011 z "},"Ǚ":{"ha":833,"x_min":128,"x_max":706,"o":"m 128 917 l 172 917 l 172 353 q 192 195 172 258 q 247 94 213 132 q 324 41 281 57 q 417 25 368 25 q 510 41 465 25 q 590 94 556 57 q 644 195 624 132 q 664 353 664 258 l 664 917 l 706 917 l 706 342 q 681 166 706 235 q 615 56 656 97 q 523 -1 575 15 q 417 -17 471 -17 q 310 -1 363 -17 q 218 56 258 15 q 153 166 178 97 q 128 342 128 235 l 128 917 m 311 1011 q 279 1023 292 1011 q 267 1056 267 1035 q 279 1088 267 1076 q 311 1100 292 1100 q 343 1088 331 1100 q 356 1056 356 1076 q 343 1023 356 1035 q 311 1011 331 1011 m 522 1011 q 490 1023 503 1011 q 478 1056 478 1035 q 490 1088 478 1076 q 522 1100 503 1100 q 554 1088 542 1100 q 567 1056 567 1076 q 554 1023 567 1035 q 522 1011 542 1011 m 569 1292 l 436 1147 l 397 1147 l 264 1292 l 306 1292 l 414 1189 l 419 1189 l 528 1292 l 569 1292 z "},"Ǜ":{"ha":833,"x_min":128,"x_max":706,"o":"m 128 917 l 172 917 l 172 353 q 192 195 172 258 q 247 94 213 132 q 324 41 281 57 q 417 25 368 25 q 510 41 465 25 q 590 94 556 57 q 644 195 624 132 q 664 353 664 258 l 664 917 l 706 917 l 706 342 q 681 166 706 235 q 615 56 656 97 q 523 -1 575 15 q 417 -17 471 -17 q 310 -1 363 -17 q 218 56 258 15 q 153 166 178 97 q 128 342 128 235 l 128 917 m 461 1147 l 422 1147 l 272 1292 l 328 1292 l 461 1147 m 522 1011 q 490 1023 503 1011 q 478 1056 478 1035 q 490 1088 478 1076 q 522 1100 503 1100 q 554 1088 542 1100 q 567 1056 567 1076 q 554 1023 567 1035 q 522 1011 542 1011 m 311 1011 q 279 1023 292 1011 q 267 1056 267 1035 q 279 1088 267 1076 q 311 1100 292 1100 q 343 1088 331 1100 q 356 1056 356 1076 q 343 1023 356 1035 q 311 1011 331 1011 z "},"Ụ":{"ha":833,"x_min":128,"x_max":706,"o":"m 128 917 l 172 917 l 172 353 q 192 195 172 258 q 247 94 213 132 q 324 41 281 57 q 417 25 368 25 q 510 41 465 25 q 590 94 556 57 q 644 195 624 132 q 664 353 664 258 l 664 917 l 706 917 l 706 342 q 681 166 706 235 q 615 56 656 97 q 523 -1 575 15 q 417 -17 471 -17 q 310 -1 363 -17 q 218 56 258 15 q 153 166 178 97 q 128 342 128 235 l 128 917 m 417 -283 q 377 -268 393 -283 q 361 -225 361 -253 q 377 -182 361 -197 q 417 -167 393 -167 q 456 -182 440 -167 q 472 -225 472 -197 q 456 -268 472 -253 q 417 -283 440 -283 z "},"Ủ":{"ha":833,"x_min":128,"x_max":706,"o":"m 128 917 l 172 917 l 172 353 q 192 195 172 258 q 247 94 213 132 q 324 41 281 57 q 417 25 368 25 q 510 41 465 25 q 590 94 556 57 q 644 195 624 132 q 664 353 664 258 l 664 917 l 706 917 l 706 342 q 681 166 706 235 q 615 56 656 97 q 523 -1 575 15 q 417 -17 471 -17 q 310 -1 363 -17 q 218 56 258 15 q 153 166 178 97 q 128 342 128 235 l 128 917 m 375 1008 q 441 1039 415 1021 q 467 1089 467 1057 q 435 1139 467 1122 q 347 1158 404 1156 l 350 1194 q 409 1188 381 1193 q 460 1169 438 1182 q 495 1139 482 1157 q 508 1094 508 1121 q 498 1049 508 1068 q 470 1017 488 1031 q 431 994 453 1004 q 386 978 408 985 l 375 1008 z "},"Ų":{"ha":833,"x_min":128,"x_max":706,"o":"m 128 917 l 172 917 l 172 353 q 192 195 172 258 q 246 94 213 132 q 323 41 279 57 q 415 25 367 25 q 509 41 464 25 q 588 94 554 57 q 643 195 622 132 q 664 353 664 258 l 664 917 l 706 917 l 706 342 q 692 208 706 265 q 655 111 678 151 q 600 44 632 71 q 533 3 568 18 q 426 -74 467 -26 q 386 -167 386 -122 q 408 -223 386 -204 q 458 -242 431 -242 q 491 -237 478 -242 q 519 -222 504 -233 l 539 -250 q 500 -272 524 -262 q 456 -281 476 -281 q 377 -253 410 -281 q 344 -169 344 -226 q 353 -122 344 -143 q 374 -83 361 -101 q 403 -49 386 -65 q 436 -15 419 -32 q 203 70 279 -21 q 128 342 128 161 l 128 917 z "},"Ư":{"ha":833,"x_min":128,"x_max":842,"o":"m 817 1089 q 842 1017 842 1051 q 830 963 842 985 q 799 926 818 942 q 756 901 781 911 q 706 886 732 892 l 706 342 q 681 166 706 235 q 615 56 656 97 q 523 -1 575 15 q 417 -17 471 -17 q 310 -1 363 -17 q 218 56 258 15 q 153 166 178 97 q 128 342 128 235 l 128 917 l 172 917 l 172 353 q 192 195 172 258 q 247 94 213 132 q 324 41 281 57 q 417 25 368 25 q 510 41 465 25 q 590 94 556 57 q 644 195 624 132 q 664 353 664 258 l 664 917 l 672 917 q 769 950 739 928 q 800 1014 800 972 q 781 1067 800 1039 l 817 1089 z "},"Ứ":{"ha":833,"x_min":128,"x_max":842,"o":"m 817 1089 q 842 1017 842 1051 q 830 963 842 985 q 799 926 818 942 q 756 901 781 911 q 706 886 732 892 l 706 342 q 681 166 706 235 q 615 56 656 97 q 523 -1 575 15 q 417 -17 471 -17 q 310 -1 363 -17 q 218 56 258 15 q 153 166 178 97 q 128 342 128 235 l 128 917 l 172 917 l 172 353 q 192 195 172 258 q 247 94 213 132 q 324 41 281 57 q 417 25 368 25 q 510 41 465 25 q 590 94 556 57 q 644 195 624 132 q 664 353 664 258 l 664 917 l 672 917 q 769 950 739 928 q 800 1014 800 972 q 781 1067 800 1039 l 817 1089 m 414 986 l 372 986 l 503 1131 l 564 1131 l 414 986 z "},"Ừ":{"ha":833,"x_min":128,"x_max":842,"o":"m 817 1089 q 842 1017 842 1051 q 830 963 842 985 q 799 926 818 942 q 756 901 781 911 q 706 886 732 892 l 706 342 q 681 166 706 235 q 615 56 656 97 q 523 -1 575 15 q 417 -17 471 -17 q 310 -1 363 -17 q 218 56 258 15 q 153 166 178 97 q 128 342 128 235 l 128 917 l 172 917 l 172 353 q 192 195 172 258 q 247 94 213 132 q 324 41 281 57 q 417 25 368 25 q 510 41 465 25 q 590 94 556 57 q 644 195 624 132 q 664 353 664 258 l 664 917 l 672 917 q 769 950 739 928 q 800 1014 800 972 q 781 1067 800 1039 l 817 1089 m 269 1131 l 331 1131 l 461 986 l 419 986 l 269 1131 z "},"Ử":{"ha":833,"x_min":128,"x_max":842,"o":"m 817 1089 q 842 1017 842 1051 q 830 963 842 985 q 799 926 818 942 q 756 901 781 911 q 706 886 732 892 l 706 342 q 681 166 706 235 q 615 56 656 97 q 523 -1 575 15 q 417 -17 471 -17 q 310 -1 363 -17 q 218 56 258 15 q 153 166 178 97 q 128 342 128 235 l 128 917 l 172 917 l 172 353 q 192 195 172 258 q 247 94 213 132 q 324 41 281 57 q 417 25 368 25 q 510 41 465 25 q 590 94 556 57 q 644 195 624 132 q 664 353 664 258 l 664 917 l 672 917 q 769 950 739 928 q 800 1014 800 972 q 781 1067 800 1039 l 817 1089 m 375 1008 q 441 1039 415 1021 q 467 1089 467 1057 q 435 1139 467 1122 q 347 1158 404 1156 l 350 1194 q 409 1188 381 1193 q 460 1169 438 1182 q 495 1139 482 1157 q 508 1094 508 1121 q 498 1049 508 1068 q 470 1017 488 1031 q 431 994 453 1004 q 386 978 408 985 l 375 1008 z "},"Ữ":{"ha":833,"x_min":128,"x_max":842,"o":"m 817 1089 q 842 1017 842 1051 q 830 963 842 985 q 799 926 818 942 q 756 901 781 911 q 706 886 732 892 l 706 342 q 681 166 706 235 q 615 56 656 97 q 523 -1 575 15 q 417 -17 471 -17 q 310 -1 363 -17 q 218 56 258 15 q 153 166 178 97 q 128 342 128 235 l 128 917 l 172 917 l 172 353 q 192 195 172 258 q 247 94 213 132 q 324 41 281 57 q 417 25 368 25 q 510 41 465 25 q 590 94 556 57 q 644 195 624 132 q 664 353 664 258 l 664 917 l 672 917 q 769 950 739 928 q 800 1014 800 972 q 781 1067 800 1039 l 817 1089 m 497 997 q 449 1010 469 997 q 410 1038 429 1022 q 374 1065 392 1053 q 333 1078 356 1078 q 294 1056 310 1078 q 275 997 279 1033 l 244 997 q 251 1038 246 1017 q 268 1077 257 1060 q 296 1106 279 1094 q 336 1117 313 1117 q 383 1104 363 1117 q 423 1076 404 1092 q 460 1049 442 1061 q 500 1036 478 1036 q 539 1058 524 1036 q 558 1117 554 1081 l 589 1117 q 582 1076 588 1097 q 565 1037 576 1054 q 537 1008 554 1019 q 497 997 519 997 z "},"Ự":{"ha":833,"x_min":128,"x_max":842,"o":"m 817 1089 q 842 1017 842 1051 q 830 963 842 985 q 799 926 818 942 q 756 901 781 911 q 706 886 732 892 l 706 342 q 681 166 706 235 q 615 56 656 97 q 523 -1 575 15 q 417 -17 471 -17 q 310 -1 363 -17 q 218 56 258 15 q 153 166 178 97 q 128 342 128 235 l 128 917 l 172 917 l 172 353 q 192 195 172 258 q 247 94 213 132 q 324 41 281 57 q 417 25 368 25 q 510 41 465 25 q 590 94 556 57 q 644 195 624 132 q 664 353 664 258 l 664 917 l 672 917 q 769 950 739 928 q 800 1014 800 972 q 781 1067 800 1039 l 817 1089 m 417 -283 q 377 -268 393 -283 q 361 -225 361 -253 q 377 -182 361 -197 q 417 -167 393 -167 q 456 -182 440 -167 q 472 -225 472 -197 q 456 -268 472 -253 q 417 -283 440 -283 z "},"Ẁ":{"ha":833,"x_min":21,"x_max":811,"o":"m 21 918 l 61 918 l 169 272 q 185 163 176 217 q 201 53 194 108 l 204 53 q 239 163 222 108 q 271 272 256 217 l 393 678 l 442 678 l 567 272 q 598 162 582 217 q 631 53 614 107 l 636 53 q 652 162 643 107 q 668 272 661 217 l 772 918 l 811 918 l 660 0 l 601 0 l 461 460 q 440 539 450 500 q 419 618 431 578 l 415 618 q 394 539 404 578 q 371 460 383 500 l 235 0 l 176 0 l 21 918 m 269 1131 l 331 1131 l 461 986 l 419 986 l 269 1131 z "},"Ẃ":{"ha":833,"x_min":21,"x_max":811,"o":"m 21 918 l 61 918 l 169 272 q 185 163 176 217 q 201 53 194 108 l 204 53 q 239 163 222 108 q 271 272 256 217 l 393 678 l 442 678 l 567 272 q 598 162 582 217 q 631 53 614 107 l 636 53 q 652 162 643 107 q 668 272 661 217 l 772 918 l 811 918 l 660 0 l 601 0 l 461 460 q 440 539 450 500 q 419 618 431 578 l 415 618 q 394 539 404 578 q 371 460 383 500 l 235 0 l 176 0 l 21 918 m 414 986 l 372 986 l 503 1131 l 564 1131 l 414 986 z "},"Ŵ":{"ha":833,"x_min":21,"x_max":811,"o":"m 21 918 l 61 918 l 169 272 q 185 163 176 217 q 201 53 194 108 l 204 53 q 239 163 222 108 q 271 272 256 217 l 393 678 l 442 678 l 567 272 q 598 162 582 217 q 631 53 614 107 l 636 53 q 652 162 643 107 q 668 272 661 217 l 772 918 l 811 918 l 660 0 l 601 0 l 461 460 q 440 539 450 500 q 419 618 431 578 l 415 618 q 394 539 404 578 q 371 460 383 500 l 235 0 l 176 0 l 21 918 m 264 986 l 397 1131 l 436 1131 l 569 986 l 528 986 l 419 1089 l 414 1089 l 306 986 l 264 986 z "},"Ẅ":{"ha":833,"x_min":21,"x_max":811,"o":"m 21 918 l 61 918 l 169 272 q 185 163 176 217 q 201 53 194 108 l 204 53 q 239 163 222 108 q 271 272 256 217 l 393 678 l 442 678 l 567 272 q 598 162 582 217 q 631 53 614 107 l 636 53 q 652 162 643 107 q 668 272 661 217 l 772 918 l 811 918 l 660 0 l 601 0 l 461 460 q 440 539 450 500 q 419 618 431 578 l 415 618 q 394 539 404 578 q 371 460 383 500 l 235 0 l 176 0 l 21 918 m 311 1011 q 279 1023 292 1011 q 267 1056 267 1035 q 279 1088 267 1076 q 311 1100 292 1100 q 343 1088 331 1100 q 356 1056 356 1076 q 343 1023 356 1035 q 311 1011 331 1011 m 522 1011 q 490 1023 503 1011 q 478 1056 478 1035 q 490 1088 478 1076 q 522 1100 503 1100 q 554 1088 542 1100 q 567 1056 567 1076 q 554 1023 567 1035 q 522 1011 542 1011 z "},"Ỳ":{"ha":833,"x_min":78,"x_max":756,"o":"m 394 340 l 78 917 l 122 917 l 294 603 q 356 496 326 550 q 417 386 385 442 l 422 386 q 486 496 456 442 q 547 604 517 550 l 714 917 l 756 917 l 439 340 l 439 0 l 394 0 l 394 340 m 269 1131 l 331 1131 l 461 986 l 419 986 l 269 1131 z "},"Ý":{"ha":833,"x_min":78,"x_max":756,"o":"m 394 340 l 78 917 l 122 917 l 294 603 q 356 496 326 550 q 417 386 385 442 l 422 386 q 486 496 456 442 q 547 604 517 550 l 714 917 l 756 917 l 439 340 l 439 0 l 394 0 l 394 340 m 414 986 l 372 986 l 503 1131 l 564 1131 l 414 986 z "},"Ŷ":{"ha":833,"x_min":78,"x_max":756,"o":"m 394 340 l 78 917 l 122 917 l 294 603 q 356 496 326 550 q 417 386 385 442 l 422 386 q 486 496 456 442 q 547 604 517 550 l 714 917 l 756 917 l 439 340 l 439 0 l 394 0 l 394 340 m 264 986 l 397 1131 l 436 1131 l 569 986 l 528 986 l 419 1089 l 414 1089 l 306 986 l 264 986 z "},"Ÿ":{"ha":833,"x_min":78,"x_max":756,"o":"m 394 340 l 78 917 l 122 917 l 294 603 q 356 496 326 550 q 417 386 385 442 l 422 386 q 486 496 456 442 q 547 604 517 550 l 714 917 l 756 917 l 439 340 l 439 0 l 394 0 l 394 340 m 311 1011 q 279 1023 292 1011 q 267 1056 267 1035 q 279 1088 267 1076 q 311 1100 292 1100 q 343 1088 331 1100 q 356 1056 356 1076 q 343 1023 356 1035 q 311 1011 331 1011 m 522 1011 q 490 1023 503 1011 q 478 1056 478 1035 q 490 1088 478 1076 q 522 1100 503 1100 q 554 1088 542 1100 q 567 1056 567 1076 q 554 1023 567 1035 q 522 1011 542 1011 z "},"Ẏ":{"ha":833,"x_min":78,"x_max":756,"o":"m 394 340 l 78 917 l 122 917 l 294 603 q 356 496 326 550 q 417 386 385 442 l 422 386 q 486 496 456 442 q 547 604 517 550 l 714 917 l 756 917 l 439 340 l 439 0 l 394 0 l 394 340 m 417 1006 q 383 1019 397 1006 q 369 1056 369 1032 q 383 1090 369 1076 q 417 1103 397 1103 q 450 1090 436 1103 q 464 1056 464 1076 q 450 1019 464 1032 q 417 1006 436 1006 z "},"Ỵ":{"ha":833,"x_min":78,"x_max":756,"o":"m 394 340 l 78 917 l 122 917 l 294 603 q 356 496 326 550 q 417 386 385 442 l 422 386 q 486 496 456 442 q 547 604 517 550 l 714 917 l 756 917 l 439 340 l 439 0 l 394 0 l 394 340 m 417 -283 q 377 -268 393 -283 q 361 -225 361 -253 q 377 -182 361 -197 q 417 -167 393 -167 q 456 -182 440 -167 q 472 -225 472 -197 q 456 -268 472 -253 q 417 -283 440 -283 z "},"Ỷ":{"ha":833,"x_min":78,"x_max":756,"o":"m 394 340 l 78 917 l 122 917 l 294 603 q 356 496 326 550 q 417 386 385 442 l 422 386 q 486 496 456 442 q 547 604 517 550 l 714 917 l 756 917 l 439 340 l 439 0 l 394 0 l 394 340 m 375 1008 q 441 1039 415 1021 q 467 1089 467 1057 q 435 1139 467 1122 q 347 1158 404 1156 l 350 1194 q 409 1188 381 1193 q 460 1169 438 1182 q 495 1139 482 1157 q 508 1094 508 1121 q 498 1049 508 1068 q 470 1017 488 1031 q 431 994 453 1004 q 386 978 408 985 l 375 1008 z "},"Ỹ":{"ha":833,"x_min":78,"x_max":756,"o":"m 394 340 l 78 917 l 122 917 l 294 603 q 356 496 326 550 q 417 386 385 442 l 422 386 q 486 496 456 442 q 547 604 517 550 l 714 917 l 756 917 l 439 340 l 439 0 l 394 0 l 394 340 m 497 997 q 449 1010 469 997 q 410 1038 429 1022 q 374 1065 392 1053 q 333 1078 356 1078 q 294 1056 310 1078 q 275 997 279 1033 l 244 997 q 251 1038 246 1017 q 268 1077 257 1060 q 296 1106 279 1094 q 336 1117 313 1117 q 383 1104 363 1117 q 423 1076 404 1092 q 460 1049 442 1061 q 500 1036 478 1036 q 539 1058 524 1036 q 558 1117 554 1081 l 589 1117 q 582 1076 588 1097 q 565 1037 576 1054 q 537 1008 554 1019 q 497 997 519 997 z "},"Ź":{"ha":833,"x_min":100,"x_max":740,"o":"m 100 26 l 678 881 l 149 881 l 149 918 l 731 918 l 731 892 l 151 39 l 740 39 l 740 0 l 100 0 l 100 26 m 436 986 l 394 986 l 525 1131 l 586 1131 l 436 986 z "},"Ž":{"ha":833,"x_min":100,"x_max":740,"o":"m 100 26 l 678 881 l 149 881 l 149 918 l 731 918 l 731 892 l 151 39 l 740 39 l 740 0 l 100 0 l 100 26 m 592 1131 l 458 986 l 419 986 l 286 1131 l 328 1131 l 436 1028 l 442 1028 l 550 1131 l 592 1131 z "},"Ż":{"ha":833,"x_min":100,"x_max":740,"o":"m 100 26 l 678 881 l 149 881 l 149 918 l 731 918 l 731 892 l 151 39 l 740 39 l 740 0 l 100 0 l 100 26 m 439 1006 q 406 1019 419 1006 q 392 1056 392 1032 q 406 1090 392 1076 q 439 1103 419 1103 q 472 1090 458 1103 q 486 1056 486 1076 q 472 1019 486 1032 q 439 1006 458 1006 z "},"Ẓ":{"ha":833,"x_min":100,"x_max":740,"o":"m 100 26 l 678 881 l 149 881 l 149 918 l 731 918 l 731 892 l 151 39 l 740 39 l 740 0 l 100 0 l 100 26 m 433 -283 q 394 -268 410 -283 q 378 -225 378 -253 q 394 -182 378 -197 q 433 -167 410 -167 q 473 -182 457 -167 q 489 -225 489 -197 q 473 -268 489 -253 q 433 -283 457 -283 z "},"Ð":{"ha":833,"x_min":39,"x_max":764,"o":"m 147 467 l 39 467 l 39 500 l 147 506 l 147 917 l 353 917 q 536 884 458 917 q 665 791 614 851 q 740 647 715 731 q 764 461 764 563 q 740 274 764 358 q 665 128 715 189 q 536 34 614 68 q 353 0 458 0 l 147 0 l 147 467 m 347 39 q 515 71 444 39 q 630 159 585 103 q 696 293 675 215 q 717 461 717 371 q 696 628 717 551 q 630 760 675 704 q 515 847 585 815 q 347 878 444 878 l 192 878 l 192 506 l 431 506 l 431 467 l 192 467 l 192 39 l 347 39 z "},"Þ":{"ha":833,"x_min":172,"x_max":733,"o":"m 172 917 l 217 917 l 217 750 l 411 750 q 649 694 565 750 q 733 500 733 638 q 650 303 733 368 q 411 239 567 239 l 217 239 l 217 0 l 172 0 l 172 917 m 394 278 q 615 329 543 278 q 686 500 686 381 q 614 666 686 621 q 394 711 542 711 l 217 711 l 217 278 l 394 278 z "},"Ə":{"ha":833,"x_min":92,"x_max":753,"o":"m 136 414 q 163 251 142 324 q 220 128 185 179 q 304 50 256 78 q 414 22 353 22 q 530 51 478 22 q 619 131 582 79 q 680 256 657 183 q 707 417 703 328 l 136 417 l 136 414 m 189 831 q 287 904 229 875 q 419 933 344 933 q 562 900 500 933 q 666 806 624 867 q 731 657 708 744 q 753 461 753 569 q 728 265 753 353 q 660 114 704 176 q 553 17 615 51 q 414 -17 490 -17 q 278 19 338 -17 q 176 117 218 54 q 113 265 135 179 q 92 453 92 351 l 92 456 l 708 456 l 708 461 q 690 639 708 558 q 635 776 671 719 q 545 863 599 832 q 422 894 492 894 q 307 869 360 894 q 214 800 254 844 l 189 831 z "},"à":{"ha":833,"x_min":133,"x_max":694,"o":"m 133 163 q 163 260 133 218 q 256 331 193 301 q 417 381 318 361 q 653 414 515 401 q 643 499 653 457 q 610 572 633 540 q 547 622 588 603 q 447 642 507 642 q 369 633 407 642 q 298 609 332 624 q 236 578 264 594 q 189 547 208 561 l 167 581 q 214 612 185 594 q 281 644 243 629 q 362 670 318 660 q 450 681 406 681 q 563 660 517 681 q 639 606 610 640 q 681 526 668 571 q 694 431 694 481 l 694 0 l 658 0 l 653 103 l 650 103 q 587 58 621 79 q 517 19 553 36 q 442 -7 481 3 q 367 -17 404 -17 q 281 -6 322 -17 q 206 26 239 4 q 153 81 174 47 q 133 163 133 115 m 178 164 q 194 98 178 125 q 238 54 211 71 q 299 30 265 38 q 369 22 333 22 q 653 150 501 22 l 653 378 q 427 347 518 365 q 281 301 336 328 q 201 241 225 275 q 178 164 178 207 m 331 981 l 386 981 l 514 794 l 475 794 l 331 981 z "},"á":{"ha":833,"x_min":133,"x_max":694,"o":"m 133 163 q 163 260 133 218 q 256 331 193 301 q 417 381 318 361 q 653 414 515 401 q 643 499 653 457 q 610 572 633 540 q 547 622 588 603 q 447 642 507 642 q 369 633 407 642 q 298 609 332 624 q 236 578 264 594 q 189 547 208 561 l 167 581 q 214 612 185 594 q 281 644 243 629 q 362 670 318 660 q 450 681 406 681 q 563 660 517 681 q 639 606 610 640 q 681 526 668 571 q 694 431 694 481 l 694 0 l 658 0 l 653 103 l 650 103 q 587 58 621 79 q 517 19 553 36 q 442 -7 481 3 q 367 -17 404 -17 q 281 -6 322 -17 q 206 26 239 4 q 153 81 174 47 q 133 163 133 115 m 178 164 q 194 98 178 125 q 238 54 211 71 q 299 30 265 38 q 369 22 333 22 q 653 150 501 22 l 653 378 q 427 347 518 365 q 281 301 336 328 q 201 241 225 275 q 178 164 178 207 m 408 794 l 369 794 l 497 981 l 553 981 l 408 794 z "},"â":{"ha":833,"x_min":133,"x_max":694,"o":"m 133 163 q 163 260 133 218 q 256 331 193 301 q 417 381 318 361 q 653 414 515 401 q 643 499 653 457 q 610 572 633 540 q 547 622 588 603 q 447 642 507 642 q 369 633 407 642 q 298 609 332 624 q 236 578 264 594 q 189 547 208 561 l 167 581 q 214 612 185 594 q 281 644 243 629 q 362 670 318 660 q 450 681 406 681 q 563 660 517 681 q 639 606 610 640 q 681 526 668 571 q 694 431 694 481 l 694 0 l 658 0 l 653 103 l 650 103 q 587 58 621 79 q 517 19 553 36 q 442 -7 481 3 q 367 -17 404 -17 q 281 -6 322 -17 q 206 26 239 4 q 153 81 174 47 q 133 163 133 115 m 178 164 q 194 98 178 125 q 238 54 211 71 q 299 30 265 38 q 369 22 333 22 q 653 150 501 22 l 653 378 q 427 347 518 365 q 281 301 336 328 q 201 241 225 275 q 178 164 178 207 m 422 981 l 461 981 l 592 794 l 553 794 l 444 936 l 439 936 l 331 794 l 292 794 l 422 981 z "},"ã":{"ha":833,"x_min":133,"x_max":694,"o":"m 133 163 q 163 260 133 218 q 256 331 193 301 q 417 381 318 361 q 653 414 515 401 q 643 499 653 457 q 610 572 633 540 q 547 622 588 603 q 447 642 507 642 q 369 633 407 642 q 298 609 332 624 q 236 578 264 594 q 189 547 208 561 l 167 581 q 214 612 185 594 q 281 644 243 629 q 362 670 318 660 q 450 681 406 681 q 563 660 517 681 q 639 606 610 640 q 681 526 668 571 q 694 431 694 481 l 694 0 l 658 0 l 653 103 l 650 103 q 587 58 621 79 q 517 19 553 36 q 442 -7 481 3 q 367 -17 404 -17 q 281 -6 322 -17 q 206 26 239 4 q 153 81 174 47 q 133 163 133 115 m 178 164 q 194 98 178 125 q 238 54 211 71 q 299 30 265 38 q 369 22 333 22 q 653 150 501 22 l 653 378 q 427 347 518 365 q 281 301 336 328 q 201 241 225 275 q 178 164 178 207 m 278 808 q 284 847 279 826 q 299 883 289 867 q 326 911 310 900 q 367 922 342 922 q 412 910 392 922 q 450 883 432 897 q 485 856 468 868 q 519 844 501 844 q 556 865 543 844 q 572 922 568 886 l 606 922 q 599 884 604 904 q 584 847 594 864 q 558 819 574 831 q 517 808 542 808 q 472 820 492 808 q 435 847 453 832 q 400 874 417 861 q 364 886 383 886 q 328 865 340 886 q 311 808 315 844 l 278 808 l 278 808 z "},"ä":{"ha":833,"x_min":133,"x_max":694,"o":"m 133 163 q 163 260 133 218 q 256 331 193 301 q 417 381 318 361 q 653 414 515 401 q 643 499 653 457 q 610 572 633 540 q 547 622 588 603 q 447 642 507 642 q 369 633 407 642 q 298 609 332 624 q 236 578 264 594 q 189 547 208 561 l 167 581 q 214 612 185 594 q 281 644 243 629 q 362 670 318 660 q 450 681 406 681 q 563 660 517 681 q 639 606 610 640 q 681 526 668 571 q 694 431 694 481 l 694 0 l 658 0 l 653 103 l 650 103 q 587 58 621 79 q 517 19 553 36 q 442 -7 481 3 q 367 -17 404 -17 q 281 -6 322 -17 q 206 26 239 4 q 153 81 174 47 q 133 163 133 115 m 178 164 q 194 98 178 125 q 238 54 211 71 q 299 30 265 38 q 369 22 333 22 q 653 150 501 22 l 653 378 q 427 347 518 365 q 281 301 336 328 q 201 241 225 275 q 178 164 178 207 m 322 836 q 288 851 301 836 q 275 886 275 865 q 288 922 275 907 q 322 936 301 936 q 356 922 343 936 q 369 886 369 907 q 356 851 369 865 q 322 836 343 836 m 561 836 q 527 851 540 836 q 514 886 514 865 q 527 922 514 907 q 561 936 540 936 q 595 922 582 936 q 608 886 608 907 q 595 851 608 865 q 561 836 582 836 z "},"ā":{"ha":833,"x_min":133,"x_max":694,"o":"m 133 163 q 163 260 133 218 q 256 331 193 301 q 417 381 318 361 q 653 414 515 401 q 643 499 653 457 q 610 572 633 540 q 547 622 588 603 q 447 642 507 642 q 369 633 407 642 q 298 609 332 624 q 236 578 264 594 q 189 547 208 561 l 167 581 q 214 612 185 594 q 281 644 243 629 q 362 670 318 660 q 450 681 406 681 q 563 660 517 681 q 639 606 610 640 q 681 526 668 571 q 694 431 694 481 l 694 0 l 658 0 l 653 103 l 650 103 q 587 58 621 79 q 517 19 553 36 q 442 -7 481 3 q 367 -17 404 -17 q 281 -6 322 -17 q 206 26 239 4 q 153 81 174 47 q 133 163 133 115 m 178 164 q 194 98 178 125 q 238 54 211 71 q 299 30 265 38 q 369 22 333 22 q 653 150 501 22 l 653 378 q 427 347 518 365 q 281 301 336 328 q 201 241 225 275 q 178 164 178 207 m 289 883 l 594 883 l 594 844 l 289 844 l 289 883 z "},"ă":{"ha":833,"x_min":133,"x_max":694,"o":"m 133 163 q 163 260 133 218 q 256 331 193 301 q 417 381 318 361 q 653 414 515 401 q 643 499 653 457 q 610 572 633 540 q 547 622 588 603 q 447 642 507 642 q 369 633 407 642 q 298 609 332 624 q 236 578 264 594 q 189 547 208 561 l 167 581 q 214 612 185 594 q 281 644 243 629 q 362 670 318 660 q 450 681 406 681 q 563 660 517 681 q 639 606 610 640 q 681 526 668 571 q 694 431 694 481 l 694 0 l 658 0 l 653 103 l 650 103 q 587 58 621 79 q 517 19 553 36 q 442 -7 481 3 q 367 -17 404 -17 q 281 -6 322 -17 q 206 26 239 4 q 153 81 174 47 q 133 163 133 115 m 178 164 q 194 98 178 125 q 238 54 211 71 q 299 30 265 38 q 369 22 333 22 q 653 150 501 22 l 653 378 q 427 347 518 365 q 281 301 336 328 q 201 241 225 275 q 178 164 178 207 m 442 800 q 371 816 400 800 q 323 856 342 832 q 294 908 304 879 q 281 961 283 936 l 317 961 q 328 915 319 938 q 353 876 338 893 q 390 847 368 858 q 442 836 413 836 q 493 847 471 836 q 531 876 515 858 q 555 915 546 893 q 567 961 564 938 l 603 961 q 590 908 600 936 q 560 856 579 879 q 513 816 542 832 q 442 800 483 800 z "},"å":{"ha":833,"x_min":133,"x_max":694,"o":"m 133 163 q 163 260 133 218 q 256 331 193 301 q 417 381 318 361 q 653 414 515 401 q 643 499 653 457 q 610 572 633 540 q 547 622 588 603 q 447 642 507 642 q 369 633 407 642 q 298 609 332 624 q 236 578 264 594 q 189 547 208 561 l 167 581 q 214 612 185 594 q 281 644 243 629 q 362 670 318 660 q 450 681 406 681 q 563 660 517 681 q 639 606 610 640 q 681 526 668 571 q 694 431 694 481 l 694 0 l 658 0 l 653 103 l 650 103 q 587 58 621 79 q 517 19 553 36 q 442 -7 481 3 q 367 -17 404 -17 q 281 -6 322 -17 q 206 26 239 4 q 153 81 174 47 q 133 163 133 115 m 178 164 q 194 98 178 125 q 238 54 211 71 q 299 30 265 38 q 369 22 333 22 q 653 150 501 22 l 653 378 q 427 347 518 365 q 281 301 336 328 q 201 241 225 275 q 178 164 178 207 m 442 747 q 365 779 396 747 q 333 864 333 811 q 365 949 333 917 q 442 981 396 981 q 519 949 488 981 q 550 864 550 917 q 519 779 550 811 q 442 747 488 747 m 442 778 q 495 801 474 778 q 517 864 517 824 q 495 927 517 904 q 442 950 474 950 q 388 927 410 950 q 367 864 367 904 q 388 801 367 824 q 442 778 410 778 z "},"ǎ":{"ha":833,"x_min":133,"x_max":694,"o":"m 133 163 q 163 260 133 218 q 256 331 193 301 q 417 381 318 361 q 653 414 515 401 q 643 499 653 457 q 610 572 633 540 q 547 622 588 603 q 447 642 507 642 q 369 633 407 642 q 298 609 332 624 q 236 578 264 594 q 189 547 208 561 l 167 581 q 214 612 185 594 q 281 644 243 629 q 362 670 318 660 q 450 681 406 681 q 563 660 517 681 q 639 606 610 640 q 681 526 668 571 q 694 431 694 481 l 694 0 l 658 0 l 653 103 l 650 103 q 587 58 621 79 q 517 19 553 36 q 442 -7 481 3 q 367 -17 404 -17 q 281 -6 322 -17 q 206 26 239 4 q 153 81 174 47 q 133 163 133 115 m 178 164 q 194 98 178 125 q 238 54 211 71 q 299 30 265 38 q 369 22 333 22 q 653 150 501 22 l 653 378 q 427 347 518 365 q 281 301 336 328 q 201 241 225 275 q 178 164 178 207 m 292 981 l 331 981 l 439 839 l 444 839 l 553 981 l 592 981 l 461 794 l 422 794 l 292 981 z "},"ạ":{"ha":833,"x_min":133,"x_max":694,"o":"m 133 163 q 163 260 133 218 q 256 331 193 301 q 417 381 318 361 q 653 414 515 401 q 643 499 653 457 q 610 572 633 540 q 547 622 588 603 q 447 642 507 642 q 369 633 407 642 q 298 609 332 624 q 236 578 264 594 q 189 547 208 561 l 167 581 q 214 612 185 594 q 281 644 243 629 q 362 670 318 660 q 450 681 406 681 q 563 660 517 681 q 639 606 610 640 q 681 526 668 571 q 694 431 694 481 l 694 0 l 658 0 l 653 103 l 650 103 q 587 58 621 79 q 517 19 553 36 q 442 -7 481 3 q 367 -17 404 -17 q 281 -6 322 -17 q 206 26 239 4 q 153 81 174 47 q 133 163 133 115 m 178 164 q 194 98 178 125 q 238 54 211 71 q 299 30 265 38 q 369 22 333 22 q 653 150 501 22 l 653 378 q 427 347 518 365 q 281 301 336 328 q 201 241 225 275 q 178 164 178 207 m 415 -283 q 376 -268 392 -283 q 360 -225 360 -253 q 376 -182 360 -197 q 415 -167 392 -167 q 455 -182 439 -167 q 471 -225 471 -197 q 455 -268 471 -253 q 415 -283 439 -283 z "},"ả":{"ha":833,"x_min":133,"x_max":694,"o":"m 133 163 q 163 260 133 218 q 256 331 193 301 q 417 381 318 361 q 653 414 515 401 q 643 499 653 457 q 610 572 633 540 q 547 622 588 603 q 447 642 507 642 q 369 633 407 642 q 298 609 332 624 q 236 578 264 594 q 189 547 208 561 l 167 581 q 214 612 185 594 q 281 644 243 629 q 362 670 318 660 q 450 681 406 681 q 563 660 517 681 q 639 606 610 640 q 681 526 668 571 q 694 431 694 481 l 694 0 l 658 0 l 653 103 l 650 103 q 587 58 621 79 q 517 19 553 36 q 442 -7 481 3 q 367 -17 404 -17 q 281 -6 322 -17 q 206 26 239 4 q 153 81 174 47 q 133 163 133 115 m 178 164 q 194 98 178 125 q 238 54 211 71 q 299 30 265 38 q 369 22 333 22 q 653 150 501 22 l 653 378 q 427 347 518 365 q 281 301 336 328 q 201 241 225 275 q 178 164 178 207 m 400 794 q 466 825 440 807 q 492 875 492 843 q 460 925 492 908 q 372 944 429 942 l 375 981 q 434 974 406 979 q 485 956 463 968 q 520 925 507 943 q 533 881 533 907 q 523 835 533 854 q 495 803 513 817 q 456 781 478 790 q 411 764 433 771 l 400 794 z "},"ấ":{"ha":833,"x_min":133,"x_max":706,"o":"m 133 163 q 163 260 133 218 q 256 331 193 301 q 417 381 318 361 q 653 414 515 401 q 643 499 653 457 q 610 572 633 540 q 547 622 588 603 q 447 642 507 642 q 369 633 407 642 q 298 609 332 624 q 236 578 264 594 q 189 547 208 561 l 167 581 q 214 612 185 594 q 281 644 243 629 q 362 670 318 660 q 450 681 406 681 q 563 660 517 681 q 639 606 610 640 q 681 526 668 571 q 694 431 694 481 l 694 0 l 658 0 l 653 103 l 650 103 q 587 58 621 79 q 517 19 553 36 q 442 -7 481 3 q 367 -17 404 -17 q 281 -6 322 -17 q 206 26 239 4 q 153 81 174 47 q 133 163 133 115 m 178 164 q 194 98 178 125 q 238 54 211 71 q 299 30 265 38 q 369 22 333 22 q 653 150 501 22 l 653 378 q 427 347 518 365 q 281 301 336 328 q 201 241 225 275 q 178 164 178 207 m 422 950 l 461 950 l 578 794 l 539 794 l 444 906 l 439 906 l 344 794 l 306 794 l 422 950 m 653 1036 l 706 1036 l 581 883 l 544 883 l 653 1036 z "},"ầ":{"ha":833,"x_min":133,"x_max":694,"o":"m 133 163 q 163 260 133 218 q 256 331 193 301 q 417 381 318 361 q 653 414 515 401 q 643 499 653 457 q 610 572 633 540 q 547 622 588 603 q 447 642 507 642 q 369 633 407 642 q 298 609 332 624 q 236 578 264 594 q 189 547 208 561 l 167 581 q 214 612 185 594 q 281 644 243 629 q 362 670 318 660 q 450 681 406 681 q 563 660 517 681 q 639 606 610 640 q 681 526 668 571 q 694 431 694 481 l 694 0 l 658 0 l 653 103 l 650 103 q 587 58 621 79 q 517 19 553 36 q 442 -7 481 3 q 367 -17 404 -17 q 281 -6 322 -17 q 206 26 239 4 q 153 81 174 47 q 133 163 133 115 m 178 164 q 194 98 178 125 q 238 54 211 71 q 299 30 265 38 q 369 22 333 22 q 653 150 501 22 l 653 378 q 427 347 518 365 q 281 301 336 328 q 201 241 225 275 q 178 164 178 207 m 422 950 l 461 950 l 578 794 l 539 794 l 444 906 l 439 906 l 344 794 l 306 794 l 422 950 m 667 883 l 631 883 l 506 1036 l 558 1036 l 667 883 z "},"ẩ":{"ha":833,"x_min":133,"x_max":694,"o":"m 133 163 q 163 260 133 218 q 256 331 193 301 q 417 381 318 361 q 653 414 515 401 q 643 499 653 457 q 610 572 633 540 q 547 622 588 603 q 447 642 507 642 q 369 633 407 642 q 298 609 332 624 q 236 578 264 594 q 189 547 208 561 l 167 581 q 214 612 185 594 q 281 644 243 629 q 362 670 318 660 q 450 681 406 681 q 563 660 517 681 q 639 606 610 640 q 681 526 668 571 q 694 431 694 481 l 694 0 l 658 0 l 653 103 l 650 103 q 587 58 621 79 q 517 19 553 36 q 442 -7 481 3 q 367 -17 404 -17 q 281 -6 322 -17 q 206 26 239 4 q 153 81 174 47 q 133 163 133 115 m 178 164 q 194 98 178 125 q 238 54 211 71 q 299 30 265 38 q 369 22 333 22 q 653 150 501 22 l 653 378 q 427 347 518 365 q 281 301 336 328 q 201 241 225 275 q 178 164 178 207 m 422 950 l 461 950 l 578 794 l 539 794 l 444 906 l 439 906 l 344 794 l 306 794 l 422 950 m 567 903 q 619 929 599 914 q 639 969 639 944 q 614 1018 639 1003 q 539 1036 589 1033 l 542 1069 q 594 1063 568 1068 q 638 1046 619 1057 q 669 1017 657 1035 q 681 975 681 1000 q 671 935 681 951 q 647 907 661 919 q 614 886 632 894 q 578 872 596 878 l 567 903 z "},"ẫ":{"ha":833,"x_min":133,"x_max":694,"o":"m 133 163 q 163 260 133 218 q 256 331 193 301 q 417 381 318 361 q 653 414 515 401 q 643 499 653 457 q 610 572 633 540 q 547 622 588 603 q 447 642 507 642 q 369 633 407 642 q 298 609 332 624 q 236 578 264 594 q 189 547 208 561 l 167 581 q 214 612 185 594 q 281 644 243 629 q 362 670 318 660 q 450 681 406 681 q 563 660 517 681 q 639 606 610 640 q 681 526 668 571 q 694 431 694 481 l 694 0 l 658 0 l 653 103 l 650 103 q 587 58 621 79 q 517 19 553 36 q 442 -7 481 3 q 367 -17 404 -17 q 281 -6 322 -17 q 206 26 239 4 q 153 81 174 47 q 133 163 133 115 m 178 164 q 194 98 178 125 q 238 54 211 71 q 299 30 265 38 q 369 22 333 22 q 653 150 501 22 l 653 378 q 427 347 518 365 q 281 301 336 328 q 201 241 225 275 q 178 164 178 207 m 422 928 l 461 928 l 589 792 l 550 792 l 444 889 l 439 889 l 333 792 l 294 792 l 422 928 m 278 978 q 285 1012 279 994 q 301 1044 290 1029 q 330 1068 313 1058 q 372 1078 347 1078 q 415 1068 397 1078 q 449 1046 433 1058 q 480 1024 465 1033 q 514 1014 494 1014 q 553 1030 538 1014 q 572 1078 568 1046 l 606 1078 q 599 1043 604 1061 q 582 1010 593 1025 q 553 987 571 996 q 511 978 536 978 q 468 988 486 978 q 434 1010 450 997 q 403 1032 418 1022 q 369 1042 388 1042 q 331 1026 346 1042 q 311 978 315 1010 l 278 978 z "},"ậ":{"ha":833,"x_min":133,"x_max":694,"o":"m 133 163 q 163 260 133 218 q 256 331 193 301 q 417 381 318 361 q 653 414 515 401 q 643 499 653 457 q 610 572 633 540 q 547 622 588 603 q 447 642 507 642 q 369 633 407 642 q 298 609 332 624 q 236 578 264 594 q 189 547 208 561 l 167 581 q 214 612 185 594 q 281 644 243 629 q 362 670 318 660 q 450 681 406 681 q 563 660 517 681 q 639 606 610 640 q 681 526 668 571 q 694 431 694 481 l 694 0 l 658 0 l 653 103 l 650 103 q 587 58 621 79 q 517 19 553 36 q 442 -7 481 3 q 367 -17 404 -17 q 281 -6 322 -17 q 206 26 239 4 q 153 81 174 47 q 133 163 133 115 m 178 164 q 194 98 178 125 q 238 54 211 71 q 299 30 265 38 q 369 22 333 22 q 653 150 501 22 l 653 378 q 427 347 518 365 q 281 301 336 328 q 201 241 225 275 q 178 164 178 207 m 422 981 l 461 981 l 592 794 l 553 794 l 444 936 l 439 936 l 331 794 l 292 794 l 422 981 m 415 -283 q 376 -268 392 -283 q 360 -225 360 -253 q 376 -182 360 -197 q 415 -167 392 -167 q 455 -182 439 -167 q 471 -225 471 -197 q 455 -268 471 -253 q 415 -283 439 -283 z "},"ắ":{"ha":833,"x_min":133,"x_max":694,"o":"m 133 163 q 163 260 133 218 q 256 331 193 301 q 417 381 318 361 q 653 414 515 401 q 643 499 653 457 q 610 572 633 540 q 547 622 588 603 q 447 642 507 642 q 369 633 407 642 q 298 609 332 624 q 236 578 264 594 q 189 547 208 561 l 167 581 q 214 612 185 594 q 281 644 243 629 q 362 670 318 660 q 450 681 406 681 q 563 660 517 681 q 639 606 610 640 q 681 526 668 571 q 694 431 694 481 l 694 0 l 658 0 l 653 103 l 650 103 q 587 58 621 79 q 517 19 553 36 q 442 -7 481 3 q 367 -17 404 -17 q 281 -6 322 -17 q 206 26 239 4 q 153 81 174 47 q 133 163 133 115 m 178 164 q 194 98 178 125 q 238 54 211 71 q 299 30 265 38 q 369 22 333 22 q 653 150 501 22 l 653 378 q 427 347 518 365 q 281 301 336 328 q 201 241 225 275 q 178 164 178 207 m 506 1072 l 558 1072 l 439 922 l 400 922 l 506 1072 m 442 800 q 371 816 400 800 q 323 856 342 832 q 294 908 304 879 q 281 961 283 936 l 317 961 q 328 915 319 938 q 353 876 338 893 q 390 847 368 858 q 442 836 413 836 q 493 847 471 836 q 531 876 515 858 q 555 915 546 893 q 567 961 564 938 l 603 961 q 590 908 600 936 q 560 856 579 879 q 513 816 542 832 q 442 800 483 800 z "},"ằ":{"ha":833,"x_min":133,"x_max":694,"o":"m 133 163 q 163 260 133 218 q 256 331 193 301 q 417 381 318 361 q 653 414 515 401 q 643 499 653 457 q 610 572 633 540 q 547 622 588 603 q 447 642 507 642 q 369 633 407 642 q 298 609 332 624 q 236 578 264 594 q 189 547 208 561 l 167 581 q 214 612 185 594 q 281 644 243 629 q 362 670 318 660 q 450 681 406 681 q 563 660 517 681 q 639 606 610 640 q 681 526 668 571 q 694 431 694 481 l 694 0 l 658 0 l 653 103 l 650 103 q 587 58 621 79 q 517 19 553 36 q 442 -7 481 3 q 367 -17 404 -17 q 281 -6 322 -17 q 206 26 239 4 q 153 81 174 47 q 133 163 133 115 m 178 164 q 194 98 178 125 q 238 54 211 71 q 299 30 265 38 q 369 22 333 22 q 653 150 501 22 l 653 378 q 427 347 518 365 q 281 301 336 328 q 201 241 225 275 q 178 164 178 207 m 483 922 l 444 922 l 325 1072 l 378 1072 l 483 922 m 442 800 q 371 816 400 800 q 323 856 342 832 q 294 908 304 879 q 281 961 283 936 l 317 961 q 328 915 319 938 q 353 876 338 893 q 390 847 368 858 q 442 836 413 836 q 493 847 471 836 q 531 876 515 858 q 555 915 546 893 q 567 961 564 938 l 603 961 q 590 908 600 936 q 560 856 579 879 q 513 816 542 832 q 442 800 483 800 z "},"ẳ":{"ha":833,"x_min":133,"x_max":694,"o":"m 133 163 q 163 260 133 218 q 256 331 193 301 q 417 381 318 361 q 653 414 515 401 q 643 499 653 457 q 610 572 633 540 q 547 622 588 603 q 447 642 507 642 q 369 633 407 642 q 298 609 332 624 q 236 578 264 594 q 189 547 208 561 l 167 581 q 214 612 185 594 q 281 644 243 629 q 362 670 318 660 q 450 681 406 681 q 563 660 517 681 q 639 606 610 640 q 681 526 668 571 q 694 431 694 481 l 694 0 l 658 0 l 653 103 l 650 103 q 587 58 621 79 q 517 19 553 36 q 442 -7 481 3 q 367 -17 404 -17 q 281 -6 322 -17 q 206 26 239 4 q 153 81 174 47 q 133 163 133 115 m 178 164 q 194 98 178 125 q 238 54 211 71 q 299 30 265 38 q 369 22 333 22 q 653 150 501 22 l 653 378 q 427 347 518 365 q 281 301 336 328 q 201 241 225 275 q 178 164 178 207 m 442 800 q 371 816 400 800 q 323 856 342 832 q 294 908 304 879 q 281 961 283 936 l 317 961 q 328 915 319 938 q 353 876 338 893 q 390 847 368 858 q 442 836 413 836 q 493 847 471 836 q 531 876 515 858 q 555 915 546 893 q 567 961 564 938 l 603 961 q 590 908 600 936 q 560 856 579 879 q 513 816 542 832 q 442 800 483 800 m 403 964 q 455 990 435 975 q 475 1031 475 1006 q 450 1079 475 1064 q 375 1097 425 1094 l 378 1131 q 430 1124 404 1129 q 474 1107 456 1118 q 505 1078 493 1096 q 517 1036 517 1061 q 507 997 517 1013 q 483 968 497 981 q 450 947 468 956 q 414 933 432 939 l 403 964 z "},"ẵ":{"ha":833,"x_min":133,"x_max":694,"o":"m 133 163 q 163 260 133 218 q 256 331 193 301 q 417 381 318 361 q 653 414 515 401 q 643 499 653 457 q 610 572 633 540 q 547 622 588 603 q 447 642 507 642 q 369 633 407 642 q 298 609 332 624 q 236 578 264 594 q 189 547 208 561 l 167 581 q 214 612 185 594 q 281 644 243 629 q 362 670 318 660 q 450 681 406 681 q 563 660 517 681 q 639 606 610 640 q 681 526 668 571 q 694 431 694 481 l 694 0 l 658 0 l 653 103 l 650 103 q 587 58 621 79 q 517 19 553 36 q 442 -7 481 3 q 367 -17 404 -17 q 281 -6 322 -17 q 206 26 239 4 q 153 81 174 47 q 133 163 133 115 m 178 164 q 194 98 178 125 q 238 54 211 71 q 299 30 265 38 q 369 22 333 22 q 653 150 501 22 l 653 378 q 427 347 518 365 q 281 301 336 328 q 201 241 225 275 q 178 164 178 207 m 442 800 q 372 813 400 800 q 324 844 343 825 q 296 886 306 863 q 283 933 286 910 l 319 933 q 356 866 326 896 q 442 836 385 836 q 528 866 499 836 q 564 933 557 896 l 600 933 q 588 886 597 910 q 559 844 578 863 q 512 813 540 825 q 442 800 483 800 m 278 978 q 285 1012 279 994 q 301 1044 290 1029 q 330 1068 313 1058 q 372 1078 347 1078 q 415 1068 397 1078 q 449 1046 433 1058 q 480 1024 465 1033 q 514 1014 494 1014 q 553 1030 538 1014 q 572 1078 568 1046 l 606 1078 q 599 1043 604 1061 q 582 1010 593 1025 q 553 987 571 996 q 511 978 536 978 q 468 988 486 978 q 434 1010 450 997 q 403 1032 418 1022 q 369 1042 388 1042 q 331 1026 346 1042 q 311 978 315 1010 l 278 978 z "},"ặ":{"ha":833,"x_min":133,"x_max":694,"o":"m 133 163 q 163 260 133 218 q 256 331 193 301 q 417 381 318 361 q 653 414 515 401 q 643 499 653 457 q 610 572 633 540 q 547 622 588 603 q 447 642 507 642 q 369 633 407 642 q 298 609 332 624 q 236 578 264 594 q 189 547 208 561 l 167 581 q 214 612 185 594 q 281 644 243 629 q 362 670 318 660 q 450 681 406 681 q 563 660 517 681 q 639 606 610 640 q 681 526 668 571 q 694 431 694 481 l 694 0 l 658 0 l 653 103 l 650 103 q 587 58 621 79 q 517 19 553 36 q 442 -7 481 3 q 367 -17 404 -17 q 281 -6 322 -17 q 206 26 239 4 q 153 81 174 47 q 133 163 133 115 m 178 164 q 194 98 178 125 q 238 54 211 71 q 299 30 265 38 q 369 22 333 22 q 653 150 501 22 l 653 378 q 427 347 518 365 q 281 301 336 328 q 201 241 225 275 q 178 164 178 207 m 442 800 q 371 816 400 800 q 323 856 342 832 q 294 908 304 879 q 281 961 283 936 l 317 961 q 328 915 319 938 q 353 876 338 893 q 390 847 368 858 q 442 836 413 836 q 493 847 471 836 q 531 876 515 858 q 555 915 546 893 q 567 961 564 938 l 603 961 q 590 908 600 936 q 560 856 579 879 q 513 816 542 832 q 442 800 483 800 m 415 -283 q 376 -268 392 -283 q 360 -225 360 -253 q 376 -182 360 -197 q 415 -167 392 -167 q 455 -182 439 -167 q 471 -225 471 -197 q 455 -268 471 -253 q 415 -283 439 -283 z "},"ą":{"ha":833,"x_min":133,"x_max":725,"o":"m 133 163 q 163 260 133 218 q 256 331 193 301 q 417 381 318 361 q 653 414 515 401 q 643 499 653 457 q 610 572 633 540 q 547 622 588 603 q 447 642 507 642 q 369 633 407 642 q 298 609 332 624 q 236 578 264 594 q 189 547 208 561 l 167 581 q 214 612 185 594 q 281 644 243 629 q 362 670 318 660 q 450 681 406 681 q 563 660 517 681 q 639 606 610 640 q 681 526 668 571 q 694 431 694 481 l 694 0 q 610 -74 644 -28 q 575 -167 575 -121 q 596 -223 575 -204 q 644 -242 617 -242 q 677 -237 664 -242 q 706 -222 690 -233 l 725 -250 q 686 -272 710 -262 q 642 -281 663 -281 q 565 -253 596 -281 q 533 -169 533 -226 q 569 -69 533 -117 q 658 11 606 -21 l 653 103 l 650 103 q 587 58 621 79 q 517 19 553 36 q 442 -7 481 3 q 367 -17 404 -17 q 281 -6 322 -17 q 206 26 239 4 q 153 81 174 47 q 133 163 133 115 m 178 164 q 194 98 178 125 q 238 54 211 71 q 299 30 265 38 q 369 22 333 22 q 653 150 501 22 l 653 378 q 427 347 518 365 q 281 301 336 328 q 201 241 225 275 q 178 164 178 207 z "},"æ":{"ha":833,"x_min":24,"x_max":833,"o":"m 24 169 q 117 328 24 265 q 394 414 211 390 q 387 505 394 463 q 362 578 379 547 q 315 626 344 608 q 242 643 285 643 q 195 638 219 643 q 148 622 171 632 q 104 601 125 613 q 69 579 83 590 l 50 611 q 134 656 81 632 q 254 681 188 681 q 369 633 325 681 q 428 517 413 586 q 513 636 460 592 q 639 681 567 681 q 726 657 689 681 q 786 594 763 633 q 822 501 810 554 q 833 392 833 449 q 833 365 833 379 q 831 331 833 351 l 438 331 q 449 208 438 264 q 486 110 461 151 q 550 44 511 68 q 642 21 589 21 q 728 36 690 21 q 796 69 767 51 l 814 39 q 742 1 783 19 q 640 -17 700 -17 q 518 21 568 -17 q 436 125 468 58 q 317 21 378 58 q 197 -17 256 -17 q 74 29 124 -17 q 24 169 24 75 m 792 367 q 784 472 792 422 q 758 560 776 522 q 710 619 740 597 q 636 642 681 642 q 495 567 547 642 q 439 367 443 492 l 792 367 m 68 167 q 104 58 68 94 q 201 21 140 21 q 310 57 250 21 q 419 161 369 93 q 401 244 408 199 q 394 339 394 289 l 394 378 q 144 301 219 351 q 68 167 68 251 z "},"ƀ":{"ha":833,"x_min":44,"x_max":736,"o":"m 194 128 q 321 47 257 71 q 428 22 385 22 q 533 45 485 22 q 617 108 582 68 q 672 205 653 149 q 692 328 692 261 q 678 440 692 388 q 636 531 665 493 q 561 592 607 569 q 450 614 515 614 q 328 582 394 614 q 194 483 261 550 l 194 128 m 192 531 q 317 619 247 585 q 453 653 386 653 q 577 630 524 653 q 666 565 631 607 q 719 462 701 522 q 736 328 736 401 q 710 182 736 246 q 642 74 685 118 q 544 7 600 31 q 425 -17 488 -17 q 311 8 374 -17 q 197 75 249 33 l 194 75 l 189 0 l 153 0 l 153 811 l 44 811 l 44 844 l 153 850 l 153 1003 l 194 1003 l 194 850 l 522 850 l 522 811 l 194 811 l 194 678 l 192 531 z "},"ç":{"ha":833,"x_min":125,"x_max":739,"o":"m 125 331 q 153 479 125 414 q 231 589 182 544 q 344 657 279 633 q 483 681 410 681 q 560 672 525 681 q 624 649 594 664 q 676 616 653 635 q 721 578 700 597 l 693 547 q 599 615 650 589 q 483 642 549 642 q 356 619 414 642 q 257 555 299 596 q 192 456 215 514 q 169 331 169 399 q 192 205 169 261 q 256 108 214 149 q 355 44 297 67 q 483 22 413 22 q 611 50 554 22 q 714 122 668 78 l 739 92 q 626 13 689 43 q 483 -17 563 -17 q 340 7 406 -17 q 227 75 275 31 q 152 184 179 119 q 125 331 125 249 m 471 3 l 510 3 l 468 -78 q 526 -110 501 -89 q 551 -172 551 -131 q 538 -218 551 -199 q 501 -251 524 -237 q 448 -274 478 -265 q 388 -286 418 -282 l 379 -250 q 474 -224 438 -242 q 510 -178 510 -207 q 483 -129 510 -144 q 415 -103 456 -114 l 471 3 z "},"ć":{"ha":833,"x_min":125,"x_max":739,"o":"m 125 331 q 153 479 125 414 q 231 589 182 544 q 344 657 279 633 q 483 681 410 681 q 560 672 525 681 q 624 649 594 664 q 676 616 653 635 q 721 578 700 597 l 693 547 q 599 615 650 589 q 483 642 549 642 q 356 619 414 642 q 257 555 299 596 q 192 456 215 514 q 169 331 169 399 q 192 205 169 261 q 256 108 214 149 q 355 44 297 67 q 483 22 413 22 q 611 50 554 22 q 714 122 668 78 l 739 92 q 626 13 689 43 q 483 -17 563 -17 q 340 7 406 -17 q 227 75 275 31 q 152 184 179 119 q 125 331 125 249 m 446 794 l 407 794 l 535 981 l 590 981 l 446 794 z "},"ĉ":{"ha":833,"x_min":125,"x_max":739,"o":"m 125 331 q 153 479 125 414 q 231 589 182 544 q 344 657 279 633 q 483 681 410 681 q 560 672 525 681 q 624 649 594 664 q 676 616 653 635 q 721 578 700 597 l 693 547 q 599 615 650 589 q 483 642 549 642 q 356 619 414 642 q 257 555 299 596 q 192 456 215 514 q 169 331 169 399 q 192 205 169 261 q 256 108 214 149 q 355 44 297 67 q 483 22 413 22 q 611 50 554 22 q 714 122 668 78 l 739 92 q 626 13 689 43 q 483 -17 563 -17 q 340 7 406 -17 q 227 75 275 31 q 152 184 179 119 q 125 331 125 249 m 460 981 l 499 981 l 629 794 l 590 794 l 482 936 l 476 936 l 368 794 l 329 794 l 460 981 z "},"č":{"ha":833,"x_min":125,"x_max":739,"o":"m 125 331 q 153 479 125 414 q 231 589 182 544 q 344 657 279 633 q 483 681 410 681 q 560 672 525 681 q 624 649 594 664 q 676 616 653 635 q 721 578 700 597 l 693 547 q 599 615 650 589 q 483 642 549 642 q 356 619 414 642 q 257 555 299 596 q 192 456 215 514 q 169 331 169 399 q 192 205 169 261 q 256 108 214 149 q 355 44 297 67 q 483 22 413 22 q 611 50 554 22 q 714 122 668 78 l 739 92 q 626 13 689 43 q 483 -17 563 -17 q 340 7 406 -17 q 227 75 275 31 q 152 184 179 119 q 125 331 125 249 m 329 981 l 368 981 l 476 839 l 482 839 l 590 981 l 629 981 l 499 794 l 460 794 l 329 981 z "},"ċ":{"ha":833,"x_min":125,"x_max":739,"o":"m 125 331 q 153 479 125 414 q 231 589 182 544 q 344 657 279 633 q 483 681 410 681 q 560 672 525 681 q 624 649 594 664 q 676 616 653 635 q 721 578 700 597 l 693 547 q 599 615 650 589 q 483 642 549 642 q 356 619 414 642 q 257 555 299 596 q 192 456 215 514 q 169 331 169 399 q 192 205 169 261 q 256 108 214 149 q 355 44 297 67 q 483 22 413 22 q 611 50 554 22 q 714 122 668 78 l 739 92 q 626 13 689 43 q 483 -17 563 -17 q 340 7 406 -17 q 227 75 275 31 q 152 184 179 119 q 125 331 125 249 m 479 833 q 440 849 456 833 q 424 892 424 864 q 440 935 424 919 q 479 950 456 950 q 519 935 503 950 q 535 892 535 919 q 519 849 535 864 q 479 833 503 833 z "},"ď":{"ha":833,"x_min":97,"x_max":788,"o":"m 97 331 q 123 476 97 411 q 192 586 149 540 q 294 656 236 632 q 414 681 351 681 q 533 655 479 681 q 642 583 586 629 l 639 722 l 639 1003 l 681 1003 l 681 0 l 644 0 l 639 103 l 636 103 q 528 19 592 56 q 392 -17 465 -17 q 272 6 326 -17 q 179 73 218 29 q 119 181 140 117 q 97 331 97 246 m 142 331 q 159 205 142 261 q 209 108 176 149 q 288 44 242 67 q 394 22 335 22 q 518 56 457 22 q 639 153 579 90 l 639 536 q 522 618 578 594 q 411 642 467 642 q 306 617 354 642 q 220 551 257 593 q 163 451 183 508 q 142 331 142 394 m 749 761 l 746 1044 l 788 1044 l 788 978 l 779 761 l 749 761 z "},"ḍ":{"ha":833,"x_min":97,"x_max":681,"o":"m 97 331 q 123 476 97 411 q 192 586 149 540 q 294 656 236 632 q 414 681 351 681 q 533 655 479 681 q 642 583 586 629 l 639 722 l 639 1003 l 681 1003 l 681 0 l 644 0 l 639 103 l 636 103 q 528 19 592 56 q 392 -17 465 -17 q 272 6 326 -17 q 179 73 218 29 q 119 181 140 117 q 97 331 97 246 m 142 331 q 159 205 142 261 q 209 108 176 149 q 288 44 242 67 q 394 22 335 22 q 518 56 457 22 q 639 153 579 90 l 639 536 q 522 618 578 594 q 411 642 467 642 q 306 617 354 642 q 220 551 257 593 q 163 451 183 508 q 142 331 142 394 m 422 -283 q 383 -268 399 -283 q 367 -225 367 -253 q 383 -182 367 -197 q 422 -167 399 -167 q 462 -182 446 -167 q 478 -225 478 -197 q 462 -268 478 -253 q 422 -283 446 -283 z "},"ḏ":{"ha":833,"x_min":97,"x_max":681,"o":"m 97 331 q 123 476 97 411 q 192 586 149 540 q 294 656 236 632 q 414 681 351 681 q 533 655 479 681 q 642 583 586 629 l 639 722 l 639 1003 l 681 1003 l 681 0 l 644 0 l 639 103 l 636 103 q 528 19 592 56 q 392 -17 465 -17 q 272 6 326 -17 q 179 73 218 29 q 119 181 140 117 q 97 331 97 246 m 142 331 q 159 205 142 261 q 209 108 176 149 q 288 44 242 67 q 394 22 335 22 q 518 56 457 22 q 639 153 579 90 l 639 536 q 522 618 578 594 q 411 642 467 642 q 306 617 354 642 q 220 551 257 593 q 163 451 183 508 q 142 331 142 394 m 575 -217 l 267 -217 l 267 -178 l 575 -178 l 575 -217 z "},"đ":{"ha":833,"x_min":97,"x_max":786,"o":"m 639 508 q 522 590 578 567 q 411 614 467 614 q 306 590 354 614 q 220 526 257 567 q 163 432 183 486 q 142 317 142 378 q 159 197 142 251 q 209 104 176 143 q 288 44 242 65 q 394 22 335 22 q 518 56 457 22 q 639 153 579 90 l 639 508 m 786 850 l 786 817 l 681 811 l 681 0 l 644 0 l 639 103 l 636 103 q 528 19 592 56 q 392 -17 465 -17 q 272 5 326 -17 q 179 69 218 26 q 119 173 140 111 q 97 317 97 235 q 123 456 97 393 q 192 562 149 518 q 294 629 236 606 q 414 653 351 653 q 533 627 479 653 q 642 556 586 601 l 639 694 l 639 811 l 378 811 l 378 850 l 639 850 l 639 1003 l 681 1003 l 681 850 l 786 850 z "},"è":{"ha":833,"x_min":111,"x_max":736,"o":"m 111 331 q 139 476 111 411 q 213 587 167 542 q 319 656 260 632 q 442 681 379 681 q 563 660 508 681 q 656 599 617 639 q 715 503 694 560 q 736 375 736 447 q 736 353 736 364 q 733 331 736 343 l 156 331 q 178 208 156 264 q 240 110 200 151 q 335 45 279 68 q 461 22 392 22 q 586 43 531 22 q 689 97 642 64 l 708 61 q 662 33 686 47 q 607 8 638 19 q 540 -10 576 -3 q 458 -17 504 -17 q 324 7 388 -17 q 214 76 261 31 q 139 185 167 121 q 111 331 111 249 m 694 369 q 624 574 694 506 q 442 642 554 642 q 340 622 389 642 q 253 567 292 603 q 189 482 215 532 q 156 369 163 432 l 694 369 m 328 981 l 383 981 l 511 794 l 472 794 l 328 981 z "},"é":{"ha":833,"x_min":111,"x_max":736,"o":"m 111 331 q 139 476 111 411 q 213 587 167 542 q 319 656 260 632 q 442 681 379 681 q 563 660 508 681 q 656 599 617 639 q 715 503 694 560 q 736 375 736 447 q 736 353 736 364 q 733 331 736 343 l 156 331 q 178 208 156 264 q 240 110 200 151 q 335 45 279 68 q 461 22 392 22 q 586 43 531 22 q 689 97 642 64 l 708 61 q 662 33 686 47 q 607 8 638 19 q 540 -10 576 -3 q 458 -17 504 -17 q 324 7 388 -17 q 214 76 261 31 q 139 185 167 121 q 111 331 111 249 m 694 369 q 624 574 694 506 q 442 642 554 642 q 340 622 389 642 q 253 567 292 603 q 189 482 215 532 q 156 369 163 432 l 694 369 m 406 794 l 367 794 l 494 981 l 550 981 l 406 794 z "},"ê":{"ha":833,"x_min":111,"x_max":736,"o":"m 111 331 q 139 476 111 411 q 213 587 167 542 q 319 656 260 632 q 442 681 379 681 q 563 660 508 681 q 656 599 617 639 q 715 503 694 560 q 736 375 736 447 q 736 353 736 364 q 733 331 736 343 l 156 331 q 178 208 156 264 q 240 110 200 151 q 335 45 279 68 q 461 22 392 22 q 586 43 531 22 q 689 97 642 64 l 708 61 q 662 33 686 47 q 607 8 638 19 q 540 -10 576 -3 q 458 -17 504 -17 q 324 7 388 -17 q 214 76 261 31 q 139 185 167 121 q 111 331 111 249 m 694 369 q 624 574 694 506 q 442 642 554 642 q 340 622 389 642 q 253 567 292 603 q 189 482 215 532 q 156 369 163 432 l 694 369 m 419 981 l 458 981 l 589 794 l 550 794 l 442 936 l 436 936 l 328 794 l 289 794 l 419 981 z "},"ě":{"ha":833,"x_min":111,"x_max":736,"o":"m 111 331 q 139 476 111 411 q 213 587 167 542 q 319 656 260 632 q 442 681 379 681 q 563 660 508 681 q 656 599 617 639 q 715 503 694 560 q 736 375 736 447 q 736 353 736 364 q 733 331 736 343 l 156 331 q 178 208 156 264 q 240 110 200 151 q 335 45 279 68 q 461 22 392 22 q 586 43 531 22 q 689 97 642 64 l 708 61 q 662 33 686 47 q 607 8 638 19 q 540 -10 576 -3 q 458 -17 504 -17 q 324 7 388 -17 q 214 76 261 31 q 139 185 167 121 q 111 331 111 249 m 694 369 q 624 574 694 506 q 442 642 554 642 q 340 622 389 642 q 253 567 292 603 q 189 482 215 532 q 156 369 163 432 l 694 369 m 289 981 l 328 981 l 436 839 l 442 839 l 550 981 l 589 981 l 458 794 l 419 794 l 289 981 z "},"ë":{"ha":833,"x_min":111,"x_max":736,"o":"m 111 331 q 139 476 111 411 q 213 587 167 542 q 319 656 260 632 q 442 681 379 681 q 563 660 508 681 q 656 599 617 639 q 715 503 694 560 q 736 375 736 447 q 736 353 736 364 q 733 331 736 343 l 156 331 q 178 208 156 264 q 240 110 200 151 q 335 45 279 68 q 461 22 392 22 q 586 43 531 22 q 689 97 642 64 l 708 61 q 662 33 686 47 q 607 8 638 19 q 540 -10 576 -3 q 458 -17 504 -17 q 324 7 388 -17 q 214 76 261 31 q 139 185 167 121 q 111 331 111 249 m 694 369 q 624 574 694 506 q 442 642 554 642 q 340 622 389 642 q 253 567 292 603 q 189 482 215 532 q 156 369 163 432 l 694 369 m 321 836 q 287 851 300 836 q 274 886 274 865 q 287 922 274 907 q 321 936 300 936 q 355 922 342 936 q 368 886 368 907 q 355 851 368 865 q 321 836 342 836 m 560 836 q 526 851 539 836 q 513 886 513 865 q 526 922 513 907 q 560 936 539 936 q 594 922 581 936 q 607 886 607 907 q 594 851 607 865 q 560 836 581 836 z "},"ē":{"ha":833,"x_min":111,"x_max":736,"o":"m 111 331 q 139 476 111 411 q 213 587 167 542 q 319 656 260 632 q 442 681 379 681 q 563 660 508 681 q 656 599 617 639 q 715 503 694 560 q 736 375 736 447 q 736 353 736 364 q 733 331 736 343 l 156 331 q 178 208 156 264 q 240 110 200 151 q 335 45 279 68 q 461 22 392 22 q 586 43 531 22 q 689 97 642 64 l 708 61 q 662 33 686 47 q 607 8 638 19 q 540 -10 576 -3 q 458 -17 504 -17 q 324 7 388 -17 q 214 76 261 31 q 139 185 167 121 q 111 331 111 249 m 694 369 q 624 574 694 506 q 442 642 554 642 q 340 622 389 642 q 253 567 292 603 q 189 482 215 532 q 156 369 163 432 l 694 369 m 286 883 l 592 883 l 592 844 l 286 844 l 286 883 z "},"ĕ":{"ha":833,"x_min":111,"x_max":736,"o":"m 111 331 q 139 476 111 411 q 213 587 167 542 q 319 656 260 632 q 442 681 379 681 q 563 660 508 681 q 656 599 617 639 q 715 503 694 560 q 736 375 736 447 q 736 353 736 364 q 733 331 736 343 l 156 331 q 178 208 156 264 q 240 110 200 151 q 335 45 279 68 q 461 22 392 22 q 586 43 531 22 q 689 97 642 64 l 708 61 q 662 33 686 47 q 607 8 638 19 q 540 -10 576 -3 q 458 -17 504 -17 q 324 7 388 -17 q 214 76 261 31 q 139 185 167 121 q 111 331 111 249 m 694 369 q 624 574 694 506 q 442 642 554 642 q 340 622 389 642 q 253 567 292 603 q 189 482 215 532 q 156 369 163 432 l 694 369 m 439 800 q 368 816 397 800 q 320 856 339 832 q 291 908 301 879 q 278 961 281 936 l 314 961 q 326 915 317 938 q 350 876 335 893 q 388 847 365 858 q 439 836 410 836 q 490 847 468 836 q 528 876 513 858 q 552 915 543 893 q 564 961 561 938 l 600 961 q 587 908 597 936 q 558 856 576 879 q 510 816 539 832 q 439 800 481 800 z "},"ė":{"ha":833,"x_min":111,"x_max":736,"o":"m 111 331 q 139 476 111 411 q 213 587 167 542 q 319 656 260 632 q 442 681 379 681 q 563 660 508 681 q 656 599 617 639 q 715 503 694 560 q 736 375 736 447 q 736 353 736 364 q 733 331 736 343 l 156 331 q 178 208 156 264 q 240 110 200 151 q 335 45 279 68 q 461 22 392 22 q 586 43 531 22 q 689 97 642 64 l 708 61 q 662 33 686 47 q 607 8 638 19 q 540 -10 576 -3 q 458 -17 504 -17 q 324 7 388 -17 q 214 76 261 31 q 139 185 167 121 q 111 331 111 249 m 694 369 q 624 574 694 506 q 442 642 554 642 q 340 622 389 642 q 253 567 292 603 q 189 482 215 532 q 156 369 163 432 l 694 369 m 439 833 q 399 849 415 833 q 383 892 383 864 q 399 935 383 919 q 439 950 415 950 q 478 935 463 950 q 494 892 494 919 q 478 849 494 864 q 439 833 463 833 z "},"ẹ":{"ha":833,"x_min":111,"x_max":736,"o":"m 111 331 q 139 476 111 411 q 213 587 167 542 q 319 656 260 632 q 442 681 379 681 q 563 660 508 681 q 656 599 617 639 q 715 503 694 560 q 736 375 736 447 q 736 353 736 364 q 733 331 736 343 l 156 331 q 178 208 156 264 q 240 110 200 151 q 335 45 279 68 q 461 22 392 22 q 586 43 531 22 q 689 97 642 64 l 708 61 q 662 33 686 47 q 607 8 638 19 q 540 -10 576 -3 q 458 -17 504 -17 q 324 7 388 -17 q 214 76 261 31 q 139 185 167 121 q 111 331 111 249 m 694 369 q 624 574 694 506 q 442 642 554 642 q 340 622 389 642 q 253 567 292 603 q 189 482 215 532 q 156 369 163 432 l 694 369 m 439 -283 q 399 -268 415 -283 q 383 -225 383 -253 q 399 -182 383 -197 q 439 -167 415 -167 q 478 -182 463 -167 q 494 -225 494 -197 q 478 -268 494 -253 q 439 -283 463 -283 z "},"ẻ":{"ha":833,"x_min":111,"x_max":736,"o":"m 111 331 q 139 476 111 411 q 213 587 167 542 q 319 656 260 632 q 442 681 379 681 q 563 660 508 681 q 656 599 617 639 q 715 503 694 560 q 736 375 736 447 q 736 353 736 364 q 733 331 736 343 l 156 331 q 178 208 156 264 q 240 110 200 151 q 335 45 279 68 q 461 22 392 22 q 586 43 531 22 q 689 97 642 64 l 708 61 q 662 33 686 47 q 607 8 638 19 q 540 -10 576 -3 q 458 -17 504 -17 q 324 7 388 -17 q 214 76 261 31 q 139 185 167 121 q 111 331 111 249 m 694 369 q 624 574 694 506 q 442 642 554 642 q 340 622 389 642 q 253 567 292 603 q 189 482 215 532 q 156 369 163 432 l 694 369 m 397 794 q 463 825 438 807 q 489 875 489 843 q 458 925 489 908 q 369 944 426 942 l 372 981 q 431 974 403 979 q 482 956 460 968 q 517 925 504 943 q 531 881 531 907 q 520 835 531 854 q 492 803 510 817 q 453 781 475 790 q 408 764 431 771 l 397 794 z "},"ẽ":{"ha":833,"x_min":111,"x_max":736,"o":"m 111 331 q 139 476 111 411 q 213 587 167 542 q 319 656 260 632 q 442 681 379 681 q 563 660 508 681 q 656 599 617 639 q 715 503 694 560 q 736 375 736 447 q 736 353 736 364 q 733 331 736 343 l 156 331 q 178 208 156 264 q 240 110 200 151 q 335 45 279 68 q 461 22 392 22 q 586 43 531 22 q 689 97 642 64 l 708 61 q 662 33 686 47 q 607 8 638 19 q 540 -10 576 -3 q 458 -17 504 -17 q 324 7 388 -17 q 214 76 261 31 q 139 185 167 121 q 111 331 111 249 m 694 369 q 624 574 694 506 q 442 642 554 642 q 340 622 389 642 q 253 567 292 603 q 189 482 215 532 q 156 369 163 432 l 694 369 m 275 808 q 281 847 276 826 q 297 883 286 867 q 323 911 307 900 q 364 922 339 922 q 409 910 389 922 q 447 883 429 897 q 482 856 465 868 q 517 844 499 844 q 553 865 540 844 q 569 922 565 886 l 603 922 q 597 884 601 904 q 581 847 592 864 q 555 819 571 831 q 514 808 539 808 q 469 820 489 808 q 432 847 450 832 q 397 874 414 861 q 361 886 381 886 q 325 865 338 886 q 308 808 313 844 l 275 808 l 275 808 z "},"ế":{"ha":833,"x_min":111,"x_max":736,"o":"m 111 331 q 139 476 111 411 q 213 587 167 542 q 319 656 260 632 q 442 681 379 681 q 563 660 508 681 q 656 599 617 639 q 715 503 694 560 q 736 375 736 447 q 736 353 736 364 q 733 331 736 343 l 156 331 q 178 208 156 264 q 240 110 200 151 q 335 45 279 68 q 461 22 392 22 q 586 43 531 22 q 689 97 642 64 l 708 61 q 662 33 686 47 q 607 8 638 19 q 540 -10 576 -3 q 458 -17 504 -17 q 324 7 388 -17 q 214 76 261 31 q 139 185 167 121 q 111 331 111 249 m 694 369 q 624 574 694 506 q 442 642 554 642 q 340 622 389 642 q 253 567 292 603 q 189 482 215 532 q 156 369 163 432 l 694 369 m 419 950 l 458 950 l 575 794 l 536 794 l 442 906 l 436 906 l 342 794 l 303 794 l 419 950 m 650 1036 l 703 1036 l 578 883 l 542 883 l 650 1036 z "},"ề":{"ha":833,"x_min":111,"x_max":736,"o":"m 111 331 q 139 476 111 411 q 213 587 167 542 q 319 656 260 632 q 442 681 379 681 q 563 660 508 681 q 656 599 617 639 q 715 503 694 560 q 736 375 736 447 q 736 353 736 364 q 733 331 736 343 l 156 331 q 178 208 156 264 q 240 110 200 151 q 335 45 279 68 q 461 22 392 22 q 586 43 531 22 q 689 97 642 64 l 708 61 q 662 33 686 47 q 607 8 638 19 q 540 -10 576 -3 q 458 -17 504 -17 q 324 7 388 -17 q 214 76 261 31 q 139 185 167 121 q 111 331 111 249 m 694 369 q 624 574 694 506 q 442 642 554 642 q 340 622 389 642 q 253 567 292 603 q 189 482 215 532 q 156 369 163 432 l 694 369 m 419 950 l 458 950 l 575 794 l 536 794 l 442 906 l 436 906 l 342 794 l 303 794 l 419 950 m 664 883 l 628 883 l 503 1036 l 556 1036 l 664 883 z "},"ể":{"ha":833,"x_min":111,"x_max":736,"o":"m 111 331 q 139 476 111 411 q 213 587 167 542 q 319 656 260 632 q 442 681 379 681 q 563 660 508 681 q 656 599 617 639 q 715 503 694 560 q 736 375 736 447 q 736 353 736 364 q 733 331 736 343 l 156 331 q 178 208 156 264 q 240 110 200 151 q 335 45 279 68 q 461 22 392 22 q 586 43 531 22 q 689 97 642 64 l 708 61 q 662 33 686 47 q 607 8 638 19 q 540 -10 576 -3 q 458 -17 504 -17 q 324 7 388 -17 q 214 76 261 31 q 139 185 167 121 q 111 331 111 249 m 694 369 q 624 574 694 506 q 442 642 554 642 q 340 622 389 642 q 253 567 292 603 q 189 482 215 532 q 156 369 163 432 l 694 369 m 419 950 l 458 950 l 575 794 l 536 794 l 442 906 l 436 906 l 342 794 l 303 794 l 419 950 m 564 903 q 616 929 596 914 q 636 969 636 944 q 611 1018 636 1003 q 536 1036 586 1033 l 539 1069 q 591 1063 565 1068 q 635 1046 617 1057 q 666 1017 654 1035 q 678 975 678 1000 q 668 935 678 951 q 644 907 658 919 q 611 886 629 894 q 575 872 593 878 l 564 903 z "},"ễ":{"ha":833,"x_min":111,"x_max":736,"o":"m 111 331 q 139 476 111 411 q 213 587 167 542 q 319 656 260 632 q 442 681 379 681 q 563 660 508 681 q 656 599 617 639 q 715 503 694 560 q 736 375 736 447 q 736 353 736 364 q 733 331 736 343 l 156 331 q 178 208 156 264 q 240 110 200 151 q 335 45 279 68 q 461 22 392 22 q 586 43 531 22 q 689 97 642 64 l 708 61 q 662 33 686 47 q 607 8 638 19 q 540 -10 576 -3 q 458 -17 504 -17 q 324 7 388 -17 q 214 76 261 31 q 139 185 167 121 q 111 331 111 249 m 694 369 q 624 574 694 506 q 442 642 554 642 q 340 622 389 642 q 253 567 292 603 q 189 482 215 532 q 156 369 163 432 l 694 369 m 419 928 l 458 928 l 586 792 l 547 792 l 442 889 l 436 889 l 331 792 l 292 792 l 419 928 m 275 978 q 282 1012 276 994 q 299 1044 288 1029 q 327 1068 310 1058 q 369 1078 344 1078 q 413 1068 394 1078 q 447 1046 431 1058 q 477 1024 463 1033 q 511 1014 492 1014 q 550 1030 535 1014 q 569 1078 565 1046 l 603 1078 q 596 1043 601 1061 q 579 1010 590 1025 q 551 987 568 996 q 508 978 533 978 q 465 988 483 978 q 431 1010 447 997 q 400 1032 415 1022 q 367 1042 385 1042 q 328 1026 343 1042 q 308 978 313 1010 l 275 978 z "},"ệ":{"ha":833,"x_min":111,"x_max":736,"o":"m 111 331 q 139 476 111 411 q 213 587 167 542 q 319 656 260 632 q 442 681 379 681 q 563 660 508 681 q 656 599 617 639 q 715 503 694 560 q 736 375 736 447 q 736 353 736 364 q 733 331 736 343 l 156 331 q 178 208 156 264 q 240 110 200 151 q 335 45 279 68 q 461 22 392 22 q 586 43 531 22 q 689 97 642 64 l 708 61 q 662 33 686 47 q 607 8 638 19 q 540 -10 576 -3 q 458 -17 504 -17 q 324 7 388 -17 q 214 76 261 31 q 139 185 167 121 q 111 331 111 249 m 694 369 q 624 574 694 506 q 442 642 554 642 q 340 622 389 642 q 253 567 292 603 q 189 482 215 532 q 156 369 163 432 l 694 369 m 419 981 l 458 981 l 589 794 l 550 794 l 442 936 l 436 936 l 328 794 l 289 794 l 419 981 m 439 -283 q 399 -268 415 -283 q 383 -225 383 -253 q 399 -182 383 -197 q 439 -167 415 -167 q 478 -182 463 -167 q 494 -225 494 -197 q 478 -268 494 -253 q 439 -283 463 -283 z "},"ę":{"ha":833,"x_min":111,"x_max":736,"o":"m 708 61 q 626 -6 660 25 q 573 -64 593 -36 q 544 -117 553 -92 q 536 -167 536 -142 q 557 -223 536 -204 q 606 -242 578 -242 q 638 -237 625 -242 q 667 -222 651 -233 l 686 -250 q 647 -272 671 -262 q 603 -281 624 -281 q 526 -253 557 -281 q 494 -169 494 -226 q 504 -115 494 -142 q 529 -66 514 -89 q 563 -24 544 -43 q 597 8 581 -6 q 527 -12 560 -8 q 458 -17 494 -17 q 324 7 388 -17 q 214 76 261 31 q 139 185 167 121 q 111 331 111 249 q 139 476 111 411 q 213 587 167 542 q 319 656 260 632 q 442 681 379 681 q 563 660 508 681 q 656 599 617 639 q 715 503 694 560 q 736 375 736 447 q 736 353 736 364 q 733 331 736 343 l 156 331 q 178 208 156 264 q 240 110 200 151 q 335 45 279 68 q 461 22 392 22 q 586 43 531 22 q 689 97 642 64 l 708 61 m 694 369 q 624 574 694 506 q 442 642 554 642 q 340 622 389 642 q 253 567 292 603 q 189 482 215 532 q 156 369 163 432 l 694 369 z "},"ĝ":{"ha":833,"x_min":122,"x_max":778,"o":"m 167 -135 q 230 -242 167 -199 q 425 -286 293 -286 q 555 -270 497 -286 q 652 -228 613 -254 q 713 -169 692 -201 q 733 -103 733 -136 q 688 -20 733 -43 q 551 3 643 3 l 383 3 q 333 6 360 3 q 282 15 306 8 q 192 -58 217 -19 q 167 -135 167 -96 m 122 -129 q 152 -47 122 -90 q 236 31 182 -4 l 236 36 q 189 74 211 47 q 167 142 167 100 q 187 206 167 174 q 247 267 207 239 l 247 272 q 192 342 215 300 q 169 444 169 383 q 188 538 169 494 q 240 613 207 581 q 317 663 274 644 q 411 681 361 681 q 500 664 463 681 l 778 664 l 778 625 l 567 625 q 626 548 600 593 q 653 444 653 503 q 634 351 653 394 q 582 277 615 308 q 505 228 549 246 q 411 211 461 211 q 346 219 379 211 q 281 244 313 228 q 230 199 249 225 q 211 146 211 174 q 255 71 211 94 q 369 47 299 47 l 540 47 q 722 13 667 47 q 778 -100 778 -21 q 753 -182 778 -142 q 685 -254 729 -222 q 576 -306 640 -286 q 433 -325 513 -325 q 199 -270 275 -325 q 122 -129 122 -215 m 411 250 q 488 265 451 250 q 551 305 524 279 q 593 366 578 331 q 608 444 608 401 q 593 524 608 488 q 551 586 578 560 q 488 627 524 613 q 411 642 451 642 q 335 627 371 642 q 272 586 299 613 q 229 524 244 560 q 214 444 214 488 q 229 366 214 401 q 272 305 244 331 q 335 265 299 279 q 411 250 371 250 m 411 981 l 450 981 l 581 794 l 542 794 l 433 936 l 428 936 l 319 794 l 281 794 l 411 981 z "},"ğ":{"ha":833,"x_min":122,"x_max":778,"o":"m 167 -135 q 230 -242 167 -199 q 425 -286 293 -286 q 555 -270 497 -286 q 652 -228 613 -254 q 713 -169 692 -201 q 733 -103 733 -136 q 688 -20 733 -43 q 551 3 643 3 l 383 3 q 333 6 360 3 q 282 15 306 8 q 192 -58 217 -19 q 167 -135 167 -96 m 122 -129 q 152 -47 122 -90 q 236 31 182 -4 l 236 36 q 189 74 211 47 q 167 142 167 100 q 187 206 167 174 q 247 267 207 239 l 247 272 q 192 342 215 300 q 169 444 169 383 q 188 538 169 494 q 240 613 207 581 q 317 663 274 644 q 411 681 361 681 q 500 664 463 681 l 778 664 l 778 625 l 567 625 q 626 548 600 593 q 653 444 653 503 q 634 351 653 394 q 582 277 615 308 q 505 228 549 246 q 411 211 461 211 q 346 219 379 211 q 281 244 313 228 q 230 199 249 225 q 211 146 211 174 q 255 71 211 94 q 369 47 299 47 l 540 47 q 722 13 667 47 q 778 -100 778 -21 q 753 -182 778 -142 q 685 -254 729 -222 q 576 -306 640 -286 q 433 -325 513 -325 q 199 -270 275 -325 q 122 -129 122 -215 m 411 250 q 488 265 451 250 q 551 305 524 279 q 593 366 578 331 q 608 444 608 401 q 593 524 608 488 q 551 586 578 560 q 488 627 524 613 q 411 642 451 642 q 335 627 371 642 q 272 586 299 613 q 229 524 244 560 q 214 444 214 488 q 229 366 214 401 q 272 305 244 331 q 335 265 299 279 q 411 250 371 250 m 431 800 q 360 816 389 800 q 312 856 331 832 q 283 908 293 879 q 269 961 272 936 l 306 961 q 317 915 308 938 q 342 876 326 893 q 379 847 357 858 q 431 836 401 836 q 482 847 460 836 q 519 876 504 858 q 544 915 535 893 q 556 961 553 938 l 592 961 q 578 908 589 936 q 549 856 568 879 q 501 816 531 832 q 431 800 472 800 z "},"ġ":{"ha":833,"x_min":122,"x_max":778,"o":"m 167 -135 q 230 -242 167 -199 q 425 -286 293 -286 q 555 -270 497 -286 q 652 -228 613 -254 q 713 -169 692 -201 q 733 -103 733 -136 q 688 -20 733 -43 q 551 3 643 3 l 383 3 q 333 6 360 3 q 282 15 306 8 q 192 -58 217 -19 q 167 -135 167 -96 m 122 -129 q 152 -47 122 -90 q 236 31 182 -4 l 236 36 q 189 74 211 47 q 167 142 167 100 q 187 206 167 174 q 247 267 207 239 l 247 272 q 192 342 215 300 q 169 444 169 383 q 188 538 169 494 q 240 613 207 581 q 317 663 274 644 q 411 681 361 681 q 500 664 463 681 l 778 664 l 778 625 l 567 625 q 626 548 600 593 q 653 444 653 503 q 634 351 653 394 q 582 277 615 308 q 505 228 549 246 q 411 211 461 211 q 346 219 379 211 q 281 244 313 228 q 230 199 249 225 q 211 146 211 174 q 255 71 211 94 q 369 47 299 47 l 540 47 q 722 13 667 47 q 778 -100 778 -21 q 753 -182 778 -142 q 685 -254 729 -222 q 576 -306 640 -286 q 433 -325 513 -325 q 199 -270 275 -325 q 122 -129 122 -215 m 411 250 q 488 265 451 250 q 551 305 524 279 q 593 366 578 331 q 608 444 608 401 q 593 524 608 488 q 551 586 578 560 q 488 627 524 613 q 411 642 451 642 q 335 627 371 642 q 272 586 299 613 q 229 524 244 560 q 214 444 214 488 q 229 366 214 401 q 272 305 244 331 q 335 265 299 279 q 411 250 371 250 m 431 833 q 391 849 407 833 q 375 892 375 864 q 391 935 375 919 q 431 950 407 950 q 470 935 454 950 q 486 892 486 919 q 470 849 486 864 q 431 833 454 833 z "},"ģ":{"ha":833,"x_min":122,"x_max":778,"o":"m 167 -135 q 230 -242 167 -199 q 425 -286 293 -286 q 555 -270 497 -286 q 652 -228 613 -254 q 713 -169 692 -201 q 733 -103 733 -136 q 688 -20 733 -43 q 551 3 643 3 l 383 3 q 333 6 360 3 q 282 15 306 8 q 192 -58 217 -19 q 167 -135 167 -96 m 122 -129 q 152 -47 122 -90 q 236 31 182 -4 l 236 36 q 189 74 211 47 q 167 142 167 100 q 187 206 167 174 q 247 267 207 239 l 247 272 q 192 342 215 300 q 169 444 169 383 q 188 538 169 494 q 240 613 207 581 q 317 663 274 644 q 411 681 361 681 q 500 664 463 681 l 778 664 l 778 625 l 567 625 q 626 548 600 593 q 653 444 653 503 q 634 351 653 394 q 582 277 615 308 q 505 228 549 246 q 411 211 461 211 q 346 219 379 211 q 281 244 313 228 q 230 199 249 225 q 211 146 211 174 q 255 71 211 94 q 369 47 299 47 l 540 47 q 722 13 667 47 q 778 -100 778 -21 q 753 -182 778 -142 q 685 -254 729 -222 q 576 -306 640 -286 q 433 -325 513 -325 q 199 -270 275 -325 q 122 -129 122 -215 m 411 250 q 488 265 451 250 q 551 305 524 279 q 593 366 578 331 q 608 444 608 401 q 593 524 608 488 q 551 586 578 560 q 488 627 524 613 q 411 642 451 642 q 335 627 371 642 q 272 586 299 613 q 229 524 244 560 q 214 444 214 488 q 229 366 214 401 q 272 305 244 331 q 335 265 299 279 q 411 250 371 250 m 461 747 q 381 783 408 760 q 353 847 353 806 q 367 893 353 874 q 403 926 381 913 q 456 949 426 940 q 517 961 485 957 l 525 925 q 431 899 467 917 q 394 853 394 882 q 420 805 394 819 q 475 783 446 790 l 461 747 l 461 747 z "},"ǧ":{"ha":833,"x_min":122,"x_max":778,"o":"m 167 -135 q 230 -242 167 -199 q 425 -286 293 -286 q 555 -270 497 -286 q 652 -228 613 -254 q 713 -169 692 -201 q 733 -103 733 -136 q 688 -20 733 -43 q 551 3 643 3 l 383 3 q 333 6 360 3 q 282 15 306 8 q 192 -58 217 -19 q 167 -135 167 -96 m 122 -129 q 152 -47 122 -90 q 236 31 182 -4 l 236 36 q 189 74 211 47 q 167 142 167 100 q 187 206 167 174 q 247 267 207 239 l 247 272 q 192 342 215 300 q 169 444 169 383 q 188 538 169 494 q 240 613 207 581 q 317 663 274 644 q 411 681 361 681 q 500 664 463 681 l 778 664 l 778 625 l 567 625 q 626 548 600 593 q 653 444 653 503 q 634 351 653 394 q 582 277 615 308 q 505 228 549 246 q 411 211 461 211 q 346 219 379 211 q 281 244 313 228 q 230 199 249 225 q 211 146 211 174 q 255 71 211 94 q 369 47 299 47 l 540 47 q 722 13 667 47 q 778 -100 778 -21 q 753 -182 778 -142 q 685 -254 729 -222 q 576 -306 640 -286 q 433 -325 513 -325 q 199 -270 275 -325 q 122 -129 122 -215 m 411 250 q 488 265 451 250 q 551 305 524 279 q 593 366 578 331 q 608 444 608 401 q 593 524 608 488 q 551 586 578 560 q 488 627 524 613 q 411 642 451 642 q 335 627 371 642 q 272 586 299 613 q 229 524 244 560 q 214 444 214 488 q 229 366 214 401 q 272 305 244 331 q 335 265 299 279 q 411 250 371 250 m 281 981 l 319 981 l 428 839 l 433 839 l 542 981 l 581 981 l 450 794 l 411 794 l 281 981 z "},"ḡ":{"ha":833,"x_min":122,"x_max":778,"o":"m 167 -135 q 230 -242 167 -199 q 425 -286 293 -286 q 555 -270 497 -286 q 652 -228 613 -254 q 713 -169 692 -201 q 733 -103 733 -136 q 688 -20 733 -43 q 551 3 643 3 l 383 3 q 333 6 360 3 q 282 15 306 8 q 192 -58 217 -19 q 167 -135 167 -96 m 122 -129 q 152 -47 122 -90 q 236 31 182 -4 l 236 36 q 189 74 211 47 q 167 142 167 100 q 187 206 167 174 q 247 267 207 239 l 247 272 q 192 342 215 300 q 169 444 169 383 q 188 538 169 494 q 240 613 207 581 q 317 663 274 644 q 411 681 361 681 q 500 664 463 681 l 778 664 l 778 625 l 567 625 q 626 548 600 593 q 653 444 653 503 q 634 351 653 394 q 582 277 615 308 q 505 228 549 246 q 411 211 461 211 q 346 219 379 211 q 281 244 313 228 q 230 199 249 225 q 211 146 211 174 q 255 71 211 94 q 369 47 299 47 l 540 47 q 722 13 667 47 q 778 -100 778 -21 q 753 -182 778 -142 q 685 -254 729 -222 q 576 -306 640 -286 q 433 -325 513 -325 q 199 -270 275 -325 q 122 -129 122 -215 m 411 250 q 488 265 451 250 q 551 305 524 279 q 593 366 578 331 q 608 444 608 401 q 593 524 608 488 q 551 586 578 560 q 488 627 524 613 q 411 642 451 642 q 335 627 371 642 q 272 586 299 613 q 229 524 244 560 q 214 444 214 488 q 229 366 214 401 q 272 305 244 331 q 335 265 299 279 q 411 250 371 250 m 278 883 l 583 883 l 583 844 l 278 844 l 278 883 z "},"ĥ":{"ha":833,"x_min":46,"x_max":708,"o":"m 153 1003 l 194 1003 l 194 706 l 192 525 q 322 638 258 594 q 467 681 385 681 q 649 616 589 681 q 708 414 708 551 l 708 0 l 667 0 l 667 408 q 619 584 667 526 q 467 642 572 642 q 397 632 429 642 q 332 602 364 622 q 267 551 300 582 q 194 481 233 521 l 194 0 l 153 0 l 153 1003 m 46 1039 l 179 1183 l 218 1183 l 351 1039 l 310 1039 l 201 1142 l 196 1142 l 88 1039 l 46 1039 z "},"ḥ":{"ha":833,"x_min":153,"x_max":708,"o":"m 153 1003 l 194 1003 l 194 706 l 192 525 q 322 638 258 594 q 467 681 385 681 q 649 616 589 681 q 708 414 708 551 l 708 0 l 667 0 l 667 408 q 619 584 667 526 q 467 642 572 642 q 397 632 429 642 q 332 602 364 622 q 267 551 300 582 q 194 481 233 521 l 194 0 l 153 0 l 153 1003 m 443 -283 q 403 -268 419 -283 q 388 -225 388 -253 q 403 -182 388 -197 q 443 -167 419 -167 q 483 -182 467 -167 q 499 -225 499 -197 q 483 -268 499 -253 q 443 -283 467 -283 z "},"ḫ":{"ha":833,"x_min":153,"x_max":708,"o":"m 153 1003 l 194 1003 l 194 706 l 192 525 q 322 638 258 594 q 467 681 385 681 q 649 616 589 681 q 708 414 708 551 l 708 0 l 667 0 l 667 408 q 619 584 667 526 q 467 642 572 642 q 397 632 429 642 q 332 602 364 622 q 267 551 300 582 q 194 481 233 521 l 194 0 l 153 0 l 153 1003 m 442 -281 q 371 -265 400 -281 q 323 -225 342 -249 q 294 -173 304 -201 q 281 -119 283 -144 l 317 -119 q 328 -165 319 -143 q 353 -205 338 -187 q 390 -233 368 -222 q 442 -244 413 -244 q 493 -233 471 -244 q 531 -205 515 -222 q 555 -165 546 -187 q 567 -119 564 -143 l 603 -119 q 590 -173 600 -144 q 560 -225 579 -201 q 513 -265 542 -249 q 442 -281 483 -281 z "},"ħ":{"ha":833,"x_min":44,"x_max":708,"o":"m 192 497 q 322 610 258 567 q 467 653 385 653 q 649 588 589 653 q 708 386 708 524 l 708 0 l 667 0 l 667 381 q 619 556 667 499 q 467 614 572 614 q 397 604 429 614 q 332 574 364 594 q 267 524 300 554 q 194 453 233 493 l 194 0 l 153 0 l 153 811 l 44 811 l 44 844 l 153 850 l 153 1003 l 194 1003 l 194 850 l 522 850 l 522 811 l 194 811 l 194 678 l 192 497 z "},"ì":{"ha":833,"x_min":139,"x_max":558,"o":"m 139 664 l 522 664 l 522 0 l 481 0 l 481 625 l 139 625 l 139 664 m 375 981 l 431 981 l 558 794 l 519 794 l 375 981 z "},"í":{"ha":833,"x_min":139,"x_max":597,"o":"m 139 664 l 522 664 l 522 0 l 481 0 l 481 625 l 139 625 l 139 664 m 453 794 l 414 794 l 542 981 l 597 981 l 453 794 z "},"î":{"ha":833,"x_min":139,"x_max":636,"o":"m 139 664 l 522 664 l 522 0 l 481 0 l 481 625 l 139 625 l 139 664 m 467 981 l 506 981 l 636 794 l 597 794 l 489 936 l 483 936 l 375 794 l 336 794 l 467 981 z "},"ĩ":{"ha":833,"x_min":139,"x_max":650,"o":"m 139 664 l 522 664 l 522 0 l 481 0 l 481 625 l 139 625 l 139 664 m 322 808 q 328 847 324 826 q 344 883 333 867 q 370 911 354 900 q 411 922 386 922 q 456 910 436 922 q 494 883 476 897 q 529 856 513 868 q 564 844 546 844 q 600 865 588 844 q 617 922 613 886 l 650 922 q 644 884 649 904 q 628 847 639 864 q 602 819 618 831 q 561 808 586 808 q 517 820 536 808 q 479 847 497 832 q 444 874 461 861 q 408 886 428 886 q 372 865 385 886 q 356 808 360 844 l 322 808 l 322 808 z "},"ï":{"ha":833,"x_min":139,"x_max":653,"o":"m 139 664 l 522 664 l 522 0 l 481 0 l 481 625 l 139 625 l 139 664 m 367 836 q 333 851 346 836 q 319 886 319 865 q 333 922 319 907 q 367 936 346 936 q 401 922 388 936 q 414 886 414 907 q 401 851 414 865 q 367 836 388 836 m 606 836 q 572 851 585 836 q 558 886 558 865 q 572 922 558 907 q 606 936 585 936 q 640 922 626 936 q 653 886 653 907 q 640 851 653 865 q 606 836 626 836 z "},"ī":{"ha":833,"x_min":139,"x_max":639,"o":"m 139 664 l 522 664 l 522 0 l 481 0 l 481 625 l 139 625 l 139 664 m 333 883 l 639 883 l 639 844 l 333 844 l 333 883 z "},"ĭ":{"ha":833,"x_min":139,"x_max":647,"o":"m 139 664 l 522 664 l 522 0 l 481 0 l 481 625 l 139 625 l 139 664 m 486 800 q 415 816 444 800 q 367 856 386 832 q 338 908 349 879 q 325 961 328 936 l 361 961 q 373 915 364 938 q 397 876 382 893 q 435 847 413 858 q 486 836 457 836 q 538 847 515 836 q 575 876 560 858 q 599 915 590 893 q 611 961 608 938 l 647 961 q 634 908 644 936 q 605 856 624 879 q 557 816 586 832 q 486 800 528 800 z "},"ǐ":{"ha":833,"x_min":139,"x_max":636,"o":"m 139 664 l 522 664 l 522 0 l 481 0 l 481 625 l 139 625 l 139 664 m 336 981 l 375 981 l 483 839 l 489 839 l 597 981 l 636 981 l 506 794 l 467 794 l 336 981 z "},"ỉ":{"ha":833,"x_min":139,"x_max":578,"o":"m 139 664 l 522 664 l 522 0 l 481 0 l 481 625 l 139 625 l 139 664 m 444 794 q 510 825 485 807 q 536 875 536 843 q 505 925 536 908 q 417 944 474 942 l 419 981 q 478 974 450 979 q 529 956 507 968 q 565 925 551 943 q 578 881 578 907 q 567 835 578 854 q 540 803 557 817 q 500 781 522 790 q 456 764 478 771 l 444 794 z "},"ị":{"ha":833,"x_min":139,"x_max":542,"o":"m 139 664 l 522 664 l 522 0 l 481 0 l 481 625 l 139 625 l 139 664 m 486 833 q 447 849 463 833 q 431 892 431 864 q 447 935 431 919 q 486 950 463 950 q 526 935 510 950 q 542 892 542 919 q 526 849 542 864 q 486 833 510 833 m 486 -283 q 447 -268 463 -283 q 431 -225 431 -253 q 447 -182 431 -197 q 486 -167 463 -167 q 526 -182 510 -167 q 542 -225 542 -197 q 526 -268 542 -253 q 486 -283 510 -283 z "},"į":{"ha":833,"x_min":139,"x_max":589,"o":"m 481 625 l 139 625 l 139 664 l 522 664 l 522 0 q 465 -79 490 -37 q 439 -167 439 -121 q 460 -223 439 -204 q 508 -242 481 -242 q 541 -237 528 -242 q 569 -222 554 -233 l 589 -250 q 550 -272 574 -262 q 506 -281 526 -281 q 428 -253 460 -281 q 397 -169 397 -226 q 424 -76 397 -117 q 483 0 451 -36 l 481 0 l 481 625 m 486 833 q 447 849 463 833 q 431 892 431 864 q 447 935 431 919 q 486 950 463 950 q 526 935 510 950 q 542 892 542 919 q 526 849 542 864 q 486 833 510 833 z "},"ı":{"ha":833,"x_min":139,"x_max":522,"o":"m 139 664 l 522 664 l 522 0 l 481 0 l 481 625 l 139 625 l 139 664 z "},"ĵ":{"ha":833,"x_min":92,"x_max":636,"o":"m 139 664 l 522 664 l 522 -64 q 510 -174 522 -125 q 468 -256 497 -222 q 390 -307 439 -289 q 269 -325 342 -325 q 176 -312 225 -325 q 92 -281 128 -300 l 111 -244 q 188 -274 143 -261 q 276 -286 232 -286 q 377 -270 338 -286 q 440 -226 417 -254 q 472 -159 463 -199 q 481 -72 481 -119 l 481 625 l 139 625 l 139 664 m 467 981 l 506 981 l 636 794 l 597 794 l 489 936 l 483 936 l 375 794 l 336 794 l 467 981 z "},"ķ":{"ha":833,"x_min":181,"x_max":783,"o":"m 181 1003 l 222 1003 l 222 244 l 228 244 l 681 664 l 736 664 l 461 408 l 783 0 l 733 0 l 428 383 l 222 192 l 222 0 l 181 0 l 181 1003 m 444 -72 q 525 -108 497 -85 q 553 -172 553 -131 q 539 -218 553 -199 q 502 -251 525 -237 q 449 -274 479 -265 q 389 -286 419 -282 l 381 -250 q 475 -224 439 -242 q 511 -178 511 -207 q 485 -130 511 -144 q 431 -108 460 -115 l 444 -72 l 444 -72 z "},"ĸ":{"ha":833,"x_min":181,"x_max":783,"o":"m 181 664 l 222 664 l 222 242 l 225 244 l 681 664 l 736 664 l 461 408 l 783 0 l 733 0 l 428 383 l 222 189 l 222 0 l 181 0 l 181 664 z "},"ĺ":{"ha":833,"x_min":135,"x_max":739,"o":"m 135 1003 l 431 1003 l 431 183 q 579 22 431 22 q 647 31 613 22 q 722 60 681 40 l 739 25 q 662 -3 699 10 q 576 -17 625 -17 q 438 31 486 -17 q 389 192 389 79 l 389 964 l 135 964 l 135 1003 m 396 1056 l 354 1056 l 485 1200 l 546 1200 l 396 1056 z "},"ľ":{"ha":833,"x_min":135,"x_max":739,"o":"m 135 1003 l 431 1003 l 431 183 q 579 22 431 22 q 647 31 613 22 q 722 60 681 40 l 739 25 q 662 -3 699 10 q 576 -17 625 -17 q 438 31 486 -17 q 389 192 389 79 l 389 964 l 135 964 l 135 1003 m 544 761 l 542 1044 l 583 1044 l 583 978 l 575 761 l 544 761 z "},"ŀ":{"ha":833,"x_min":94,"x_max":699,"o":"m 94 1003 l 390 1003 l 390 183 q 539 22 390 22 q 606 31 572 22 q 682 60 640 40 l 699 25 q 622 -3 658 10 q 536 -17 585 -17 q 397 31 446 -17 q 349 192 349 79 l 349 964 l 94 964 l 94 1003 m 569 418 q 530 433 546 418 q 514 476 514 449 q 530 519 514 504 q 569 535 546 535 q 609 519 593 535 q 625 476 625 504 q 609 433 625 449 q 569 418 593 418 z "},"ļ":{"ha":833,"x_min":135,"x_max":739,"o":"m 135 1003 l 431 1003 l 431 183 q 579 22 431 22 q 647 31 613 22 q 722 60 681 40 l 739 25 q 662 -3 699 10 q 576 -17 625 -17 q 438 31 486 -17 q 389 192 389 79 l 389 964 l 135 964 l 135 1003 m 492 -72 q 572 -108 544 -85 q 600 -172 600 -131 q 586 -218 600 -199 q 549 -251 572 -237 q 497 -274 526 -265 q 436 -286 467 -282 l 428 -250 q 522 -224 486 -242 q 558 -178 558 -207 q 533 -130 558 -144 q 478 -108 507 -115 l 492 -72 l 492 -72 z "},"ḷ":{"ha":833,"x_min":135,"x_max":739,"o":"m 135 1003 l 431 1003 l 431 183 q 579 22 431 22 q 647 31 613 22 q 722 60 681 40 l 739 25 q 662 -3 699 10 q 576 -17 625 -17 q 438 31 486 -17 q 389 192 389 79 l 389 964 l 135 964 l 135 1003 m 525 -283 q 485 -268 501 -283 q 469 -225 469 -253 q 485 -182 469 -197 q 525 -167 501 -167 q 565 -182 549 -167 q 581 -225 581 -197 q 565 -268 581 -253 q 525 -283 549 -283 z "},"ḹ":{"ha":833,"x_min":135,"x_max":739,"o":"m 135 1003 l 431 1003 l 431 183 q 579 22 431 22 q 647 31 613 22 q 722 60 681 40 l 739 25 q 662 -3 699 10 q 576 -17 625 -17 q 438 31 486 -17 q 389 192 389 79 l 389 964 l 135 964 l 135 1003 m 257 1203 l 563 1203 l 563 1164 l 257 1164 l 257 1203 m 525 -283 q 485 -268 501 -283 q 469 -225 469 -253 q 485 -182 469 -197 q 525 -167 501 -167 q 565 -182 549 -167 q 581 -225 581 -197 q 565 -268 581 -253 q 525 -283 549 -283 z "},"ḻ":{"ha":833,"x_min":135,"x_max":739,"o":"m 135 1003 l 431 1003 l 431 183 q 579 22 431 22 q 647 31 613 22 q 722 60 681 40 l 739 25 q 662 -3 699 10 q 576 -17 625 -17 q 438 31 486 -17 q 389 192 389 79 l 389 964 l 135 964 l 135 1003 m 678 -217 l 369 -217 l 369 -178 l 678 -178 l 678 -217 z "},"ł":{"ha":833,"x_min":135,"x_max":739,"o":"m 739 25 q 662 -3 699 10 q 576 -17 625 -17 q 438 31 486 -17 q 389 192 389 79 l 389 524 l 206 417 l 206 461 l 389 568 l 389 964 l 135 964 l 135 1003 l 431 1003 l 431 593 l 672 731 l 672 686 l 431 549 l 431 183 q 579 22 431 22 q 647 31 613 22 q 722 60 681 40 l 739 25 z "},"ṃ":{"ha":833,"x_min":111,"x_max":753,"o":"m 111 664 l 147 664 l 153 572 l 156 572 q 220 651 186 622 q 310 681 254 681 q 399 651 367 681 q 444 561 431 622 q 519 650 483 619 q 610 681 554 681 q 716 632 679 681 q 753 483 753 583 l 753 0 l 711 0 l 711 478 q 607 642 711 642 q 524 608 558 642 q 453 508 489 575 l 453 0 l 411 0 l 411 478 q 307 642 411 642 q 224 608 258 642 q 153 508 189 575 l 153 0 l 111 0 l 111 664 m 426 -283 q 387 -268 403 -283 q 371 -225 371 -253 q 387 -182 371 -197 q 426 -167 403 -167 q 466 -182 450 -167 q 482 -225 482 -197 q 466 -268 482 -253 q 426 -283 450 -283 z "},"ń":{"ha":833,"x_min":153,"x_max":708,"o":"m 153 664 l 189 664 l 194 531 l 200 531 q 260 590 229 563 q 322 638 290 618 q 390 669 354 658 q 467 681 426 681 q 649 616 589 681 q 708 414 708 551 l 708 0 l 667 0 l 667 408 q 619 584 667 526 q 467 642 572 642 q 397 632 429 642 q 332 602 364 622 q 267 551 300 582 q 194 481 233 521 l 194 0 l 153 0 l 153 664 m 411 794 l 372 794 l 500 981 l 556 981 l 411 794 z "},"ň":{"ha":833,"x_min":153,"x_max":708,"o":"m 153 664 l 189 664 l 194 531 l 200 531 q 260 590 229 563 q 322 638 290 618 q 390 669 354 658 q 467 681 426 681 q 649 616 589 681 q 708 414 708 551 l 708 0 l 667 0 l 667 408 q 619 584 667 526 q 467 642 572 642 q 397 632 429 642 q 332 602 364 622 q 267 551 300 582 q 194 481 233 521 l 194 0 l 153 0 l 153 664 m 294 981 l 333 981 l 442 839 l 447 839 l 556 981 l 594 981 l 464 794 l 425 794 l 294 981 z "},"ñ":{"ha":833,"x_min":153,"x_max":708,"o":"m 153 664 l 189 664 l 194 531 l 200 531 q 260 590 229 563 q 322 638 290 618 q 390 669 354 658 q 467 681 426 681 q 649 616 589 681 q 708 414 708 551 l 708 0 l 667 0 l 667 408 q 619 584 667 526 q 467 642 572 642 q 397 632 429 642 q 332 602 364 622 q 267 551 300 582 q 194 481 233 521 l 194 0 l 153 0 l 153 664 m 281 808 q 287 847 282 826 q 302 883 292 867 q 328 911 313 900 q 369 922 344 922 q 415 910 394 922 q 453 883 435 897 q 488 856 471 868 q 522 844 504 844 q 558 865 546 844 q 575 922 571 886 l 608 922 q 602 884 607 904 q 587 847 597 864 q 560 819 576 831 q 519 808 544 808 q 475 820 494 808 q 438 847 456 832 q 403 874 419 861 q 367 886 386 886 q 331 865 343 886 q 314 808 318 844 l 281 808 l 281 808 z "},"ņ":{"ha":833,"x_min":153,"x_max":708,"o":"m 153 664 l 189 664 l 194 531 l 200 531 q 260 590 229 563 q 322 638 290 618 q 390 669 354 658 q 467 681 426 681 q 649 616 589 681 q 708 414 708 551 l 708 0 l 667 0 l 667 408 q 619 584 667 526 q 467 642 572 642 q 397 632 429 642 q 332 602 364 622 q 267 551 300 582 q 194 481 233 521 l 194 0 l 153 0 l 153 664 m 408 -72 q 489 -108 461 -85 q 517 -172 517 -131 q 503 -218 517 -199 q 466 -251 489 -237 q 413 -274 443 -265 q 353 -286 383 -282 l 344 -250 q 439 -224 403 -242 q 475 -178 475 -207 q 449 -130 475 -144 q 394 -108 424 -115 l 408 -72 l 408 -72 z "},"ṅ":{"ha":833,"x_min":153,"x_max":708,"o":"m 153 664 l 189 664 l 194 531 l 200 531 q 260 590 229 563 q 322 638 290 618 q 390 669 354 658 q 467 681 426 681 q 649 616 589 681 q 708 414 708 551 l 708 0 l 667 0 l 667 408 q 619 584 667 526 q 467 642 572 642 q 397 632 429 642 q 332 602 364 622 q 267 551 300 582 q 194 481 233 521 l 194 0 l 153 0 l 153 664 m 444 833 q 405 849 421 833 q 389 892 389 864 q 405 935 389 919 q 444 950 421 950 q 484 935 468 950 q 500 892 500 919 q 484 849 500 864 q 444 833 468 833 z "},"ṇ":{"ha":833,"x_min":153,"x_max":708,"o":"m 153 664 l 189 664 l 194 531 l 200 531 q 260 590 229 563 q 322 638 290 618 q 390 669 354 658 q 467 681 426 681 q 649 616 589 681 q 708 414 708 551 l 708 0 l 667 0 l 667 408 q 619 584 667 526 q 467 642 572 642 q 397 632 429 642 q 332 602 364 622 q 267 551 300 582 q 194 481 233 521 l 194 0 l 153 0 l 153 664 m 442 -283 q 402 -268 418 -283 q 386 -225 386 -253 q 402 -182 386 -197 q 442 -167 418 -167 q 481 -182 465 -167 q 497 -225 497 -197 q 481 -268 497 -253 q 442 -283 465 -283 z "},"ṉ":{"ha":833,"x_min":153,"x_max":708,"o":"m 153 664 l 189 664 l 194 531 l 200 531 q 260 590 229 563 q 322 638 290 618 q 390 669 354 658 q 467 681 426 681 q 649 616 589 681 q 708 414 708 551 l 708 0 l 667 0 l 667 408 q 619 584 667 526 q 467 642 572 642 q 397 632 429 642 q 332 602 364 622 q 267 551 300 582 q 194 481 233 521 l 194 0 l 153 0 l 153 664 m 594 -217 l 286 -217 l 286 -178 l 594 -178 l 594 -217 z "},"ŉ":{"ha":833,"x_min":-3,"x_max":778,"o":"m -3 586 q 93 690 57 628 q 133 831 129 751 q 89 814 110 814 q 35 836 56 814 q 14 892 14 858 q 35 949 14 926 q 92 972 57 972 q 157 940 128 972 q 186 849 186 907 q 140 673 186 751 q 22 553 93 594 l -3 586 m 297 544 q 413 642 354 603 q 550 681 472 681 q 722 619 665 681 q 778 428 778 558 l 778 0 l 736 0 l 736 422 q 692 588 736 533 q 550 642 649 642 q 483 633 514 642 q 422 605 453 624 q 360 559 392 586 q 292 494 328 532 l 292 0 l 250 0 l 250 664 l 286 664 l 292 544 l 297 544 z "},"ò":{"ha":833,"x_min":97,"x_max":736,"o":"m 97 331 q 123 479 97 414 q 192 589 149 544 q 294 657 236 633 q 417 681 351 681 q 540 657 482 681 q 641 589 597 633 q 710 479 685 544 q 736 331 736 414 q 710 184 736 249 q 641 75 685 119 q 540 7 597 31 q 417 -17 482 -17 q 294 7 351 -17 q 192 75 236 31 q 123 184 149 119 q 97 331 97 249 m 142 331 q 163 205 142 261 q 220 108 183 149 q 307 44 257 67 q 417 22 357 22 q 526 44 476 22 q 613 108 576 67 q 671 205 650 149 q 692 331 692 261 q 671 456 692 399 q 613 555 650 514 q 526 619 576 596 q 417 642 476 642 q 307 619 357 642 q 220 555 257 596 q 163 456 183 514 q 142 331 142 399 m 306 981 l 361 981 l 489 794 l 450 794 l 306 981 z "},"ó":{"ha":833,"x_min":97,"x_max":736,"o":"m 97 331 q 123 479 97 414 q 192 589 149 544 q 294 657 236 633 q 417 681 351 681 q 540 657 482 681 q 641 589 597 633 q 710 479 685 544 q 736 331 736 414 q 710 184 736 249 q 641 75 685 119 q 540 7 597 31 q 417 -17 482 -17 q 294 7 351 -17 q 192 75 236 31 q 123 184 149 119 q 97 331 97 249 m 142 331 q 163 205 142 261 q 220 108 183 149 q 307 44 257 67 q 417 22 357 22 q 526 44 476 22 q 613 108 576 67 q 671 205 650 149 q 692 331 692 261 q 671 456 692 399 q 613 555 650 514 q 526 619 576 596 q 417 642 476 642 q 307 619 357 642 q 220 555 257 596 q 163 456 183 514 q 142 331 142 399 m 383 794 l 344 794 l 472 981 l 528 981 l 383 794 z "},"ô":{"ha":833,"x_min":97,"x_max":736,"o":"m 97 331 q 123 479 97 414 q 192 589 149 544 q 294 657 236 633 q 417 681 351 681 q 540 657 482 681 q 641 589 597 633 q 710 479 685 544 q 736 331 736 414 q 710 184 736 249 q 641 75 685 119 q 540 7 597 31 q 417 -17 482 -17 q 294 7 351 -17 q 192 75 236 31 q 123 184 149 119 q 97 331 97 249 m 142 331 q 163 205 142 261 q 220 108 183 149 q 307 44 257 67 q 417 22 357 22 q 526 44 476 22 q 613 108 576 67 q 671 205 650 149 q 692 331 692 261 q 671 456 692 399 q 613 555 650 514 q 526 619 576 596 q 417 642 476 642 q 307 619 357 642 q 220 555 257 596 q 163 456 183 514 q 142 331 142 399 m 397 981 l 436 981 l 567 794 l 528 794 l 419 936 l 414 936 l 306 794 l 267 794 l 397 981 z "},"õ":{"ha":833,"x_min":97,"x_max":736,"o":"m 97 331 q 123 479 97 414 q 192 589 149 544 q 294 657 236 633 q 417 681 351 681 q 540 657 482 681 q 641 589 597 633 q 710 479 685 544 q 736 331 736 414 q 710 184 736 249 q 641 75 685 119 q 540 7 597 31 q 417 -17 482 -17 q 294 7 351 -17 q 192 75 236 31 q 123 184 149 119 q 97 331 97 249 m 142 331 q 163 205 142 261 q 220 108 183 149 q 307 44 257 67 q 417 22 357 22 q 526 44 476 22 q 613 108 576 67 q 671 205 650 149 q 692 331 692 261 q 671 456 692 399 q 613 555 650 514 q 526 619 576 596 q 417 642 476 642 q 307 619 357 642 q 220 555 257 596 q 163 456 183 514 q 142 331 142 399 m 253 808 q 259 847 254 826 q 274 883 264 867 q 301 911 285 900 q 342 922 317 922 q 387 910 367 922 q 425 883 407 897 q 460 856 443 868 q 494 844 476 844 q 531 865 518 844 q 547 922 543 886 l 581 922 q 574 884 579 904 q 559 847 569 864 q 533 819 549 831 q 492 808 517 808 q 447 820 467 808 q 410 847 428 832 q 375 874 392 861 q 339 886 358 886 q 303 865 315 886 q 286 808 290 844 l 253 808 l 253 808 z "},"ö":{"ha":833,"x_min":97,"x_max":736,"o":"m 97 331 q 123 479 97 414 q 192 589 149 544 q 294 657 236 633 q 417 681 351 681 q 540 657 482 681 q 641 589 597 633 q 710 479 685 544 q 736 331 736 414 q 710 184 736 249 q 641 75 685 119 q 540 7 597 31 q 417 -17 482 -17 q 294 7 351 -17 q 192 75 236 31 q 123 184 149 119 q 97 331 97 249 m 142 331 q 163 205 142 261 q 220 108 183 149 q 307 44 257 67 q 417 22 357 22 q 526 44 476 22 q 613 108 576 67 q 671 205 650 149 q 692 331 692 261 q 671 456 692 399 q 613 555 650 514 q 526 619 576 596 q 417 642 476 642 q 307 619 357 642 q 220 555 257 596 q 163 456 183 514 q 142 331 142 399 m 297 836 q 263 851 276 836 q 250 886 250 865 q 263 922 250 907 q 297 936 276 936 q 331 922 318 936 q 344 886 344 907 q 331 851 344 865 q 297 836 318 836 m 536 836 q 502 851 515 836 q 489 886 489 865 q 502 922 489 907 q 536 936 515 936 q 570 922 557 936 q 583 886 583 907 q 570 851 583 865 q 536 836 557 836 z "},"ō":{"ha":833,"x_min":97,"x_max":736,"o":"m 97 331 q 123 479 97 414 q 192 589 149 544 q 294 657 236 633 q 417 681 351 681 q 540 657 482 681 q 641 589 597 633 q 710 479 685 544 q 736 331 736 414 q 710 184 736 249 q 641 75 685 119 q 540 7 597 31 q 417 -17 482 -17 q 294 7 351 -17 q 192 75 236 31 q 123 184 149 119 q 97 331 97 249 m 142 331 q 163 205 142 261 q 220 108 183 149 q 307 44 257 67 q 417 22 357 22 q 526 44 476 22 q 613 108 576 67 q 671 205 650 149 q 692 331 692 261 q 671 456 692 399 q 613 555 650 514 q 526 619 576 596 q 417 642 476 642 q 307 619 357 642 q 220 555 257 596 q 163 456 183 514 q 142 331 142 399 m 264 883 l 569 883 l 569 844 l 264 844 l 264 883 z "},"ŏ":{"ha":833,"x_min":97,"x_max":736,"o":"m 97 331 q 123 479 97 414 q 192 589 149 544 q 294 657 236 633 q 417 681 351 681 q 540 657 482 681 q 641 589 597 633 q 710 479 685 544 q 736 331 736 414 q 710 184 736 249 q 641 75 685 119 q 540 7 597 31 q 417 -17 482 -17 q 294 7 351 -17 q 192 75 236 31 q 123 184 149 119 q 97 331 97 249 m 142 331 q 163 205 142 261 q 220 108 183 149 q 307 44 257 67 q 417 22 357 22 q 526 44 476 22 q 613 108 576 67 q 671 205 650 149 q 692 331 692 261 q 671 456 692 399 q 613 555 650 514 q 526 619 576 596 q 417 642 476 642 q 307 619 357 642 q 220 555 257 596 q 163 456 183 514 q 142 331 142 399 m 417 800 q 346 816 375 800 q 298 856 317 832 q 269 908 279 879 q 256 961 258 936 l 292 961 q 303 915 294 938 q 328 876 313 893 q 365 847 343 858 q 417 836 388 836 q 468 847 446 836 q 506 876 490 858 q 530 915 521 893 q 542 961 539 938 l 578 961 q 565 908 575 936 q 535 856 554 879 q 488 816 517 832 q 417 800 458 800 z "},"ő":{"ha":833,"x_min":97,"x_max":736,"o":"m 97 331 q 123 479 97 414 q 192 589 149 544 q 294 657 236 633 q 417 681 351 681 q 540 657 482 681 q 641 589 597 633 q 710 479 685 544 q 736 331 736 414 q 710 184 736 249 q 641 75 685 119 q 540 7 597 31 q 417 -17 482 -17 q 294 7 351 -17 q 192 75 236 31 q 123 184 149 119 q 97 331 97 249 m 142 331 q 163 205 142 261 q 220 108 183 149 q 307 44 257 67 q 417 22 357 22 q 526 44 476 22 q 613 108 576 67 q 671 205 650 149 q 692 331 692 261 q 671 456 692 399 q 613 555 650 514 q 526 619 576 596 q 417 642 476 642 q 307 619 357 642 q 220 555 257 596 q 163 456 183 514 q 142 331 142 399 m 411 981 l 461 981 l 347 792 l 311 792 l 411 981 m 589 981 l 639 981 l 525 792 l 489 792 l 589 981 z "},"ǒ":{"ha":833,"x_min":97,"x_max":736,"o":"m 97 331 q 123 479 97 414 q 192 589 149 544 q 294 657 236 633 q 417 681 351 681 q 540 657 482 681 q 641 589 597 633 q 710 479 685 544 q 736 331 736 414 q 710 184 736 249 q 641 75 685 119 q 540 7 597 31 q 417 -17 482 -17 q 294 7 351 -17 q 192 75 236 31 q 123 184 149 119 q 97 331 97 249 m 142 331 q 163 205 142 261 q 220 108 183 149 q 307 44 257 67 q 417 22 357 22 q 526 44 476 22 q 613 108 576 67 q 671 205 650 149 q 692 331 692 261 q 671 456 692 399 q 613 555 650 514 q 526 619 576 596 q 417 642 476 642 q 307 619 357 642 q 220 555 257 596 q 163 456 183 514 q 142 331 142 399 m 267 981 l 306 981 l 414 839 l 419 839 l 528 981 l 567 981 l 436 794 l 397 794 l 267 981 z "},"ọ":{"ha":833,"x_min":97,"x_max":736,"o":"m 97 331 q 123 479 97 414 q 192 589 149 544 q 294 657 236 633 q 417 681 351 681 q 540 657 482 681 q 641 589 597 633 q 710 479 685 544 q 736 331 736 414 q 710 184 736 249 q 641 75 685 119 q 540 7 597 31 q 417 -17 482 -17 q 294 7 351 -17 q 192 75 236 31 q 123 184 149 119 q 97 331 97 249 m 142 331 q 163 205 142 261 q 220 108 183 149 q 307 44 257 67 q 417 22 357 22 q 526 44 476 22 q 613 108 576 67 q 671 205 650 149 q 692 331 692 261 q 671 456 692 399 q 613 555 650 514 q 526 619 576 596 q 417 642 476 642 q 307 619 357 642 q 220 555 257 596 q 163 456 183 514 q 142 331 142 399 m 418 -283 q 378 -268 394 -283 q 363 -225 363 -253 q 378 -182 363 -197 q 418 -167 394 -167 q 458 -182 442 -167 q 474 -225 474 -197 q 458 -268 474 -253 q 418 -283 442 -283 z "},"ỏ":{"ha":833,"x_min":97,"x_max":736,"o":"m 97 331 q 123 479 97 414 q 192 589 149 544 q 294 657 236 633 q 417 681 351 681 q 540 657 482 681 q 641 589 597 633 q 710 479 685 544 q 736 331 736 414 q 710 184 736 249 q 641 75 685 119 q 540 7 597 31 q 417 -17 482 -17 q 294 7 351 -17 q 192 75 236 31 q 123 184 149 119 q 97 331 97 249 m 142 331 q 163 205 142 261 q 220 108 183 149 q 307 44 257 67 q 417 22 357 22 q 526 44 476 22 q 613 108 576 67 q 671 205 650 149 q 692 331 692 261 q 671 456 692 399 q 613 555 650 514 q 526 619 576 596 q 417 642 476 642 q 307 619 357 642 q 220 555 257 596 q 163 456 183 514 q 142 331 142 399 m 375 794 q 441 825 415 807 q 467 875 467 843 q 435 925 467 908 q 347 944 404 942 l 350 981 q 409 974 381 979 q 460 956 438 968 q 495 925 482 943 q 508 881 508 907 q 498 835 508 854 q 470 803 488 817 q 431 781 453 790 q 386 764 408 771 l 375 794 z "}}}
